<?xml version="1.0" encoding="UTF-8" standalone="no"?><svg xmlns="http://www.w3.org/2000/svg" id="numbers-6" width="1200" height="1200" viewBox="0 0 1200 1200" preserveAspectRatio="xMidYMid meet" rendering="crispEdges"><rect id="54-44" x="530" y="430" width="10" height="10" shape-rendering="crispEdges" style="fill:#000000;opacity:255;"></rect><rect id="55-44" x="540" y="430" width="10" height="10" shape-rendering="crispEdges" style="fill:#000000;opacity:255;"></rect><rect id="56-44" x="550" y="430" width="10" height="10" shape-rendering="crispEdges" style="fill:#000000;opacity:255;"></rect><rect id="51-45" x="500" y="440" width="10" height="10" shape-rendering="crispEdges" style="fill:#000000;opacity:255;"></rect><rect id="52-45" x="510" y="440" width="10" height="10" shape-rendering="crispEdges" style="fill:#000000;opacity:255;"></rect><rect id="53-45" x="520" y="440" width="10" height="10" shape-rendering="crispEdges" style="fill:#000000;opacity:255;"></rect><rect id="54-45" x="530" y="440" width="10" height="10" shape-rendering="crispEdges" style="fill:#d842ff;opacity:255;"></rect><rect id="55-45" x="540" y="440" width="10" height="10" shape-rendering="crispEdges" style="fill:#d842ff;opacity:255;"></rect><rect id="56-45" x="550" y="440" width="10" height="10" shape-rendering="crispEdges" style="fill:#cb00ff;opacity:255;"></rect><rect id="57-45" x="560" y="440" width="10" height="10" shape-rendering="crispEdges" style="fill:#000000;opacity:255;"></rect><rect id="48-46" x="470" y="450" width="10" height="10" shape-rendering="crispEdges" style="fill:#000000;opacity:255;"></rect><rect id="49-46" x="480" y="450" width="10" height="10" shape-rendering="crispEdges" style="fill:#000000;opacity:255;"></rect><rect id="50-46" x="490" y="450" width="10" height="10" shape-rendering="crispEdges" style="fill:#000000;opacity:255;"></rect><rect id="51-46" x="500" y="450" width="10" height="10" shape-rendering="crispEdges" style="fill:#d842ff;opacity:255;"></rect><rect id="52-46" x="510" y="450" width="10" height="10" shape-rendering="crispEdges" style="fill:#d842ff;opacity:255;"></rect><rect id="53-46" x="520" y="450" width="10" height="10" shape-rendering="crispEdges" style="fill:#d842ff;opacity:255;"></rect><rect id="54-46" x="530" y="450" width="10" height="10" shape-rendering="crispEdges" style="fill:#cb00ff;opacity:255;"></rect><rect id="55-46" x="540" y="450" width="10" height="10" shape-rendering="crispEdges" style="fill:#cb00ff;opacity:255;"></rect><rect id="56-46" x="550" y="450" width="10" height="10" shape-rendering="crispEdges" style="fill:#cb00ff;opacity:255;"></rect><rect id="57-46" x="560" y="450" width="10" height="10" shape-rendering="crispEdges" style="fill:#000000;opacity:255;"></rect><rect id="48-47" x="470" y="460" width="10" height="10" shape-rendering="crispEdges" style="fill:#000000;opacity:255;"></rect><rect id="49-47" x="480" y="460" width="10" height="10" shape-rendering="crispEdges" style="fill:#ffffff;opacity:255;"></rect><rect id="50-47" x="490" y="460" width="10" height="10" shape-rendering="crispEdges" style="fill:#d842ff;opacity:255;"></rect><rect id="51-47" x="500" y="460" width="10" height="10" shape-rendering="crispEdges" style="fill:#cb00ff;opacity:255;"></rect><rect id="52-47" x="510" y="460" width="10" height="10" shape-rendering="crispEdges" style="fill:#cb00ff;opacity:255;"></rect><rect id="53-47" x="520" y="460" width="10" height="10" shape-rendering="crispEdges" style="fill:#cb00ff;opacity:255;"></rect><rect id="54-47" x="530" y="460" width="10" height="10" shape-rendering="crispEdges" style="fill:#000000;opacity:255;"></rect><rect id="55-47" x="540" y="460" width="10" height="10" shape-rendering="crispEdges" style="fill:#000000;opacity:255;"></rect><rect id="56-47" x="550" y="460" width="10" height="10" shape-rendering="crispEdges" style="fill:#000000;opacity:255;"></rect><rect id="46-48" x="450" y="470" width="10" height="10" shape-rendering="crispEdges" style="fill:#000000;opacity:255;"></rect><rect id="47-48" x="460" y="470" width="10" height="10" shape-rendering="crispEdges" style="fill:#000000;opacity:255;"></rect><rect id="48-48" x="470" y="470" width="10" height="10" shape-rendering="crispEdges" style="fill:#ffffff;opacity:255;"></rect><rect id="49-48" x="480" y="470" width="10" height="10" shape-rendering="crispEdges" style="fill:#d842ff;opacity:255;"></rect><rect id="50-48" x="490" y="470" width="10" height="10" shape-rendering="crispEdges" style="fill:#cb00ff;opacity:255;"></rect><rect id="51-48" x="500" y="470" width="10" height="10" shape-rendering="crispEdges" style="fill:#cb00ff;opacity:255;"></rect><rect id="52-48" x="510" y="470" width="10" height="10" shape-rendering="crispEdges" style="fill:#000000;opacity:255;"></rect><rect id="53-48" x="520" y="470" width="10" height="10" shape-rendering="crispEdges" style="fill:#000000;opacity:255;"></rect><rect id="45-49" x="440" y="480" width="10" height="10" shape-rendering="crispEdges" style="fill:#000000;opacity:255;"></rect><rect id="46-49" x="450" y="480" width="10" height="10" shape-rendering="crispEdges" style="fill:#d842ff;opacity:255;"></rect><rect id="47-49" x="460" y="480" width="10" height="10" shape-rendering="crispEdges" style="fill:#cb00ff;opacity:255;"></rect><rect id="48-49" x="470" y="480" width="10" height="10" shape-rendering="crispEdges" style="fill:#cb00ff;opacity:255;"></rect><rect id="49-49" x="480" y="480" width="10" height="10" shape-rendering="crispEdges" style="fill:#000000;opacity:255;"></rect><rect id="50-49" x="490" y="480" width="10" height="10" shape-rendering="crispEdges" style="fill:#000000;opacity:255;"></rect><rect id="51-49" x="500" y="480" width="10" height="10" shape-rendering="crispEdges" style="fill:#000000;opacity:255;"></rect><rect id="44-50" x="430" y="490" width="10" height="10" shape-rendering="crispEdges" style="fill:#000000;opacity:255;"></rect><rect id="45-50" x="440" y="490" width="10" height="10" shape-rendering="crispEdges" style="fill:#ffffff;opacity:255;"></rect><rect id="46-50" x="450" y="490" width="10" height="10" shape-rendering="crispEdges" style="fill:#cb00ff;opacity:255;"></rect><rect id="47-50" x="460" y="490" width="10" height="10" shape-rendering="crispEdges" style="fill:#cb00ff;opacity:255;"></rect><rect id="48-50" x="470" y="490" width="10" height="10" shape-rendering="crispEdges" style="fill:#000000;opacity:255;"></rect><rect id="43-51" x="420" y="500" width="10" height="10" shape-rendering="crispEdges" style="fill:#000000;opacity:255;"></rect><rect id="44-51" x="430" y="500" width="10" height="10" shape-rendering="crispEdges" style="fill:#ffffff;opacity:255;"></rect><rect id="45-51" x="440" y="500" width="10" height="10" shape-rendering="crispEdges" style="fill:#d842ff;opacity:255;"></rect><rect id="46-51" x="450" y="500" width="10" height="10" shape-rendering="crispEdges" style="fill:#d842ff;opacity:255;"></rect><rect id="47-51" x="460" y="500" width="10" height="10" shape-rendering="crispEdges" style="fill:#000000;opacity:255;"></rect><rect id="43-52" x="420" y="510" width="10" height="10" shape-rendering="crispEdges" style="fill:#000000;opacity:255;"></rect><rect id="44-52" x="430" y="510" width="10" height="10" shape-rendering="crispEdges" style="fill:#ffffff;opacity:255;"></rect><rect id="45-52" x="440" y="510" width="10" height="10" shape-rendering="crispEdges" style="fill:#d842ff;opacity:255;"></rect><rect id="46-52" x="450" y="510" width="10" height="10" shape-rendering="crispEdges" style="fill:#000000;opacity:255;"></rect><rect id="42-53" x="410" y="520" width="10" height="10" shape-rendering="crispEdges" style="fill:#000000;opacity:255;"></rect><rect id="43-53" x="420" y="520" width="10" height="10" shape-rendering="crispEdges" style="fill:#ffffff;opacity:255;"></rect><rect id="44-53" x="430" y="520" width="10" height="10" shape-rendering="crispEdges" style="fill:#d842ff;opacity:255;"></rect><rect id="45-53" x="440" y="520" width="10" height="10" shape-rendering="crispEdges" style="fill:#d842ff;opacity:255;"></rect><rect id="46-53" x="450" y="520" width="10" height="10" shape-rendering="crispEdges" style="fill:#000000;opacity:255;"></rect><rect id="42-54" x="410" y="530" width="10" height="10" shape-rendering="crispEdges" style="fill:#000000;opacity:255;"></rect><rect id="43-54" x="420" y="530" width="10" height="10" shape-rendering="crispEdges" style="fill:#d842ff;opacity:255;"></rect><rect id="44-54" x="430" y="530" width="10" height="10" shape-rendering="crispEdges" style="fill:#d842ff;opacity:255;"></rect><rect id="45-54" x="440" y="530" width="10" height="10" shape-rendering="crispEdges" style="fill:#000000;opacity:255;"></rect><rect id="42-55" x="410" y="540" width="10" height="10" shape-rendering="crispEdges" style="fill:#000000;opacity:255;"></rect><rect id="43-55" x="420" y="540" width="10" height="10" shape-rendering="crispEdges" style="fill:#d842ff;opacity:255;"></rect><rect id="44-55" x="430" y="540" width="10" height="10" shape-rendering="crispEdges" style="fill:#cb00ff;opacity:255;"></rect><rect id="45-55" x="440" y="540" width="10" height="10" shape-rendering="crispEdges" style="fill:#000000;opacity:255;"></rect><rect id="42-56" x="410" y="550" width="10" height="10" shape-rendering="crispEdges" style="fill:#000000;opacity:255;"></rect><rect id="43-56" x="420" y="550" width="10" height="10" shape-rendering="crispEdges" style="fill:#d842ff;opacity:255;"></rect><rect id="44-56" x="430" y="550" width="10" height="10" shape-rendering="crispEdges" style="fill:#000000;opacity:255;"></rect><rect id="41-57" x="400" y="560" width="10" height="10" shape-rendering="crispEdges" style="fill:#000000;opacity:255;"></rect><rect id="42-57" x="410" y="560" width="10" height="10" shape-rendering="crispEdges" style="fill:#d842ff;opacity:255;"></rect><rect id="43-57" x="420" y="560" width="10" height="10" shape-rendering="crispEdges" style="fill:#cb00ff;opacity:255;"></rect><rect id="44-57" x="430" y="560" width="10" height="10" shape-rendering="crispEdges" style="fill:#000000;opacity:255;"></rect><rect id="53-57" x="520" y="560" width="10" height="10" shape-rendering="crispEdges" style="fill:#000000;opacity:255;"></rect><rect id="54-57" x="530" y="560" width="10" height="10" shape-rendering="crispEdges" style="fill:#000000;opacity:255;"></rect><rect id="55-57" x="540" y="560" width="10" height="10" shape-rendering="crispEdges" style="fill:#000000;opacity:255;"></rect><rect id="41-58" x="400" y="570" width="10" height="10" shape-rendering="crispEdges" style="fill:#000000;opacity:255;"></rect><rect id="42-58" x="410" y="570" width="10" height="10" shape-rendering="crispEdges" style="fill:#d842ff;opacity:255;"></rect><rect id="43-58" x="420" y="570" width="10" height="10" shape-rendering="crispEdges" style="fill:#cb00ff;opacity:255;"></rect><rect id="44-58" x="430" y="570" width="10" height="10" shape-rendering="crispEdges" style="fill:#000000;opacity:255;"></rect><rect id="50-58" x="490" y="570" width="10" height="10" shape-rendering="crispEdges" style="fill:#000000;opacity:255;"></rect><rect id="51-58" x="500" y="570" width="10" height="10" shape-rendering="crispEdges" style="fill:#000000;opacity:255;"></rect><rect id="52-58" x="510" y="570" width="10" height="10" shape-rendering="crispEdges" style="fill:#000000;opacity:255;"></rect><rect id="53-58" x="520" y="570" width="10" height="10" shape-rendering="crispEdges" style="fill:#d842ff;opacity:255;"></rect><rect id="54-58" x="530" y="570" width="10" height="10" shape-rendering="crispEdges" style="fill:#d842ff;opacity:255;"></rect><rect id="55-58" x="540" y="570" width="10" height="10" shape-rendering="crispEdges" style="fill:#d842ff;opacity:255;"></rect><rect id="56-58" x="550" y="570" width="10" height="10" shape-rendering="crispEdges" style="fill:#000000;opacity:255;"></rect><rect id="57-58" x="560" y="570" width="10" height="10" shape-rendering="crispEdges" style="fill:#000000;opacity:255;"></rect><rect id="58-58" x="570" y="570" width="10" height="10" shape-rendering="crispEdges" style="fill:#000000;opacity:255;"></rect><rect id="41-59" x="400" y="580" width="10" height="10" shape-rendering="crispEdges" style="fill:#000000;opacity:255;"></rect><rect id="42-59" x="410" y="580" width="10" height="10" shape-rendering="crispEdges" style="fill:#d842ff;opacity:255;"></rect><rect id="43-59" x="420" y="580" width="10" height="10" shape-rendering="crispEdges" style="fill:#cb00ff;opacity:255;"></rect><rect id="44-59" x="430" y="580" width="10" height="10" shape-rendering="crispEdges" style="fill:#000000;opacity:255;"></rect><rect id="49-59" x="480" y="580" width="10" height="10" shape-rendering="crispEdges" style="fill:#000000;opacity:255;"></rect><rect id="50-59" x="490" y="580" width="10" height="10" shape-rendering="crispEdges" style="fill:#d842ff;opacity:255;"></rect><rect id="51-59" x="500" y="580" width="10" height="10" shape-rendering="crispEdges" style="fill:#d842ff;opacity:255;"></rect><rect id="52-59" x="510" y="580" width="10" height="10" shape-rendering="crispEdges" style="fill:#d842ff;opacity:255;"></rect><rect id="53-59" x="520" y="580" width="10" height="10" shape-rendering="crispEdges" style="fill:#d842ff;opacity:255;"></rect><rect id="54-59" x="530" y="580" width="10" height="10" shape-rendering="crispEdges" style="fill:#cb00ff;opacity:255;"></rect><rect id="55-59" x="540" y="580" width="10" height="10" shape-rendering="crispEdges" style="fill:#cb00ff;opacity:255;"></rect><rect id="56-59" x="550" y="580" width="10" height="10" shape-rendering="crispEdges" style="fill:#d842ff;opacity:255;"></rect><rect id="57-59" x="560" y="580" width="10" height="10" shape-rendering="crispEdges" style="fill:#cb00ff;opacity:255;"></rect><rect id="58-59" x="570" y="580" width="10" height="10" shape-rendering="crispEdges" style="fill:#cb00ff;opacity:255;"></rect><rect id="59-59" x="580" y="580" width="10" height="10" shape-rendering="crispEdges" style="fill:#000000;opacity:255;"></rect><rect id="41-60" x="400" y="590" width="10" height="10" shape-rendering="crispEdges" style="fill:#000000;opacity:255;"></rect><rect id="42-60" x="410" y="590" width="10" height="10" shape-rendering="crispEdges" style="fill:#d842ff;opacity:255;"></rect><rect id="43-60" x="420" y="590" width="10" height="10" shape-rendering="crispEdges" style="fill:#cb00ff;opacity:255;"></rect><rect id="44-60" x="430" y="590" width="10" height="10" shape-rendering="crispEdges" style="fill:#000000;opacity:255;"></rect><rect id="48-60" x="470" y="590" width="10" height="10" shape-rendering="crispEdges" style="fill:#000000;opacity:255;"></rect><rect id="49-60" x="480" y="590" width="10" height="10" shape-rendering="crispEdges" style="fill:#d842ff;opacity:255;"></rect><rect id="50-60" x="490" y="590" width="10" height="10" shape-rendering="crispEdges" style="fill:#d842ff;opacity:255;"></rect><rect id="51-60" x="500" y="590" width="10" height="10" shape-rendering="crispEdges" style="fill:#d842ff;opacity:255;"></rect><rect id="52-60" x="510" y="590" width="10" height="10" shape-rendering="crispEdges" style="fill:#cb00ff;opacity:255;"></rect><rect id="53-60" x="520" y="590" width="10" height="10" shape-rendering="crispEdges" style="fill:#cb00ff;opacity:255;"></rect><rect id="54-60" x="530" y="590" width="10" height="10" shape-rendering="crispEdges" style="fill:#cb00ff;opacity:255;"></rect><rect id="55-60" x="540" y="590" width="10" height="10" shape-rendering="crispEdges" style="fill:#cb00ff;opacity:255;"></rect><rect id="56-60" x="550" y="590" width="10" height="10" shape-rendering="crispEdges" style="fill:#cb00ff;opacity:255;"></rect><rect id="57-60" x="560" y="590" width="10" height="10" shape-rendering="crispEdges" style="fill:#cb00ff;opacity:255;"></rect><rect id="58-60" x="570" y="590" width="10" height="10" shape-rendering="crispEdges" style="fill:#cb00ff;opacity:255;"></rect><rect id="59-60" x="580" y="590" width="10" height="10" shape-rendering="crispEdges" style="fill:#cb00ff;opacity:255;"></rect><rect id="60-60" x="590" y="590" width="10" height="10" shape-rendering="crispEdges" style="fill:#000000;opacity:255;"></rect><rect id="41-61" x="400" y="600" width="10" height="10" shape-rendering="crispEdges" style="fill:#000000;opacity:255;"></rect><rect id="42-61" x="410" y="600" width="10" height="10" shape-rendering="crispEdges" style="fill:#d842ff;opacity:255;"></rect><rect id="43-61" x="420" y="600" width="10" height="10" shape-rendering="crispEdges" style="fill:#cb00ff;opacity:255;"></rect><rect id="44-61" x="430" y="600" width="10" height="10" shape-rendering="crispEdges" style="fill:#000000;opacity:255;"></rect><rect id="47-61" x="460" y="600" width="10" height="10" shape-rendering="crispEdges" style="fill:#000000;opacity:255;"></rect><rect id="48-61" x="470" y="600" width="10" height="10" shape-rendering="crispEdges" style="fill:#d842ff;opacity:255;"></rect><rect id="49-61" x="480" y="600" width="10" height="10" shape-rendering="crispEdges" style="fill:#d842ff;opacity:255;"></rect><rect id="50-61" x="490" y="600" width="10" height="10" shape-rendering="crispEdges" style="fill:#cb00ff;opacity:255;"></rect><rect id="51-61" x="500" y="600" width="10" height="10" shape-rendering="crispEdges" style="fill:#000000;opacity:255;"></rect><rect id="52-61" x="510" y="600" width="10" height="10" shape-rendering="crispEdges" style="fill:#000000;opacity:255;"></rect><rect id="53-61" x="520" y="600" width="10" height="10" shape-rendering="crispEdges" style="fill:#000000;opacity:255;"></rect><rect id="54-61" x="530" y="600" width="10" height="10" shape-rendering="crispEdges" style="fill:#000000;opacity:255;"></rect><rect id="55-61" x="540" y="600" width="10" height="10" shape-rendering="crispEdges" style="fill:#000000;opacity:255;"></rect><rect id="56-61" x="550" y="600" width="10" height="10" shape-rendering="crispEdges" style="fill:#000000;opacity:255;"></rect><rect id="57-61" x="560" y="600" width="10" height="10" shape-rendering="crispEdges" style="fill:#cb00ff;opacity:255;"></rect><rect id="58-61" x="570" y="600" width="10" height="10" shape-rendering="crispEdges" style="fill:#cb00ff;opacity:255;"></rect><rect id="59-61" x="580" y="600" width="10" height="10" shape-rendering="crispEdges" style="fill:#cb00ff;opacity:255;"></rect><rect id="60-61" x="590" y="600" width="10" height="10" shape-rendering="crispEdges" style="fill:#000000;opacity:255;"></rect><rect id="40-62" x="390" y="610" width="10" height="10" shape-rendering="crispEdges" style="fill:#000000;opacity:255;"></rect><rect id="41-62" x="400" y="610" width="10" height="10" shape-rendering="crispEdges" style="fill:#ffffff;opacity:255;"></rect><rect id="42-62" x="410" y="610" width="10" height="10" shape-rendering="crispEdges" style="fill:#cb00ff;opacity:255;"></rect><rect id="43-62" x="420" y="610" width="10" height="10" shape-rendering="crispEdges" style="fill:#000000;opacity:255;"></rect><rect id="46-62" x="450" y="610" width="10" height="10" shape-rendering="crispEdges" style="fill:#000000;opacity:255;"></rect><rect id="47-62" x="460" y="610" width="10" height="10" shape-rendering="crispEdges" style="fill:#d842ff;opacity:255;"></rect><rect id="48-62" x="470" y="610" width="10" height="10" shape-rendering="crispEdges" style="fill:#d842ff;opacity:255;"></rect><rect id="49-62" x="480" y="610" width="10" height="10" shape-rendering="crispEdges" style="fill:#cb00ff;opacity:255;"></rect><rect id="50-62" x="490" y="610" width="10" height="10" shape-rendering="crispEdges" style="fill:#000000;opacity:255;"></rect><rect id="57-62" x="560" y="610" width="10" height="10" shape-rendering="crispEdges" style="fill:#000000;opacity:255;"></rect><rect id="58-62" x="570" y="610" width="10" height="10" shape-rendering="crispEdges" style="fill:#cb00ff;opacity:255;"></rect><rect id="59-62" x="580" y="610" width="10" height="10" shape-rendering="crispEdges" style="fill:#cb00ff;opacity:255;"></rect><rect id="60-62" x="590" y="610" width="10" height="10" shape-rendering="crispEdges" style="fill:#cb00ff;opacity:255;"></rect><rect id="61-62" x="600" y="610" width="10" height="10" shape-rendering="crispEdges" style="fill:#000000;opacity:255;"></rect><rect id="40-63" x="390" y="620" width="10" height="10" shape-rendering="crispEdges" style="fill:#000000;opacity:255;"></rect><rect id="41-63" x="400" y="620" width="10" height="10" shape-rendering="crispEdges" style="fill:#ffffff;opacity:255;"></rect><rect id="42-63" x="410" y="620" width="10" height="10" shape-rendering="crispEdges" style="fill:#cb00ff;opacity:255;"></rect><rect id="43-63" x="420" y="620" width="10" height="10" shape-rendering="crispEdges" style="fill:#000000;opacity:255;"></rect><rect id="45-63" x="440" y="620" width="10" height="10" shape-rendering="crispEdges" style="fill:#000000;opacity:255;"></rect><rect id="46-63" x="450" y="620" width="10" height="10" shape-rendering="crispEdges" style="fill:#d842ff;opacity:255;"></rect><rect id="47-63" x="460" y="620" width="10" height="10" shape-rendering="crispEdges" style="fill:#cb00ff;opacity:255;"></rect><rect id="48-63" x="470" y="620" width="10" height="10" shape-rendering="crispEdges" style="fill:#cb00ff;opacity:255;"></rect><rect id="49-63" x="480" y="620" width="10" height="10" shape-rendering="crispEdges" style="fill:#000000;opacity:255;"></rect><rect id="57-63" x="560" y="620" width="10" height="10" shape-rendering="crispEdges" style="fill:#000000;opacity:255;"></rect><rect id="58-63" x="570" y="620" width="10" height="10" shape-rendering="crispEdges" style="fill:#cb00ff;opacity:255;"></rect><rect id="59-63" x="580" y="620" width="10" height="10" shape-rendering="crispEdges" style="fill:#cb00ff;opacity:255;"></rect><rect id="60-63" x="590" y="620" width="10" height="10" shape-rendering="crispEdges" style="fill:#cb00ff;opacity:255;"></rect><rect id="61-63" x="600" y="620" width="10" height="10" shape-rendering="crispEdges" style="fill:#000000;opacity:255;"></rect><rect id="40-64" x="390" y="630" width="10" height="10" shape-rendering="crispEdges" style="fill:#000000;opacity:255;"></rect><rect id="41-64" x="400" y="630" width="10" height="10" shape-rendering="crispEdges" style="fill:#d842ff;opacity:255;"></rect><rect id="42-64" x="410" y="630" width="10" height="10" shape-rendering="crispEdges" style="fill:#cb00ff;opacity:255;"></rect><rect id="43-64" x="420" y="630" width="10" height="10" shape-rendering="crispEdges" style="fill:#cb00ff;opacity:255;"></rect><rect id="44-64" x="430" y="630" width="10" height="10" shape-rendering="crispEdges" style="fill:#000000;opacity:255;"></rect><rect id="45-64" x="440" y="630" width="10" height="10" shape-rendering="crispEdges" style="fill:#d842ff;opacity:255;"></rect><rect id="46-64" x="450" y="630" width="10" height="10" shape-rendering="crispEdges" style="fill:#d842ff;opacity:255;"></rect><rect id="47-64" x="460" y="630" width="10" height="10" shape-rendering="crispEdges" style="fill:#cb00ff;opacity:255;"></rect><rect id="48-64" x="470" y="630" width="10" height="10" shape-rendering="crispEdges" style="fill:#000000;opacity:255;"></rect><rect id="56-64" x="550" y="630" width="10" height="10" shape-rendering="crispEdges" style="fill:#000000;opacity:255;"></rect><rect id="57-64" x="560" y="630" width="10" height="10" shape-rendering="crispEdges" style="fill:#cb00ff;opacity:255;"></rect><rect id="58-64" x="570" y="630" width="10" height="10" shape-rendering="crispEdges" style="fill:#cb00ff;opacity:255;"></rect><rect id="59-64" x="580" y="630" width="10" height="10" shape-rendering="crispEdges" style="fill:#cb00ff;opacity:255;"></rect><rect id="60-64" x="590" y="630" width="10" height="10" shape-rendering="crispEdges" style="fill:#000000;opacity:255;"></rect><rect id="41-65" x="400" y="640" width="10" height="10" shape-rendering="crispEdges" style="fill:#000000;opacity:255;"></rect><rect id="42-65" x="410" y="640" width="10" height="10" shape-rendering="crispEdges" style="fill:#d842ff;opacity:255;"></rect><rect id="43-65" x="420" y="640" width="10" height="10" shape-rendering="crispEdges" style="fill:#cb00ff;opacity:255;"></rect><rect id="44-65" x="430" y="640" width="10" height="10" shape-rendering="crispEdges" style="fill:#cb00ff;opacity:255;"></rect><rect id="45-65" x="440" y="640" width="10" height="10" shape-rendering="crispEdges" style="fill:#d842ff;opacity:255;"></rect><rect id="46-65" x="450" y="640" width="10" height="10" shape-rendering="crispEdges" style="fill:#cb00ff;opacity:255;"></rect><rect id="47-65" x="460" y="640" width="10" height="10" shape-rendering="crispEdges" style="fill:#000000;opacity:255;"></rect><rect id="56-65" x="550" y="640" width="10" height="10" shape-rendering="crispEdges" style="fill:#000000;opacity:255;"></rect><rect id="57-65" x="560" y="640" width="10" height="10" shape-rendering="crispEdges" style="fill:#cb00ff;opacity:255;"></rect><rect id="58-65" x="570" y="640" width="10" height="10" shape-rendering="crispEdges" style="fill:#cb00ff;opacity:255;"></rect><rect id="59-65" x="580" y="640" width="10" height="10" shape-rendering="crispEdges" style="fill:#cb00ff;opacity:255;"></rect><rect id="60-65" x="590" y="640" width="10" height="10" shape-rendering="crispEdges" style="fill:#000000;opacity:255;"></rect><rect id="41-66" x="400" y="650" width="10" height="10" shape-rendering="crispEdges" style="fill:#000000;opacity:255;"></rect><rect id="42-66" x="410" y="650" width="10" height="10" shape-rendering="crispEdges" style="fill:#d842ff;opacity:255;"></rect><rect id="43-66" x="420" y="650" width="10" height="10" shape-rendering="crispEdges" style="fill:#cb00ff;opacity:255;"></rect><rect id="44-66" x="430" y="650" width="10" height="10" shape-rendering="crispEdges" style="fill:#cb00ff;opacity:255;"></rect><rect id="45-66" x="440" y="650" width="10" height="10" shape-rendering="crispEdges" style="fill:#cb00ff;opacity:255;"></rect><rect id="46-66" x="450" y="650" width="10" height="10" shape-rendering="crispEdges" style="fill:#000000;opacity:255;"></rect><rect id="54-66" x="530" y="650" width="10" height="10" shape-rendering="crispEdges" style="fill:#000000;opacity:255;"></rect><rect id="55-66" x="540" y="650" width="10" height="10" shape-rendering="crispEdges" style="fill:#000000;opacity:255;"></rect><rect id="56-66" x="550" y="650" width="10" height="10" shape-rendering="crispEdges" style="fill:#cb00ff;opacity:255;"></rect><rect id="57-66" x="560" y="650" width="10" height="10" shape-rendering="crispEdges" style="fill:#cb00ff;opacity:255;"></rect><rect id="58-66" x="570" y="650" width="10" height="10" shape-rendering="crispEdges" style="fill:#000000;opacity:255;"></rect><rect id="59-66" x="580" y="650" width="10" height="10" shape-rendering="crispEdges" style="fill:#000000;opacity:255;"></rect><rect id="41-67" x="400" y="660" width="10" height="10" shape-rendering="crispEdges" style="fill:#000000;opacity:255;"></rect><rect id="42-67" x="410" y="660" width="10" height="10" shape-rendering="crispEdges" style="fill:#000000;opacity:255;"></rect><rect id="43-67" x="420" y="660" width="10" height="10" shape-rendering="crispEdges" style="fill:#d842ff;opacity:255;"></rect><rect id="44-67" x="430" y="660" width="10" height="10" shape-rendering="crispEdges" style="fill:#cb00ff;opacity:255;"></rect><rect id="45-67" x="440" y="660" width="10" height="10" shape-rendering="crispEdges" style="fill:#cb00ff;opacity:255;"></rect><rect id="46-67" x="450" y="660" width="10" height="10" shape-rendering="crispEdges" style="fill:#cb00ff;opacity:255;"></rect><rect id="47-67" x="460" y="660" width="10" height="10" shape-rendering="crispEdges" style="fill:#000000;opacity:255;"></rect><rect id="48-67" x="470" y="660" width="10" height="10" shape-rendering="crispEdges" style="fill:#000000;opacity:255;"></rect><rect id="49-67" x="480" y="660" width="10" height="10" shape-rendering="crispEdges" style="fill:#000000;opacity:255;"></rect><rect id="53-67" x="520" y="660" width="10" height="10" shape-rendering="crispEdges" style="fill:#000000;opacity:255;"></rect><rect id="54-67" x="530" y="660" width="10" height="10" shape-rendering="crispEdges" style="fill:#cb00ff;opacity:255;"></rect><rect id="55-67" x="540" y="660" width="10" height="10" shape-rendering="crispEdges" style="fill:#cb00ff;opacity:255;"></rect><rect id="56-67" x="550" y="660" width="10" height="10" shape-rendering="crispEdges" style="fill:#cb00ff;opacity:255;"></rect><rect id="57-67" x="560" y="660" width="10" height="10" shape-rendering="crispEdges" style="fill:#000000;opacity:255;"></rect><rect id="42-68" x="410" y="670" width="10" height="10" shape-rendering="crispEdges" style="fill:#000000;opacity:255;"></rect><rect id="43-68" x="420" y="670" width="10" height="10" shape-rendering="crispEdges" style="fill:#d842ff;opacity:255;"></rect><rect id="44-68" x="430" y="670" width="10" height="10" shape-rendering="crispEdges" style="fill:#d842ff;opacity:255;"></rect><rect id="45-68" x="440" y="670" width="10" height="10" shape-rendering="crispEdges" style="fill:#cb00ff;opacity:255;"></rect><rect id="46-68" x="450" y="670" width="10" height="10" shape-rendering="crispEdges" style="fill:#cb00ff;opacity:255;"></rect><rect id="47-68" x="460" y="670" width="10" height="10" shape-rendering="crispEdges" style="fill:#cb00ff;opacity:255;"></rect><rect id="48-68" x="470" y="670" width="10" height="10" shape-rendering="crispEdges" style="fill:#cb00ff;opacity:255;"></rect><rect id="49-68" x="480" y="670" width="10" height="10" shape-rendering="crispEdges" style="fill:#cb00ff;opacity:255;"></rect><rect id="50-68" x="490" y="670" width="10" height="10" shape-rendering="crispEdges" style="fill:#000000;opacity:255;"></rect><rect id="51-68" x="500" y="670" width="10" height="10" shape-rendering="crispEdges" style="fill:#000000;opacity:255;"></rect><rect id="52-68" x="510" y="670" width="10" height="10" shape-rendering="crispEdges" style="fill:#000000;opacity:255;"></rect><rect id="53-68" x="520" y="670" width="10" height="10" shape-rendering="crispEdges" style="fill:#cb00ff;opacity:255;"></rect><rect id="54-68" x="530" y="670" width="10" height="10" shape-rendering="crispEdges" style="fill:#cb00ff;opacity:255;"></rect><rect id="55-68" x="540" y="670" width="10" height="10" shape-rendering="crispEdges" style="fill:#cb00ff;opacity:255;"></rect><rect id="56-68" x="550" y="670" width="10" height="10" shape-rendering="crispEdges" style="fill:#cb00ff;opacity:255;"></rect><rect id="57-68" x="560" y="670" width="10" height="10" shape-rendering="crispEdges" style="fill:#000000;opacity:255;"></rect><rect id="43-69" x="420" y="680" width="10" height="10" shape-rendering="crispEdges" style="fill:#000000;opacity:255;"></rect><rect id="44-69" x="430" y="680" width="10" height="10" shape-rendering="crispEdges" style="fill:#cb00ff;opacity:255;"></rect><rect id="45-69" x="440" y="680" width="10" height="10" shape-rendering="crispEdges" style="fill:#cb00ff;opacity:255;"></rect><rect id="46-69" x="450" y="680" width="10" height="10" shape-rendering="crispEdges" style="fill:#cb00ff;opacity:255;"></rect><rect id="47-69" x="460" y="680" width="10" height="10" shape-rendering="crispEdges" style="fill:#cb00ff;opacity:255;"></rect><rect id="48-69" x="470" y="680" width="10" height="10" shape-rendering="crispEdges" style="fill:#cb00ff;opacity:255;"></rect><rect id="49-69" x="480" y="680" width="10" height="10" shape-rendering="crispEdges" style="fill:#cb00ff;opacity:255;"></rect><rect id="50-69" x="490" y="680" width="10" height="10" shape-rendering="crispEdges" style="fill:#cb00ff;opacity:255;"></rect><rect id="51-69" x="500" y="680" width="10" height="10" shape-rendering="crispEdges" style="fill:#cb00ff;opacity:255;"></rect><rect id="52-69" x="510" y="680" width="10" height="10" shape-rendering="crispEdges" style="fill:#cb00ff;opacity:255;"></rect><rect id="53-69" x="520" y="680" width="10" height="10" shape-rendering="crispEdges" style="fill:#cb00ff;opacity:255;"></rect><rect id="54-69" x="530" y="680" width="10" height="10" shape-rendering="crispEdges" style="fill:#cb00ff;opacity:255;"></rect><rect id="55-69" x="540" y="680" width="10" height="10" shape-rendering="crispEdges" style="fill:#000000;opacity:255;"></rect><rect id="56-69" x="550" y="680" width="10" height="10" shape-rendering="crispEdges" style="fill:#000000;opacity:255;"></rect><rect id="44-70" x="430" y="690" width="10" height="10" shape-rendering="crispEdges" style="fill:#000000;opacity:255;"></rect><rect id="45-70" x="440" y="690" width="10" height="10" shape-rendering="crispEdges" style="fill:#000000;opacity:255;"></rect><rect id="46-70" x="450" y="690" width="10" height="10" shape-rendering="crispEdges" style="fill:#cb00ff;opacity:255;"></rect><rect id="47-70" x="460" y="690" width="10" height="10" shape-rendering="crispEdges" style="fill:#cb00ff;opacity:255;"></rect><rect id="48-70" x="470" y="690" width="10" height="10" shape-rendering="crispEdges" style="fill:#cb00ff;opacity:255;"></rect><rect id="49-70" x="480" y="690" width="10" height="10" shape-rendering="crispEdges" style="fill:#cb00ff;opacity:255;"></rect><rect id="50-70" x="490" y="690" width="10" height="10" shape-rendering="crispEdges" style="fill:#cb00ff;opacity:255;"></rect><rect id="51-70" x="500" y="690" width="10" height="10" shape-rendering="crispEdges" style="fill:#cb00ff;opacity:255;"></rect><rect id="52-70" x="510" y="690" width="10" height="10" shape-rendering="crispEdges" style="fill:#cb00ff;opacity:255;"></rect><rect id="53-70" x="520" y="690" width="10" height="10" shape-rendering="crispEdges" style="fill:#000000;opacity:255;"></rect><rect id="54-70" x="530" y="690" width="10" height="10" shape-rendering="crispEdges" style="fill:#000000;opacity:255;"></rect><rect id="45-71" x="440" y="700" width="10" height="10" shape-rendering="crispEdges" style="fill:#000000;opacity:255;"></rect><rect id="46-71" x="450" y="700" width="10" height="10" shape-rendering="crispEdges" style="fill:#000000;opacity:255;"></rect><rect id="47-71" x="460" y="700" width="10" height="10" shape-rendering="crispEdges" style="fill:#000000;opacity:255;"></rect><rect id="48-71" x="470" y="700" width="10" height="10" shape-rendering="crispEdges" style="fill:#000000;opacity:255;"></rect><rect id="49-71" x="480" y="700" width="10" height="10" shape-rendering="crispEdges" style="fill:#000000;opacity:255;"></rect><rect id="50-71" x="490" y="700" width="10" height="10" shape-rendering="crispEdges" style="fill:#000000;opacity:255;"></rect><rect id="51-71" x="500" y="700" width="10" height="10" shape-rendering="crispEdges" style="fill:#000000;opacity:255;"></rect><rect id="52-71" x="510" y="700" width="10" height="10" shape-rendering="crispEdges" style="fill:#000000;opacity:255;"></rect></svg>