<?xml version="1.0" encoding="UTF-8" standalone="no"?><svg xmlns="http://www.w3.org/2000/svg" id="numbers-5" width="1200" height="1200" viewBox="0 0 1200 1200" preserveAspectRatio="xMidYMid meet" rendering="crispEdges"><rect id="41-44" x="400" y="430" width="10" height="10" shape-rendering="crispEdges" style="fill:#000000;opacity:255;"></rect><rect id="42-44" x="410" y="430" width="10" height="10" shape-rendering="crispEdges" style="fill:#000000;opacity:255;"></rect><rect id="43-44" x="420" y="430" width="10" height="10" shape-rendering="crispEdges" style="fill:#000000;opacity:255;"></rect><rect id="44-44" x="430" y="430" width="10" height="10" shape-rendering="crispEdges" style="fill:#000000;opacity:255;"></rect><rect id="55-44" x="540" y="430" width="10" height="10" shape-rendering="crispEdges" style="fill:#000000;opacity:255;"></rect><rect id="56-44" x="550" y="430" width="10" height="10" shape-rendering="crispEdges" style="fill:#000000;opacity:255;"></rect><rect id="57-44" x="560" y="430" width="10" height="10" shape-rendering="crispEdges" style="fill:#000000;opacity:255;"></rect><rect id="58-44" x="570" y="430" width="10" height="10" shape-rendering="crispEdges" style="fill:#000000;opacity:255;"></rect><rect id="39-45" x="380" y="440" width="10" height="10" shape-rendering="crispEdges" style="fill:#000000;opacity:255;"></rect><rect id="40-45" x="390" y="440" width="10" height="10" shape-rendering="crispEdges" style="fill:#000000;opacity:255;"></rect><rect id="41-45" x="400" y="440" width="10" height="10" shape-rendering="crispEdges" style="fill:#ffffff;opacity:255;"></rect><rect id="42-45" x="410" y="440" width="10" height="10" shape-rendering="crispEdges" style="fill:#d842ff;opacity:255;"></rect><rect id="43-45" x="420" y="440" width="10" height="10" shape-rendering="crispEdges" style="fill:#d842ff;opacity:255;"></rect><rect id="44-45" x="430" y="440" width="10" height="10" shape-rendering="crispEdges" style="fill:#d842ff;opacity:255;"></rect><rect id="45-45" x="440" y="440" width="10" height="10" shape-rendering="crispEdges" style="fill:#000000;opacity:255;"></rect><rect id="46-45" x="450" y="440" width="10" height="10" shape-rendering="crispEdges" style="fill:#000000;opacity:255;"></rect><rect id="47-45" x="460" y="440" width="10" height="10" shape-rendering="crispEdges" style="fill:#000000;opacity:255;"></rect><rect id="48-45" x="470" y="440" width="10" height="10" shape-rendering="crispEdges" style="fill:#000000;opacity:255;"></rect><rect id="49-45" x="480" y="440" width="10" height="10" shape-rendering="crispEdges" style="fill:#000000;opacity:255;"></rect><rect id="50-45" x="490" y="440" width="10" height="10" shape-rendering="crispEdges" style="fill:#000000;opacity:255;"></rect><rect id="51-45" x="500" y="440" width="10" height="10" shape-rendering="crispEdges" style="fill:#000000;opacity:255;"></rect><rect id="52-45" x="510" y="440" width="10" height="10" shape-rendering="crispEdges" style="fill:#000000;opacity:255;"></rect><rect id="53-45" x="520" y="440" width="10" height="10" shape-rendering="crispEdges" style="fill:#000000;opacity:255;"></rect><rect id="54-45" x="530" y="440" width="10" height="10" shape-rendering="crispEdges" style="fill:#000000;opacity:255;"></rect><rect id="55-45" x="540" y="440" width="10" height="10" shape-rendering="crispEdges" style="fill:#ffffff;opacity:255;"></rect><rect id="56-45" x="550" y="440" width="10" height="10" shape-rendering="crispEdges" style="fill:#d842ff;opacity:255;"></rect><rect id="57-45" x="560" y="440" width="10" height="10" shape-rendering="crispEdges" style="fill:#d842ff;opacity:255;"></rect><rect id="58-45" x="570" y="440" width="10" height="10" shape-rendering="crispEdges" style="fill:#d842ff;opacity:255;"></rect><rect id="59-45" x="580" y="440" width="10" height="10" shape-rendering="crispEdges" style="fill:#000000;opacity:255;"></rect><rect id="38-46" x="370" y="450" width="10" height="10" shape-rendering="crispEdges" style="fill:#000000;opacity:255;"></rect><rect id="39-46" x="380" y="450" width="10" height="10" shape-rendering="crispEdges" style="fill:#ffffff;opacity:255;"></rect><rect id="40-46" x="390" y="450" width="10" height="10" shape-rendering="crispEdges" style="fill:#ffffff;opacity:255;"></rect><rect id="41-46" x="400" y="450" width="10" height="10" shape-rendering="crispEdges" style="fill:#d842ff;opacity:255;"></rect><rect id="42-46" x="410" y="450" width="10" height="10" shape-rendering="crispEdges" style="fill:#d842ff;opacity:255;"></rect><rect id="43-46" x="420" y="450" width="10" height="10" shape-rendering="crispEdges" style="fill:#d842ff;opacity:255;"></rect><rect id="44-46" x="430" y="450" width="10" height="10" shape-rendering="crispEdges" style="fill:#d842ff;opacity:255;"></rect><rect id="45-46" x="440" y="450" width="10" height="10" shape-rendering="crispEdges" style="fill:#d842ff;opacity:255;"></rect><rect id="46-46" x="450" y="450" width="10" height="10" shape-rendering="crispEdges" style="fill:#d842ff;opacity:255;"></rect><rect id="47-46" x="460" y="450" width="10" height="10" shape-rendering="crispEdges" style="fill:#d842ff;opacity:255;"></rect><rect id="48-46" x="470" y="450" width="10" height="10" shape-rendering="crispEdges" style="fill:#d842ff;opacity:255;"></rect><rect id="49-46" x="480" y="450" width="10" height="10" shape-rendering="crispEdges" style="fill:#cb00ff;opacity:255;"></rect><rect id="50-46" x="490" y="450" width="10" height="10" shape-rendering="crispEdges" style="fill:#cb00ff;opacity:255;"></rect><rect id="51-46" x="500" y="450" width="10" height="10" shape-rendering="crispEdges" style="fill:#cb00ff;opacity:255;"></rect><rect id="52-46" x="510" y="450" width="10" height="10" shape-rendering="crispEdges" style="fill:#cb00ff;opacity:255;"></rect><rect id="53-46" x="520" y="450" width="10" height="10" shape-rendering="crispEdges" style="fill:#cb00ff;opacity:255;"></rect><rect id="54-46" x="530" y="450" width="10" height="10" shape-rendering="crispEdges" style="fill:#d842ff;opacity:255;"></rect><rect id="55-46" x="540" y="450" width="10" height="10" shape-rendering="crispEdges" style="fill:#d842ff;opacity:255;"></rect><rect id="56-46" x="550" y="450" width="10" height="10" shape-rendering="crispEdges" style="fill:#d842ff;opacity:255;"></rect><rect id="57-46" x="560" y="450" width="10" height="10" shape-rendering="crispEdges" style="fill:#d842ff;opacity:255;"></rect><rect id="58-46" x="570" y="450" width="10" height="10" shape-rendering="crispEdges" style="fill:#cb00ff;opacity:255;"></rect><rect id="59-46" x="580" y="450" width="10" height="10" shape-rendering="crispEdges" style="fill:#000000;opacity:255;"></rect><rect id="38-47" x="370" y="460" width="10" height="10" shape-rendering="crispEdges" style="fill:#000000;opacity:255;"></rect><rect id="39-47" x="380" y="460" width="10" height="10" shape-rendering="crispEdges" style="fill:#ffffff;opacity:255;"></rect><rect id="40-47" x="390" y="460" width="10" height="10" shape-rendering="crispEdges" style="fill:#d842ff;opacity:255;"></rect><rect id="41-47" x="400" y="460" width="10" height="10" shape-rendering="crispEdges" style="fill:#d842ff;opacity:255;"></rect><rect id="42-47" x="410" y="460" width="10" height="10" shape-rendering="crispEdges" style="fill:#d842ff;opacity:255;"></rect><rect id="43-47" x="420" y="460" width="10" height="10" shape-rendering="crispEdges" style="fill:#cb00ff;opacity:255;"></rect><rect id="44-47" x="430" y="460" width="10" height="10" shape-rendering="crispEdges" style="fill:#cb00ff;opacity:255;"></rect><rect id="45-47" x="440" y="460" width="10" height="10" shape-rendering="crispEdges" style="fill:#cb00ff;opacity:255;"></rect><rect id="46-47" x="450" y="460" width="10" height="10" shape-rendering="crispEdges" style="fill:#cb00ff;opacity:255;"></rect><rect id="47-47" x="460" y="460" width="10" height="10" shape-rendering="crispEdges" style="fill:#cb00ff;opacity:255;"></rect><rect id="48-47" x="470" y="460" width="10" height="10" shape-rendering="crispEdges" style="fill:#cb00ff;opacity:255;"></rect><rect id="49-47" x="480" y="460" width="10" height="10" shape-rendering="crispEdges" style="fill:#cb00ff;opacity:255;"></rect><rect id="50-47" x="490" y="460" width="10" height="10" shape-rendering="crispEdges" style="fill:#cb00ff;opacity:255;"></rect><rect id="51-47" x="500" y="460" width="10" height="10" shape-rendering="crispEdges" style="fill:#cb00ff;opacity:255;"></rect><rect id="52-47" x="510" y="460" width="10" height="10" shape-rendering="crispEdges" style="fill:#cb00ff;opacity:255;"></rect><rect id="53-47" x="520" y="460" width="10" height="10" shape-rendering="crispEdges" style="fill:#cb00ff;opacity:255;"></rect><rect id="54-47" x="530" y="460" width="10" height="10" shape-rendering="crispEdges" style="fill:#cb00ff;opacity:255;"></rect><rect id="55-47" x="540" y="460" width="10" height="10" shape-rendering="crispEdges" style="fill:#cb00ff;opacity:255;"></rect><rect id="56-47" x="550" y="460" width="10" height="10" shape-rendering="crispEdges" style="fill:#cb00ff;opacity:255;"></rect><rect id="57-47" x="560" y="460" width="10" height="10" shape-rendering="crispEdges" style="fill:#cb00ff;opacity:255;"></rect><rect id="58-47" x="570" y="460" width="10" height="10" shape-rendering="crispEdges" style="fill:#cb00ff;opacity:255;"></rect><rect id="59-47" x="580" y="460" width="10" height="10" shape-rendering="crispEdges" style="fill:#000000;opacity:255;"></rect><rect id="38-48" x="370" y="470" width="10" height="10" shape-rendering="crispEdges" style="fill:#000000;opacity:255;"></rect><rect id="39-48" x="380" y="470" width="10" height="10" shape-rendering="crispEdges" style="fill:#d842ff;opacity:255;"></rect><rect id="40-48" x="390" y="470" width="10" height="10" shape-rendering="crispEdges" style="fill:#d842ff;opacity:255;"></rect><rect id="41-48" x="400" y="470" width="10" height="10" shape-rendering="crispEdges" style="fill:#d842ff;opacity:255;"></rect><rect id="42-48" x="410" y="470" width="10" height="10" shape-rendering="crispEdges" style="fill:#cb00ff;opacity:255;"></rect><rect id="43-48" x="420" y="470" width="10" height="10" shape-rendering="crispEdges" style="fill:#000000;opacity:255;"></rect><rect id="44-48" x="430" y="470" width="10" height="10" shape-rendering="crispEdges" style="fill:#000000;opacity:255;"></rect><rect id="45-48" x="440" y="470" width="10" height="10" shape-rendering="crispEdges" style="fill:#000000;opacity:255;"></rect><rect id="46-48" x="450" y="470" width="10" height="10" shape-rendering="crispEdges" style="fill:#000000;opacity:255;"></rect><rect id="47-48" x="460" y="470" width="10" height="10" shape-rendering="crispEdges" style="fill:#000000;opacity:255;"></rect><rect id="48-48" x="470" y="470" width="10" height="10" shape-rendering="crispEdges" style="fill:#000000;opacity:255;"></rect><rect id="49-48" x="480" y="470" width="10" height="10" shape-rendering="crispEdges" style="fill:#000000;opacity:255;"></rect><rect id="50-48" x="490" y="470" width="10" height="10" shape-rendering="crispEdges" style="fill:#000000;opacity:255;"></rect><rect id="51-48" x="500" y="470" width="10" height="10" shape-rendering="crispEdges" style="fill:#000000;opacity:255;"></rect><rect id="52-48" x="510" y="470" width="10" height="10" shape-rendering="crispEdges" style="fill:#000000;opacity:255;"></rect><rect id="53-48" x="520" y="470" width="10" height="10" shape-rendering="crispEdges" style="fill:#000000;opacity:255;"></rect><rect id="54-48" x="530" y="470" width="10" height="10" shape-rendering="crispEdges" style="fill:#000000;opacity:255;"></rect><rect id="55-48" x="540" y="470" width="10" height="10" shape-rendering="crispEdges" style="fill:#000000;opacity:255;"></rect><rect id="56-48" x="550" y="470" width="10" height="10" shape-rendering="crispEdges" style="fill:#000000;opacity:255;"></rect><rect id="57-48" x="560" y="470" width="10" height="10" shape-rendering="crispEdges" style="fill:#000000;opacity:255;"></rect><rect id="58-48" x="570" y="470" width="10" height="10" shape-rendering="crispEdges" style="fill:#000000;opacity:255;"></rect><rect id="39-49" x="380" y="480" width="10" height="10" shape-rendering="crispEdges" style="fill:#000000;opacity:255;"></rect><rect id="40-49" x="390" y="480" width="10" height="10" shape-rendering="crispEdges" style="fill:#d842ff;opacity:255;"></rect><rect id="41-49" x="400" y="480" width="10" height="10" shape-rendering="crispEdges" style="fill:#d842ff;opacity:255;"></rect><rect id="42-49" x="410" y="480" width="10" height="10" shape-rendering="crispEdges" style="fill:#cb00ff;opacity:255;"></rect><rect id="43-49" x="420" y="480" width="10" height="10" shape-rendering="crispEdges" style="fill:#000000;opacity:255;"></rect><rect id="39-50" x="380" y="490" width="10" height="10" shape-rendering="crispEdges" style="fill:#000000;opacity:255;"></rect><rect id="40-50" x="390" y="490" width="10" height="10" shape-rendering="crispEdges" style="fill:#d842ff;opacity:255;"></rect><rect id="41-50" x="400" y="490" width="10" height="10" shape-rendering="crispEdges" style="fill:#d842ff;opacity:255;"></rect><rect id="42-50" x="410" y="490" width="10" height="10" shape-rendering="crispEdges" style="fill:#cb00ff;opacity:255;"></rect><rect id="43-50" x="420" y="490" width="10" height="10" shape-rendering="crispEdges" style="fill:#000000;opacity:255;"></rect><rect id="39-51" x="380" y="500" width="10" height="10" shape-rendering="crispEdges" style="fill:#000000;opacity:255;"></rect><rect id="40-51" x="390" y="500" width="10" height="10" shape-rendering="crispEdges" style="fill:#d842ff;opacity:255;"></rect><rect id="41-51" x="400" y="500" width="10" height="10" shape-rendering="crispEdges" style="fill:#d842ff;opacity:255;"></rect><rect id="42-51" x="410" y="500" width="10" height="10" shape-rendering="crispEdges" style="fill:#cb00ff;opacity:255;"></rect><rect id="43-51" x="420" y="500" width="10" height="10" shape-rendering="crispEdges" style="fill:#000000;opacity:255;"></rect><rect id="39-52" x="380" y="510" width="10" height="10" shape-rendering="crispEdges" style="fill:#000000;opacity:255;"></rect><rect id="40-52" x="390" y="510" width="10" height="10" shape-rendering="crispEdges" style="fill:#d842ff;opacity:255;"></rect><rect id="41-52" x="400" y="510" width="10" height="10" shape-rendering="crispEdges" style="fill:#d842ff;opacity:255;"></rect><rect id="42-52" x="410" y="510" width="10" height="10" shape-rendering="crispEdges" style="fill:#cb00ff;opacity:255;"></rect><rect id="43-52" x="420" y="510" width="10" height="10" shape-rendering="crispEdges" style="fill:#000000;opacity:255;"></rect><rect id="39-53" x="380" y="520" width="10" height="10" shape-rendering="crispEdges" style="fill:#000000;opacity:255;"></rect><rect id="40-53" x="390" y="520" width="10" height="10" shape-rendering="crispEdges" style="fill:#000000;opacity:255;"></rect><rect id="41-53" x="400" y="520" width="10" height="10" shape-rendering="crispEdges" style="fill:#d842ff;opacity:255;"></rect><rect id="42-53" x="410" y="520" width="10" height="10" shape-rendering="crispEdges" style="fill:#cb00ff;opacity:255;"></rect><rect id="43-53" x="420" y="520" width="10" height="10" shape-rendering="crispEdges" style="fill:#000000;opacity:255;"></rect><rect id="40-54" x="390" y="530" width="10" height="10" shape-rendering="crispEdges" style="fill:#000000;opacity:255;"></rect><rect id="41-54" x="400" y="530" width="10" height="10" shape-rendering="crispEdges" style="fill:#d842ff;opacity:255;"></rect><rect id="42-54" x="410" y="530" width="10" height="10" shape-rendering="crispEdges" style="fill:#cb00ff;opacity:255;"></rect><rect id="43-54" x="420" y="530" width="10" height="10" shape-rendering="crispEdges" style="fill:#cb00ff;opacity:255;"></rect><rect id="44-54" x="430" y="530" width="10" height="10" shape-rendering="crispEdges" style="fill:#000000;opacity:255;"></rect><rect id="40-55" x="390" y="540" width="10" height="10" shape-rendering="crispEdges" style="fill:#000000;opacity:255;"></rect><rect id="41-55" x="400" y="540" width="10" height="10" shape-rendering="crispEdges" style="fill:#d842ff;opacity:255;"></rect><rect id="42-55" x="410" y="540" width="10" height="10" shape-rendering="crispEdges" style="fill:#cb00ff;opacity:255;"></rect><rect id="43-55" x="420" y="540" width="10" height="10" shape-rendering="crispEdges" style="fill:#cb00ff;opacity:255;"></rect><rect id="44-55" x="430" y="540" width="10" height="10" shape-rendering="crispEdges" style="fill:#000000;opacity:255;"></rect><rect id="49-55" x="480" y="540" width="10" height="10" shape-rendering="crispEdges" style="fill:#000000;opacity:255;"></rect><rect id="50-55" x="490" y="540" width="10" height="10" shape-rendering="crispEdges" style="fill:#000000;opacity:255;"></rect><rect id="51-55" x="500" y="540" width="10" height="10" shape-rendering="crispEdges" style="fill:#000000;opacity:255;"></rect><rect id="52-55" x="510" y="540" width="10" height="10" shape-rendering="crispEdges" style="fill:#000000;opacity:255;"></rect><rect id="53-55" x="520" y="540" width="10" height="10" shape-rendering="crispEdges" style="fill:#000000;opacity:255;"></rect><rect id="54-55" x="530" y="540" width="10" height="10" shape-rendering="crispEdges" style="fill:#000000;opacity:255;"></rect><rect id="40-56" x="390" y="550" width="10" height="10" shape-rendering="crispEdges" style="fill:#000000;opacity:255;"></rect><rect id="41-56" x="400" y="550" width="10" height="10" shape-rendering="crispEdges" style="fill:#d842ff;opacity:255;"></rect><rect id="42-56" x="410" y="550" width="10" height="10" shape-rendering="crispEdges" style="fill:#cb00ff;opacity:255;"></rect><rect id="43-56" x="420" y="550" width="10" height="10" shape-rendering="crispEdges" style="fill:#cb00ff;opacity:255;"></rect><rect id="44-56" x="430" y="550" width="10" height="10" shape-rendering="crispEdges" style="fill:#000000;opacity:255;"></rect><rect id="45-56" x="440" y="550" width="10" height="10" shape-rendering="crispEdges" style="fill:#000000;opacity:255;"></rect><rect id="46-56" x="450" y="550" width="10" height="10" shape-rendering="crispEdges" style="fill:#000000;opacity:255;"></rect><rect id="47-56" x="460" y="550" width="10" height="10" shape-rendering="crispEdges" style="fill:#000000;opacity:255;"></rect><rect id="48-56" x="470" y="550" width="10" height="10" shape-rendering="crispEdges" style="fill:#000000;opacity:255;"></rect><rect id="49-56" x="480" y="550" width="10" height="10" shape-rendering="crispEdges" style="fill:#cb00ff;opacity:255;"></rect><rect id="50-56" x="490" y="550" width="10" height="10" shape-rendering="crispEdges" style="fill:#cb00ff;opacity:255;"></rect><rect id="51-56" x="500" y="550" width="10" height="10" shape-rendering="crispEdges" style="fill:#cb00ff;opacity:255;"></rect><rect id="52-56" x="510" y="550" width="10" height="10" shape-rendering="crispEdges" style="fill:#cb00ff;opacity:255;"></rect><rect id="53-56" x="520" y="550" width="10" height="10" shape-rendering="crispEdges" style="fill:#cb00ff;opacity:255;"></rect><rect id="54-56" x="530" y="550" width="10" height="10" shape-rendering="crispEdges" style="fill:#cb00ff;opacity:255;"></rect><rect id="55-56" x="540" y="550" width="10" height="10" shape-rendering="crispEdges" style="fill:#000000;opacity:255;"></rect><rect id="56-56" x="550" y="550" width="10" height="10" shape-rendering="crispEdges" style="fill:#000000;opacity:255;"></rect><rect id="57-56" x="560" y="550" width="10" height="10" shape-rendering="crispEdges" style="fill:#000000;opacity:255;"></rect><rect id="41-57" x="400" y="560" width="10" height="10" shape-rendering="crispEdges" style="fill:#000000;opacity:255;"></rect><rect id="42-57" x="410" y="560" width="10" height="10" shape-rendering="crispEdges" style="fill:#cb00ff;opacity:255;"></rect><rect id="43-57" x="420" y="560" width="10" height="10" shape-rendering="crispEdges" style="fill:#cb00ff;opacity:255;"></rect><rect id="44-57" x="430" y="560" width="10" height="10" shape-rendering="crispEdges" style="fill:#000000;opacity:255;"></rect><rect id="45-57" x="440" y="560" width="10" height="10" shape-rendering="crispEdges" style="fill:#cb00ff;opacity:255;"></rect><rect id="46-57" x="450" y="560" width="10" height="10" shape-rendering="crispEdges" style="fill:#cb00ff;opacity:255;"></rect><rect id="47-57" x="460" y="560" width="10" height="10" shape-rendering="crispEdges" style="fill:#cb00ff;opacity:255;"></rect><rect id="48-57" x="470" y="560" width="10" height="10" shape-rendering="crispEdges" style="fill:#cb00ff;opacity:255;"></rect><rect id="49-57" x="480" y="560" width="10" height="10" shape-rendering="crispEdges" style="fill:#cb00ff;opacity:255;"></rect><rect id="50-57" x="490" y="560" width="10" height="10" shape-rendering="crispEdges" style="fill:#cb00ff;opacity:255;"></rect><rect id="51-57" x="500" y="560" width="10" height="10" shape-rendering="crispEdges" style="fill:#cb00ff;opacity:255;"></rect><rect id="52-57" x="510" y="560" width="10" height="10" shape-rendering="crispEdges" style="fill:#cb00ff;opacity:255;"></rect><rect id="53-57" x="520" y="560" width="10" height="10" shape-rendering="crispEdges" style="fill:#cb00ff;opacity:255;"></rect><rect id="54-57" x="530" y="560" width="10" height="10" shape-rendering="crispEdges" style="fill:#cb00ff;opacity:255;"></rect><rect id="55-57" x="540" y="560" width="10" height="10" shape-rendering="crispEdges" style="fill:#cb00ff;opacity:255;"></rect><rect id="56-57" x="550" y="560" width="10" height="10" shape-rendering="crispEdges" style="fill:#cb00ff;opacity:255;"></rect><rect id="57-57" x="560" y="560" width="10" height="10" shape-rendering="crispEdges" style="fill:#cb00ff;opacity:255;"></rect><rect id="58-57" x="570" y="560" width="10" height="10" shape-rendering="crispEdges" style="fill:#000000;opacity:255;"></rect><rect id="41-58" x="400" y="570" width="10" height="10" shape-rendering="crispEdges" style="fill:#000000;opacity:255;"></rect><rect id="42-58" x="410" y="570" width="10" height="10" shape-rendering="crispEdges" style="fill:#cb00ff;opacity:255;"></rect><rect id="43-58" x="420" y="570" width="10" height="10" shape-rendering="crispEdges" style="fill:#cb00ff;opacity:255;"></rect><rect id="44-58" x="430" y="570" width="10" height="10" shape-rendering="crispEdges" style="fill:#cb00ff;opacity:255;"></rect><rect id="45-58" x="440" y="570" width="10" height="10" shape-rendering="crispEdges" style="fill:#cb00ff;opacity:255;"></rect><rect id="46-58" x="450" y="570" width="10" height="10" shape-rendering="crispEdges" style="fill:#cb00ff;opacity:255;"></rect><rect id="47-58" x="460" y="570" width="10" height="10" shape-rendering="crispEdges" style="fill:#cb00ff;opacity:255;"></rect><rect id="48-58" x="470" y="570" width="10" height="10" shape-rendering="crispEdges" style="fill:#cb00ff;opacity:255;"></rect><rect id="49-58" x="480" y="570" width="10" height="10" shape-rendering="crispEdges" style="fill:#cb00ff;opacity:255;"></rect><rect id="50-58" x="490" y="570" width="10" height="10" shape-rendering="crispEdges" style="fill:#cb00ff;opacity:255;"></rect><rect id="51-58" x="500" y="570" width="10" height="10" shape-rendering="crispEdges" style="fill:#cb00ff;opacity:255;"></rect><rect id="52-58" x="510" y="570" width="10" height="10" shape-rendering="crispEdges" style="fill:#cb00ff;opacity:255;"></rect><rect id="53-58" x="520" y="570" width="10" height="10" shape-rendering="crispEdges" style="fill:#cb00ff;opacity:255;"></rect><rect id="54-58" x="530" y="570" width="10" height="10" shape-rendering="crispEdges" style="fill:#cb00ff;opacity:255;"></rect><rect id="55-58" x="540" y="570" width="10" height="10" shape-rendering="crispEdges" style="fill:#cb00ff;opacity:255;"></rect><rect id="56-58" x="550" y="570" width="10" height="10" shape-rendering="crispEdges" style="fill:#cb00ff;opacity:255;"></rect><rect id="57-58" x="560" y="570" width="10" height="10" shape-rendering="crispEdges" style="fill:#cb00ff;opacity:255;"></rect><rect id="58-58" x="570" y="570" width="10" height="10" shape-rendering="crispEdges" style="fill:#cb00ff;opacity:255;"></rect><rect id="59-58" x="580" y="570" width="10" height="10" shape-rendering="crispEdges" style="fill:#000000;opacity:255;"></rect><rect id="41-59" x="400" y="580" width="10" height="10" shape-rendering="crispEdges" style="fill:#000000;opacity:255;"></rect><rect id="42-59" x="410" y="580" width="10" height="10" shape-rendering="crispEdges" style="fill:#cb00ff;opacity:255;"></rect><rect id="43-59" x="420" y="580" width="10" height="10" shape-rendering="crispEdges" style="fill:#cb00ff;opacity:255;"></rect><rect id="44-59" x="430" y="580" width="10" height="10" shape-rendering="crispEdges" style="fill:#000000;opacity:255;"></rect><rect id="45-59" x="440" y="580" width="10" height="10" shape-rendering="crispEdges" style="fill:#000000;opacity:255;"></rect><rect id="46-59" x="450" y="580" width="10" height="10" shape-rendering="crispEdges" style="fill:#000000;opacity:255;"></rect><rect id="47-59" x="460" y="580" width="10" height="10" shape-rendering="crispEdges" style="fill:#000000;opacity:255;"></rect><rect id="48-59" x="470" y="580" width="10" height="10" shape-rendering="crispEdges" style="fill:#000000;opacity:255;"></rect><rect id="49-59" x="480" y="580" width="10" height="10" shape-rendering="crispEdges" style="fill:#000000;opacity:255;"></rect><rect id="50-59" x="490" y="580" width="10" height="10" shape-rendering="crispEdges" style="fill:#000000;opacity:255;"></rect><rect id="51-59" x="500" y="580" width="10" height="10" shape-rendering="crispEdges" style="fill:#000000;opacity:255;"></rect><rect id="52-59" x="510" y="580" width="10" height="10" shape-rendering="crispEdges" style="fill:#000000;opacity:255;"></rect><rect id="53-59" x="520" y="580" width="10" height="10" shape-rendering="crispEdges" style="fill:#000000;opacity:255;"></rect><rect id="54-59" x="530" y="580" width="10" height="10" shape-rendering="crispEdges" style="fill:#000000;opacity:255;"></rect><rect id="55-59" x="540" y="580" width="10" height="10" shape-rendering="crispEdges" style="fill:#000000;opacity:255;"></rect><rect id="56-59" x="550" y="580" width="10" height="10" shape-rendering="crispEdges" style="fill:#cb00ff;opacity:255;"></rect><rect id="57-59" x="560" y="580" width="10" height="10" shape-rendering="crispEdges" style="fill:#cb00ff;opacity:255;"></rect><rect id="58-59" x="570" y="580" width="10" height="10" shape-rendering="crispEdges" style="fill:#cb00ff;opacity:255;"></rect><rect id="59-59" x="580" y="580" width="10" height="10" shape-rendering="crispEdges" style="fill:#cb00ff;opacity:255;"></rect><rect id="60-59" x="590" y="580" width="10" height="10" shape-rendering="crispEdges" style="fill:#000000;opacity:255;"></rect><rect id="42-60" x="410" y="590" width="10" height="10" shape-rendering="crispEdges" style="fill:#000000;opacity:255;"></rect><rect id="43-60" x="420" y="590" width="10" height="10" shape-rendering="crispEdges" style="fill:#000000;opacity:255;"></rect><rect id="56-60" x="550" y="590" width="10" height="10" shape-rendering="crispEdges" style="fill:#000000;opacity:255;"></rect><rect id="57-60" x="560" y="590" width="10" height="10" shape-rendering="crispEdges" style="fill:#cb00ff;opacity:255;"></rect><rect id="58-60" x="570" y="590" width="10" height="10" shape-rendering="crispEdges" style="fill:#cb00ff;opacity:255;"></rect><rect id="59-60" x="580" y="590" width="10" height="10" shape-rendering="crispEdges" style="fill:#cb00ff;opacity:255;"></rect><rect id="60-60" x="590" y="590" width="10" height="10" shape-rendering="crispEdges" style="fill:#000000;opacity:255;"></rect><rect id="57-61" x="560" y="600" width="10" height="10" shape-rendering="crispEdges" style="fill:#000000;opacity:255;"></rect><rect id="58-61" x="570" y="600" width="10" height="10" shape-rendering="crispEdges" style="fill:#cb00ff;opacity:255;"></rect><rect id="59-61" x="580" y="600" width="10" height="10" shape-rendering="crispEdges" style="fill:#cb00ff;opacity:255;"></rect><rect id="60-61" x="590" y="600" width="10" height="10" shape-rendering="crispEdges" style="fill:#000000;opacity:255;"></rect><rect id="57-62" x="560" y="610" width="10" height="10" shape-rendering="crispEdges" style="fill:#000000;opacity:255;"></rect><rect id="58-62" x="570" y="610" width="10" height="10" shape-rendering="crispEdges" style="fill:#cb00ff;opacity:255;"></rect><rect id="59-62" x="580" y="610" width="10" height="10" shape-rendering="crispEdges" style="fill:#cb00ff;opacity:255;"></rect><rect id="60-62" x="590" y="610" width="10" height="10" shape-rendering="crispEdges" style="fill:#af00db;opacity:255;"></rect><rect id="61-62" x="600" y="610" width="10" height="10" shape-rendering="crispEdges" style="fill:#000000;opacity:255;"></rect><rect id="56-63" x="550" y="620" width="10" height="10" shape-rendering="crispEdges" style="fill:#000000;opacity:255;"></rect><rect id="57-63" x="560" y="620" width="10" height="10" shape-rendering="crispEdges" style="fill:#cb00ff;opacity:255;"></rect><rect id="58-63" x="570" y="620" width="10" height="10" shape-rendering="crispEdges" style="fill:#cb00ff;opacity:255;"></rect><rect id="59-63" x="580" y="620" width="10" height="10" shape-rendering="crispEdges" style="fill:#cb00ff;opacity:255;"></rect><rect id="60-63" x="590" y="620" width="10" height="10" shape-rendering="crispEdges" style="fill:#af00db;opacity:255;"></rect><rect id="61-63" x="600" y="620" width="10" height="10" shape-rendering="crispEdges" style="fill:#000000;opacity:255;"></rect><rect id="54-64" x="530" y="630" width="10" height="10" shape-rendering="crispEdges" style="fill:#000000;opacity:255;"></rect><rect id="55-64" x="540" y="630" width="10" height="10" shape-rendering="crispEdges" style="fill:#000000;opacity:255;"></rect><rect id="56-64" x="550" y="630" width="10" height="10" shape-rendering="crispEdges" style="fill:#cb00ff;opacity:255;"></rect><rect id="57-64" x="560" y="630" width="10" height="10" shape-rendering="crispEdges" style="fill:#cb00ff;opacity:255;"></rect><rect id="58-64" x="570" y="630" width="10" height="10" shape-rendering="crispEdges" style="fill:#cb00ff;opacity:255;"></rect><rect id="59-64" x="580" y="630" width="10" height="10" shape-rendering="crispEdges" style="fill:#cb00ff;opacity:255;"></rect><rect id="60-64" x="590" y="630" width="10" height="10" shape-rendering="crispEdges" style="fill:#af00db;opacity:255;"></rect><rect id="61-64" x="600" y="630" width="10" height="10" shape-rendering="crispEdges" style="fill:#000000;opacity:255;"></rect><rect id="45-65" x="440" y="640" width="10" height="10" shape-rendering="crispEdges" style="fill:#000000;opacity:255;"></rect><rect id="46-65" x="450" y="640" width="10" height="10" shape-rendering="crispEdges" style="fill:#000000;opacity:255;"></rect><rect id="47-65" x="460" y="640" width="10" height="10" shape-rendering="crispEdges" style="fill:#000000;opacity:255;"></rect><rect id="48-65" x="470" y="640" width="10" height="10" shape-rendering="crispEdges" style="fill:#000000;opacity:255;"></rect><rect id="49-65" x="480" y="640" width="10" height="10" shape-rendering="crispEdges" style="fill:#000000;opacity:255;"></rect><rect id="50-65" x="490" y="640" width="10" height="10" shape-rendering="crispEdges" style="fill:#000000;opacity:255;"></rect><rect id="51-65" x="500" y="640" width="10" height="10" shape-rendering="crispEdges" style="fill:#000000;opacity:255;"></rect><rect id="52-65" x="510" y="640" width="10" height="10" shape-rendering="crispEdges" style="fill:#000000;opacity:255;"></rect><rect id="53-65" x="520" y="640" width="10" height="10" shape-rendering="crispEdges" style="fill:#000000;opacity:255;"></rect><rect id="54-65" x="530" y="640" width="10" height="10" shape-rendering="crispEdges" style="fill:#cb00ff;opacity:255;"></rect><rect id="55-65" x="540" y="640" width="10" height="10" shape-rendering="crispEdges" style="fill:#cb00ff;opacity:255;"></rect><rect id="56-65" x="550" y="640" width="10" height="10" shape-rendering="crispEdges" style="fill:#cb00ff;opacity:255;"></rect><rect id="57-65" x="560" y="640" width="10" height="10" shape-rendering="crispEdges" style="fill:#cb00ff;opacity:255;"></rect><rect id="58-65" x="570" y="640" width="10" height="10" shape-rendering="crispEdges" style="fill:#cb00ff;opacity:255;"></rect><rect id="59-65" x="580" y="640" width="10" height="10" shape-rendering="crispEdges" style="fill:#af00db;opacity:255;"></rect><rect id="60-65" x="590" y="640" width="10" height="10" shape-rendering="crispEdges" style="fill:#000000;opacity:255;"></rect><rect id="43-66" x="420" y="650" width="10" height="10" shape-rendering="crispEdges" style="fill:#000000;opacity:255;"></rect><rect id="44-66" x="430" y="650" width="10" height="10" shape-rendering="crispEdges" style="fill:#000000;opacity:255;"></rect><rect id="45-66" x="440" y="650" width="10" height="10" shape-rendering="crispEdges" style="fill:#ffffff;opacity:255;"></rect><rect id="46-66" x="450" y="650" width="10" height="10" shape-rendering="crispEdges" style="fill:#d842ff;opacity:255;"></rect><rect id="47-66" x="460" y="650" width="10" height="10" shape-rendering="crispEdges" style="fill:#d842ff;opacity:255;"></rect><rect id="48-66" x="470" y="650" width="10" height="10" shape-rendering="crispEdges" style="fill:#d842ff;opacity:255;"></rect><rect id="49-66" x="480" y="650" width="10" height="10" shape-rendering="crispEdges" style="fill:#cb00ff;opacity:255;"></rect><rect id="50-66" x="490" y="650" width="10" height="10" shape-rendering="crispEdges" style="fill:#cb00ff;opacity:255;"></rect><rect id="51-66" x="500" y="650" width="10" height="10" shape-rendering="crispEdges" style="fill:#cb00ff;opacity:255;"></rect><rect id="52-66" x="510" y="650" width="10" height="10" shape-rendering="crispEdges" style="fill:#cb00ff;opacity:255;"></rect><rect id="53-66" x="520" y="650" width="10" height="10" shape-rendering="crispEdges" style="fill:#cb00ff;opacity:255;"></rect><rect id="54-66" x="530" y="650" width="10" height="10" shape-rendering="crispEdges" style="fill:#cb00ff;opacity:255;"></rect><rect id="55-66" x="540" y="650" width="10" height="10" shape-rendering="crispEdges" style="fill:#cb00ff;opacity:255;"></rect><rect id="56-66" x="550" y="650" width="10" height="10" shape-rendering="crispEdges" style="fill:#cb00ff;opacity:255;"></rect><rect id="57-66" x="560" y="650" width="10" height="10" shape-rendering="crispEdges" style="fill:#af00db;opacity:255;"></rect><rect id="58-66" x="570" y="650" width="10" height="10" shape-rendering="crispEdges" style="fill:#af00db;opacity:255;"></rect><rect id="59-66" x="580" y="650" width="10" height="10" shape-rendering="crispEdges" style="fill:#000000;opacity:255;"></rect><rect id="60-66" x="590" y="650" width="10" height="10" shape-rendering="crispEdges" style="fill:#000000;opacity:255;"></rect><rect id="43-67" x="420" y="660" width="10" height="10" shape-rendering="crispEdges" style="fill:#000000;opacity:255;"></rect><rect id="44-67" x="430" y="660" width="10" height="10" shape-rendering="crispEdges" style="fill:#ffffff;opacity:255;"></rect><rect id="45-67" x="440" y="660" width="10" height="10" shape-rendering="crispEdges" style="fill:#d842ff;opacity:255;"></rect><rect id="46-67" x="450" y="660" width="10" height="10" shape-rendering="crispEdges" style="fill:#d842ff;opacity:255;"></rect><rect id="47-67" x="460" y="660" width="10" height="10" shape-rendering="crispEdges" style="fill:#cb00ff;opacity:255;"></rect><rect id="48-67" x="470" y="660" width="10" height="10" shape-rendering="crispEdges" style="fill:#cb00ff;opacity:255;"></rect><rect id="49-67" x="480" y="660" width="10" height="10" shape-rendering="crispEdges" style="fill:#cb00ff;opacity:255;"></rect><rect id="50-67" x="490" y="660" width="10" height="10" shape-rendering="crispEdges" style="fill:#cb00ff;opacity:255;"></rect><rect id="51-67" x="500" y="660" width="10" height="10" shape-rendering="crispEdges" style="fill:#cb00ff;opacity:255;"></rect><rect id="52-67" x="510" y="660" width="10" height="10" shape-rendering="crispEdges" style="fill:#cb00ff;opacity:255;"></rect><rect id="53-67" x="520" y="660" width="10" height="10" shape-rendering="crispEdges" style="fill:#cb00ff;opacity:255;"></rect><rect id="54-67" x="530" y="660" width="10" height="10" shape-rendering="crispEdges" style="fill:#af00db;opacity:255;"></rect><rect id="55-67" x="540" y="660" width="10" height="10" shape-rendering="crispEdges" style="fill:#af00db;opacity:255;"></rect><rect id="56-67" x="550" y="660" width="10" height="10" shape-rendering="crispEdges" style="fill:#af00db;opacity:255;"></rect><rect id="57-67" x="560" y="660" width="10" height="10" shape-rendering="crispEdges" style="fill:#000000;opacity:255;"></rect><rect id="58-67" x="570" y="660" width="10" height="10" shape-rendering="crispEdges" style="fill:#000000;opacity:255;"></rect><rect id="43-68" x="420" y="670" width="10" height="10" shape-rendering="crispEdges" style="fill:#000000;opacity:255;"></rect><rect id="44-68" x="430" y="670" width="10" height="10" shape-rendering="crispEdges" style="fill:#d842ff;opacity:255;"></rect><rect id="45-68" x="440" y="670" width="10" height="10" shape-rendering="crispEdges" style="fill:#d842ff;opacity:255;"></rect><rect id="46-68" x="450" y="670" width="10" height="10" shape-rendering="crispEdges" style="fill:#cb00ff;opacity:255;"></rect><rect id="47-68" x="460" y="670" width="10" height="10" shape-rendering="crispEdges" style="fill:#cb00ff;opacity:255;"></rect><rect id="48-68" x="470" y="670" width="10" height="10" shape-rendering="crispEdges" style="fill:#cb00ff;opacity:255;"></rect><rect id="49-68" x="480" y="670" width="10" height="10" shape-rendering="crispEdges" style="fill:#cb00ff;opacity:255;"></rect><rect id="50-68" x="490" y="670" width="10" height="10" shape-rendering="crispEdges" style="fill:#cb00ff;opacity:255;"></rect><rect id="51-68" x="500" y="670" width="10" height="10" shape-rendering="crispEdges" style="fill:#cb00ff;opacity:255;"></rect><rect id="52-68" x="510" y="670" width="10" height="10" shape-rendering="crispEdges" style="fill:#cb00ff;opacity:255;"></rect><rect id="53-68" x="520" y="670" width="10" height="10" shape-rendering="crispEdges" style="fill:#af00db;opacity:255;"></rect><rect id="54-68" x="530" y="670" width="10" height="10" shape-rendering="crispEdges" style="fill:#000000;opacity:255;"></rect><rect id="55-68" x="540" y="670" width="10" height="10" shape-rendering="crispEdges" style="fill:#000000;opacity:255;"></rect><rect id="56-68" x="550" y="670" width="10" height="10" shape-rendering="crispEdges" style="fill:#000000;opacity:255;"></rect><rect id="44-69" x="430" y="680" width="10" height="10" shape-rendering="crispEdges" style="fill:#000000;opacity:255;"></rect><rect id="45-69" x="440" y="680" width="10" height="10" shape-rendering="crispEdges" style="fill:#000000;opacity:255;"></rect><rect id="46-69" x="450" y="680" width="10" height="10" shape-rendering="crispEdges" style="fill:#000000;opacity:255;"></rect><rect id="47-69" x="460" y="680" width="10" height="10" shape-rendering="crispEdges" style="fill:#000000;opacity:255;"></rect><rect id="48-69" x="470" y="680" width="10" height="10" shape-rendering="crispEdges" style="fill:#000000;opacity:255;"></rect><rect id="49-69" x="480" y="680" width="10" height="10" shape-rendering="crispEdges" style="fill:#000000;opacity:255;"></rect><rect id="50-69" x="490" y="680" width="10" height="10" shape-rendering="crispEdges" style="fill:#000000;opacity:255;"></rect><rect id="51-69" x="500" y="680" width="10" height="10" shape-rendering="crispEdges" style="fill:#000000;opacity:255;"></rect><rect id="52-69" x="510" y="680" width="10" height="10" shape-rendering="crispEdges" style="fill:#000000;opacity:255;"></rect><rect id="53-69" x="520" y="680" width="10" height="10" shape-rendering="crispEdges" style="fill:#000000;opacity:255;"></rect></svg>