<svg xmlns="http://www.w3.org/2000/svg" id="img_6139" width="960" height="960" viewBox="0 0 960 960" preserveAspectRatio="xMidYMid meet" rendering="crispEdges"><rect id="1-1" x="0" y="0" width="60" height="60" shape-rendering="crispEdges" style="fill:#000000;opacity:38;"></rect><rect id="3-1" x="120" y="0" width="60" height="60" shape-rendering="crispEdges" style="fill:#000000;opacity:38;"></rect><rect id="5-1" x="240" y="0" width="60" height="60" shape-rendering="crispEdges" style="fill:#000000;opacity:38;"></rect><rect id="7-1" x="360" y="0" width="60" height="60" shape-rendering="crispEdges" style="fill:#000000;opacity:38;"></rect><rect id="9-1" x="480" y="0" width="60" height="60" shape-rendering="crispEdges" style="fill:#000000;opacity:38;"></rect><rect id="11-1" x="600" y="0" width="60" height="60" shape-rendering="crispEdges" style="fill:#000000;opacity:38;"></rect><rect id="13-1" x="720" y="0" width="60" height="60" shape-rendering="crispEdges" style="fill:#000000;opacity:38;"></rect><rect id="15-1" x="840" y="0" width="60" height="60" shape-rendering="crispEdges" style="fill:#000000;opacity:38;"></rect><rect id="2-2" x="60" y="60" width="60" height="60" shape-rendering="crispEdges" style="fill:#000000;opacity:38;"></rect><rect id="4-2" x="180" y="60" width="60" height="60" shape-rendering="crispEdges" style="fill:#000000;opacity:38;"></rect><rect id="6-2" x="300" y="60" width="60" height="60" shape-rendering="crispEdges" style="fill:#000000;opacity:38;"></rect><rect id="8-2" x="420" y="60" width="60" height="60" shape-rendering="crispEdges" style="fill:#000000;opacity:38;"></rect><rect id="10-2" x="540" y="60" width="60" height="60" shape-rendering="crispEdges" style="fill:#000000;opacity:38;"></rect><rect id="12-2" x="660" y="60" width="60" height="60" shape-rendering="crispEdges" style="fill:#000000;opacity:38;"></rect><rect id="14-2" x="780" y="60" width="60" height="60" shape-rendering="crispEdges" style="fill:#000000;opacity:38;"></rect><rect id="16-2" x="900" y="60" width="60" height="60" shape-rendering="crispEdges" style="fill:#241e00;opacity:43;"></rect><rect id="1-3" x="0" y="120" width="60" height="60" shape-rendering="crispEdges" style="fill:#94ffff;opacity:255;"></rect><rect id="2-3" x="60" y="120" width="60" height="60" shape-rendering="crispEdges" style="fill:#94ffff;opacity:255;"></rect><rect id="3-3" x="120" y="120" width="60" height="60" shape-rendering="crispEdges" style="fill:#94ffff;opacity:255;"></rect><rect id="5-3" x="240" y="120" width="60" height="60" shape-rendering="crispEdges" style="fill:#000000;opacity:38;"></rect><rect id="7-3" x="360" y="120" width="60" height="60" shape-rendering="crispEdges" style="fill:#000000;opacity:38;"></rect><rect id="9-3" x="480" y="120" width="60" height="60" shape-rendering="crispEdges" style="fill:#000000;opacity:38;"></rect><rect id="11-3" x="600" y="120" width="60" height="60" shape-rendering="crispEdges" style="fill:#000000;opacity:38;"></rect><rect id="13-3" x="720" y="120" width="60" height="60" shape-rendering="crispEdges" style="fill:#000000;opacity:38;"></rect><rect id="14-3" x="780" y="120" width="60" height="60" shape-rendering="crispEdges" style="fill:#94ffff;opacity:255;"></rect><rect id="15-3" x="840" y="120" width="60" height="60" shape-rendering="crispEdges" style="fill:#94ffff;opacity:255;"></rect><rect id="16-3" x="900" y="120" width="60" height="60" shape-rendering="crispEdges" style="fill:#94ffff;opacity:255;"></rect><rect id="2-4" x="60" y="180" width="60" height="60" shape-rendering="crispEdges" style="fill:#94ffff;opacity:255;"></rect><rect id="3-4" x="120" y="180" width="60" height="60" shape-rendering="crispEdges" style="fill:#94ffff;opacity:255;"></rect><rect id="4-4" x="180" y="180" width="60" height="60" shape-rendering="crispEdges" style="fill:#94ffff;opacity:255;"></rect><rect id="5-4" x="240" y="180" width="60" height="60" shape-rendering="crispEdges" style="fill:#94ffff;opacity:255;"></rect><rect id="6-4" x="300" y="180" width="60" height="60" shape-rendering="crispEdges" style="fill:#94ffff;opacity:255;"></rect><rect id="7-4" x="360" y="180" width="60" height="60" shape-rendering="crispEdges" style="fill:#94ffff;opacity:255;"></rect><rect id="8-4" x="420" y="180" width="60" height="60" shape-rendering="crispEdges" style="fill:#94ffff;opacity:255;"></rect><rect id="9-4" x="480" y="180" width="60" height="60" shape-rendering="crispEdges" style="fill:#94ffff;opacity:255;"></rect><rect id="10-4" x="540" y="180" width="60" height="60" shape-rendering="crispEdges" style="fill:#94ffff;opacity:255;"></rect><rect id="11-4" x="600" y="180" width="60" height="60" shape-rendering="crispEdges" style="fill:#94ffff;opacity:255;"></rect><rect id="12-4" x="660" y="180" width="60" height="60" shape-rendering="crispEdges" style="fill:#94ffff;opacity:255;"></rect><rect id="13-4" x="720" y="180" width="60" height="60" shape-rendering="crispEdges" style="fill:#94ffff;opacity:255;"></rect><rect id="14-4" x="780" y="180" width="60" height="60" shape-rendering="crispEdges" style="fill:#94ffff;opacity:255;"></rect><rect id="15-4" x="840" y="180" width="60" height="60" shape-rendering="crispEdges" style="fill:#94ffff;opacity:255;"></rect><rect id="16-4" x="900" y="180" width="60" height="60" shape-rendering="crispEdges" style="fill:#0c1313;opacity:41;"></rect><rect id="1-5" x="0" y="240" width="60" height="60" shape-rendering="crispEdges" style="fill:#000000;opacity:38;"></rect><rect id="2-5" x="60" y="240" width="60" height="60" shape-rendering="crispEdges" style="fill:#94ffff;opacity:255;"></rect><rect id="3-5" x="120" y="240" width="60" height="60" shape-rendering="crispEdges" style="fill:#94ffff;opacity:255;"></rect><rect id="4-5" x="180" y="240" width="60" height="60" shape-rendering="crispEdges" style="fill:#94ffff;opacity:255;"></rect><rect id="5-5" x="240" y="240" width="60" height="60" shape-rendering="crispEdges" style="fill:#94ffff;opacity:255;"></rect><rect id="6-5" x="300" y="240" width="60" height="60" shape-rendering="crispEdges" style="fill:#94ffff;opacity:255;"></rect><rect id="7-5" x="360" y="240" width="60" height="60" shape-rendering="crispEdges" style="fill:#94ffff;opacity:255;"></rect><rect id="8-5" x="420" y="240" width="60" height="60" shape-rendering="crispEdges" style="fill:#94ffff;opacity:255;"></rect><rect id="9-5" x="480" y="240" width="60" height="60" shape-rendering="crispEdges" style="fill:#94ffff;opacity:255;"></rect><rect id="10-5" x="540" y="240" width="60" height="60" shape-rendering="crispEdges" style="fill:#94ffff;opacity:255;"></rect><rect id="11-5" x="600" y="240" width="60" height="60" shape-rendering="crispEdges" style="fill:#94ffff;opacity:255;"></rect><rect id="12-5" x="660" y="240" width="60" height="60" shape-rendering="crispEdges" style="fill:#94ffff;opacity:255;"></rect><rect id="13-5" x="720" y="240" width="60" height="60" shape-rendering="crispEdges" style="fill:#94ffff;opacity:255;"></rect><rect id="14-5" x="780" y="240" width="60" height="60" shape-rendering="crispEdges" style="fill:#94ffff;opacity:255;"></rect><rect id="15-5" x="840" y="240" width="60" height="60" shape-rendering="crispEdges" style="fill:#94ffff;opacity:255;"></rect><rect id="2-6" x="60" y="300" width="60" height="60" shape-rendering="crispEdges" style="fill:#000000;opacity:38;"></rect><rect id="3-6" x="120" y="300" width="60" height="60" shape-rendering="crispEdges" style="fill:#94ffff;opacity:255;"></rect><rect id="4-6" x="180" y="300" width="60" height="60" shape-rendering="crispEdges" style="fill:#94ffff;opacity:255;"></rect><rect id="5-6" x="240" y="300" width="60" height="60" shape-rendering="crispEdges" style="fill:#94ffff;opacity:255;"></rect><rect id="6-6" x="300" y="300" width="60" height="60" shape-rendering="crispEdges" style="fill:#94ffff;opacity:255;"></rect><rect id="7-6" x="360" y="300" width="60" height="60" shape-rendering="crispEdges" style="fill:#94ffff;opacity:255;"></rect><rect id="8-6" x="420" y="300" width="60" height="60" shape-rendering="crispEdges" style="fill:#94ffff;opacity:255;"></rect><rect id="9-6" x="480" y="300" width="60" height="60" shape-rendering="crispEdges" style="fill:#94ffff;opacity:255;"></rect><rect id="10-6" x="540" y="300" width="60" height="60" shape-rendering="crispEdges" style="fill:#94ffff;opacity:255;"></rect><rect id="11-6" x="600" y="300" width="60" height="60" shape-rendering="crispEdges" style="fill:#94ffff;opacity:255;"></rect><rect id="12-6" x="660" y="300" width="60" height="60" shape-rendering="crispEdges" style="fill:#94ffff;opacity:255;"></rect><rect id="13-6" x="720" y="300" width="60" height="60" shape-rendering="crispEdges" style="fill:#94ffff;opacity:255;"></rect><rect id="14-6" x="780" y="300" width="60" height="60" shape-rendering="crispEdges" style="fill:#94ffff;opacity:255;"></rect><rect id="16-6" x="900" y="300" width="60" height="60" shape-rendering="crispEdges" style="fill:#000000;opacity:38;"></rect><rect id="1-7" x="0" y="360" width="60" height="60" shape-rendering="crispEdges" style="fill:#000000;opacity:38;"></rect><rect id="3-7" x="120" y="360" width="60" height="60" shape-rendering="crispEdges" style="fill:#000000;opacity:38;"></rect><rect id="5-7" x="240" y="360" width="60" height="60" shape-rendering="crispEdges" style="fill:#94ffff;opacity:255;"></rect><rect id="6-7" x="300" y="360" width="60" height="60" shape-rendering="crispEdges" style="fill:#94ffff;opacity:255;"></rect><rect id="7-7" x="360" y="360" width="60" height="60" shape-rendering="crispEdges" style="fill:#94ffff;opacity:255;"></rect><rect id="8-7" x="420" y="360" width="60" height="60" shape-rendering="crispEdges" style="fill:#94ffff;opacity:255;"></rect><rect id="9-7" x="480" y="360" width="60" height="60" shape-rendering="crispEdges" style="fill:#94ffff;opacity:255;"></rect><rect id="10-7" x="540" y="360" width="60" height="60" shape-rendering="crispEdges" style="fill:#94ffff;opacity:255;"></rect><rect id="11-7" x="600" y="360" width="60" height="60" shape-rendering="crispEdges" style="fill:#94ffff;opacity:255;"></rect><rect id="12-7" x="660" y="360" width="60" height="60" shape-rendering="crispEdges" style="fill:#94ffff;opacity:255;"></rect><rect id="13-7" x="720" y="360" width="60" height="60" shape-rendering="crispEdges" style="fill:#000000;opacity:38;"></rect><rect id="15-7" x="840" y="360" width="60" height="60" shape-rendering="crispEdges" style="fill:#000000;opacity:38;"></rect><rect id="2-8" x="60" y="420" width="60" height="60" shape-rendering="crispEdges" style="fill:#000000;opacity:38;"></rect><rect id="4-8" x="180" y="420" width="60" height="60" shape-rendering="crispEdges" style="fill:#000000;opacity:38;"></rect><rect id="5-8" x="240" y="420" width="60" height="60" shape-rendering="crispEdges" style="fill:#72c4ff;opacity:255;"></rect><rect id="6-8" x="300" y="420" width="60" height="60" shape-rendering="crispEdges" style="fill:#6ab7ff;opacity:255;"></rect><rect id="7-8" x="360" y="420" width="60" height="60" shape-rendering="crispEdges" style="fill:#62a8ff;opacity:255;"></rect><rect id="8-8" x="420" y="420" width="60" height="60" shape-rendering="crispEdges" style="fill:#62a8ff;opacity:255;"></rect><rect id="9-8" x="480" y="420" width="60" height="60" shape-rendering="crispEdges" style="fill:#62a9ff;opacity:255;"></rect><rect id="10-8" x="540" y="420" width="60" height="60" shape-rendering="crispEdges" style="fill:#62a8ff;opacity:255;"></rect><rect id="11-8" x="600" y="420" width="60" height="60" shape-rendering="crispEdges" style="fill:#6dbcff;opacity:255;"></rect><rect id="12-8" x="660" y="420" width="60" height="60" shape-rendering="crispEdges" style="fill:#6dbcff;opacity:255;"></rect><rect id="14-8" x="780" y="420" width="60" height="60" shape-rendering="crispEdges" style="fill:#000000;opacity:38;"></rect><rect id="16-8" x="900" y="420" width="60" height="60" shape-rendering="crispEdges" style="fill:#000044;opacity:49;"></rect><rect id="1-9" x="0" y="480" width="60" height="60" shape-rendering="crispEdges" style="fill:#000000;opacity:38;"></rect><rect id="3-9" x="120" y="480" width="60" height="60" shape-rendering="crispEdges" style="fill:#60a6ff;opacity:255;"></rect><rect id="4-9" x="180" y="480" width="60" height="60" shape-rendering="crispEdges" style="fill:#61a7ff;opacity:255;"></rect><rect id="5-9" x="240" y="480" width="60" height="60" shape-rendering="crispEdges" style="fill:#5fa4ff;opacity:255;"></rect><rect id="6-9" x="300" y="480" width="60" height="60" shape-rendering="crispEdges" style="fill:#5fa4ff;opacity:255;"></rect><rect id="7-9" x="360" y="480" width="60" height="60" shape-rendering="crispEdges" style="fill:#60a6ff;opacity:255;"></rect><rect id="8-9" x="420" y="480" width="60" height="60" shape-rendering="crispEdges" style="fill:#60a5ff;opacity:255;"></rect><rect id="9-9" x="480" y="480" width="60" height="60" shape-rendering="crispEdges" style="fill:#69b5ff;opacity:255;"></rect><rect id="10-9" x="540" y="480" width="60" height="60" shape-rendering="crispEdges" style="fill:#60a6ff;opacity:255;"></rect><rect id="11-9" x="600" y="480" width="60" height="60" shape-rendering="crispEdges" style="fill:#60a6ff;opacity:255;"></rect><rect id="12-9" x="660" y="480" width="60" height="60" shape-rendering="crispEdges" style="fill:#60a6ff;opacity:255;"></rect><rect id="13-9" x="720" y="480" width="60" height="60" shape-rendering="crispEdges" style="fill:#60a5ff;opacity:255;"></rect><rect id="14-9" x="780" y="480" width="60" height="60" shape-rendering="crispEdges" style="fill:#60a5ff;opacity:255;"></rect><rect id="15-9" x="840" y="480" width="60" height="60" shape-rendering="crispEdges" style="fill:#000000;opacity:38;"></rect><rect id="2-10" x="60" y="540" width="60" height="60" shape-rendering="crispEdges" style="fill:#5fa3ff;opacity:255;"></rect><rect id="3-10" x="120" y="540" width="60" height="60" shape-rendering="crispEdges" style="fill:#5fa3ff;opacity:255;"></rect><rect id="4-10" x="180" y="540" width="60" height="60" shape-rendering="crispEdges" style="fill:#5fa3ff;opacity:255;"></rect><rect id="5-10" x="240" y="540" width="60" height="60" shape-rendering="crispEdges" style="fill:#5fa4ff;opacity:255;"></rect><rect id="6-10" x="300" y="540" width="60" height="60" shape-rendering="crispEdges" style="fill:#61a7ff;opacity:255;"></rect><rect id="7-10" x="360" y="540" width="60" height="60" shape-rendering="crispEdges" style="fill:#5fa3ff;opacity:255;"></rect><rect id="8-10" x="420" y="540" width="60" height="60" shape-rendering="crispEdges" style="fill:#5fa3ff;opacity:255;"></rect><rect id="9-10" x="480" y="540" width="60" height="60" shape-rendering="crispEdges" style="fill:#5fa3ff;opacity:255;"></rect><rect id="10-10" x="540" y="540" width="60" height="60" shape-rendering="crispEdges" style="fill:#5fa3ff;opacity:255;"></rect><rect id="11-10" x="600" y="540" width="60" height="60" shape-rendering="crispEdges" style="fill:#5fa4ff;opacity:255;"></rect><rect id="12-10" x="660" y="540" width="60" height="60" shape-rendering="crispEdges" style="fill:#5fa4ff;opacity:255;"></rect><rect id="13-10" x="720" y="540" width="60" height="60" shape-rendering="crispEdges" style="fill:#61a7ff;opacity:255;"></rect><rect id="14-10" x="780" y="540" width="60" height="60" shape-rendering="crispEdges" style="fill:#62a8ff;opacity:255;"></rect><rect id="15-10" x="840" y="540" width="60" height="60" shape-rendering="crispEdges" style="fill:#64acff;opacity:255;"></rect><rect id="16-10" x="900" y="540" width="60" height="60" shape-rendering="crispEdges" style="fill:#000000;opacity:38;"></rect><rect id="1-11" x="0" y="600" width="60" height="60" shape-rendering="crispEdges" style="fill:#000000;opacity:38;"></rect><rect id="2-11" x="60" y="600" width="60" height="60" shape-rendering="crispEdges" style="fill:#5fa3ff;opacity:255;"></rect><rect id="3-11" x="120" y="600" width="60" height="60" shape-rendering="crispEdges" style="fill:#5fa3ff;opacity:255;"></rect><rect id="4-11" x="180" y="600" width="60" height="60" shape-rendering="crispEdges" style="fill:#5fa3ff;opacity:255;"></rect><rect id="5-11" x="240" y="600" width="60" height="60" shape-rendering="crispEdges" style="fill:#5fa3ff;opacity:255;"></rect><rect id="6-11" x="300" y="600" width="60" height="60" shape-rendering="crispEdges" style="fill:#5fa3ff;opacity:255;"></rect><rect id="7-11" x="360" y="600" width="60" height="60" shape-rendering="crispEdges" style="fill:#5fa3ff;opacity:255;"></rect><rect id="8-11" x="420" y="600" width="60" height="60" shape-rendering="crispEdges" style="fill:#5fa3ff;opacity:255;"></rect><rect id="9-11" x="480" y="600" width="60" height="60" shape-rendering="crispEdges" style="fill:#5fa3ff;opacity:255;"></rect><rect id="10-11" x="540" y="600" width="60" height="60" shape-rendering="crispEdges" style="fill:#5fa3ff;opacity:255;"></rect><rect id="11-11" x="600" y="600" width="60" height="60" shape-rendering="crispEdges" style="fill:#5fa3ff;opacity:255;"></rect><rect id="12-11" x="660" y="600" width="60" height="60" shape-rendering="crispEdges" style="fill:#5fa3ff;opacity:255;"></rect><rect id="13-11" x="720" y="600" width="60" height="60" shape-rendering="crispEdges" style="fill:#5fa3ff;opacity:255;"></rect><rect id="14-11" x="780" y="600" width="60" height="60" shape-rendering="crispEdges" style="fill:#5fa3ff;opacity:255;"></rect><rect id="15-11" x="840" y="600" width="60" height="60" shape-rendering="crispEdges" style="fill:#5fa3ff;opacity:255;"></rect><rect id="1-12" x="0" y="660" width="60" height="60" shape-rendering="crispEdges" style="fill:#5fa3ff;opacity:255;"></rect><rect id="2-12" x="60" y="660" width="60" height="60" shape-rendering="crispEdges" style="fill:#5fa3ff;opacity:255;"></rect><rect id="3-12" x="120" y="660" width="60" height="60" shape-rendering="crispEdges" style="fill:#5fa3ff;opacity:255;"></rect><rect id="4-12" x="180" y="660" width="60" height="60" shape-rendering="crispEdges" style="fill:#000000;opacity:38;"></rect><rect id="6-12" x="300" y="660" width="60" height="60" shape-rendering="crispEdges" style="fill:#000000;opacity:38;"></rect><rect id="8-12" x="420" y="660" width="60" height="60" shape-rendering="crispEdges" style="fill:#000000;opacity:38;"></rect><rect id="10-12" x="540" y="660" width="60" height="60" shape-rendering="crispEdges" style="fill:#000000;opacity:38;"></rect><rect id="12-12" x="660" y="660" width="60" height="60" shape-rendering="crispEdges" style="fill:#000000;opacity:38;"></rect><rect id="14-12" x="780" y="660" width="60" height="60" shape-rendering="crispEdges" style="fill:#5fa3ff;opacity:255;"></rect><rect id="15-12" x="840" y="660" width="60" height="60" shape-rendering="crispEdges" style="fill:#5fa3ff;opacity:255;"></rect><rect id="16-12" x="900" y="660" width="60" height="60" shape-rendering="crispEdges" style="fill:#5fa3ff;opacity:255;"></rect><rect id="1-13" x="0" y="720" width="60" height="60" shape-rendering="crispEdges" style="fill:#000000;opacity:38;"></rect><rect id="3-13" x="120" y="720" width="60" height="60" shape-rendering="crispEdges" style="fill:#000000;opacity:38;"></rect><rect id="5-13" x="240" y="720" width="60" height="60" shape-rendering="crispEdges" style="fill:#000000;opacity:38;"></rect><rect id="7-13" x="360" y="720" width="60" height="60" shape-rendering="crispEdges" style="fill:#000000;opacity:38;"></rect><rect id="9-13" x="480" y="720" width="60" height="60" shape-rendering="crispEdges" style="fill:#000000;opacity:38;"></rect><rect id="11-13" x="600" y="720" width="60" height="60" shape-rendering="crispEdges" style="fill:#000000;opacity:38;"></rect><rect id="13-13" x="720" y="720" width="60" height="60" shape-rendering="crispEdges" style="fill:#000000;opacity:38;"></rect><rect id="15-13" x="840" y="720" width="60" height="60" shape-rendering="crispEdges" style="fill:#000000;opacity:38;"></rect><rect id="2-14" x="60" y="780" width="60" height="60" shape-rendering="crispEdges" style="fill:#000000;opacity:38;"></rect><rect id="4-14" x="180" y="780" width="60" height="60" shape-rendering="crispEdges" style="fill:#000000;opacity:38;"></rect><rect id="6-14" x="300" y="780" width="60" height="60" shape-rendering="crispEdges" style="fill:#000000;opacity:38;"></rect><rect id="8-14" x="420" y="780" width="60" height="60" shape-rendering="crispEdges" style="fill:#000000;opacity:38;"></rect><rect id="10-14" x="540" y="780" width="60" height="60" shape-rendering="crispEdges" style="fill:#000000;opacity:38;"></rect><rect id="12-14" x="660" y="780" width="60" height="60" shape-rendering="crispEdges" style="fill:#000000;opacity:38;"></rect><rect id="14-14" x="780" y="780" width="60" height="60" shape-rendering="crispEdges" style="fill:#000000;opacity:38;"></rect><rect id="16-14" x="900" y="780" width="60" height="60" shape-rendering="crispEdges" style="fill:#000000;opacity:38;"></rect><rect id="1-15" x="0" y="840" width="60" height="60" shape-rendering="crispEdges" style="fill:#000000;opacity:38;"></rect><rect id="3-15" x="120" y="840" width="60" height="60" shape-rendering="crispEdges" style="fill:#000000;opacity:38;"></rect><rect id="5-15" x="240" y="840" width="60" height="60" shape-rendering="crispEdges" style="fill:#000000;opacity:38;"></rect><rect id="7-15" x="360" y="840" width="60" height="60" shape-rendering="crispEdges" style="fill:#000000;opacity:38;"></rect><rect id="9-15" x="480" y="840" width="60" height="60" shape-rendering="crispEdges" style="fill:#000000;opacity:38;"></rect><rect id="11-15" x="600" y="840" width="60" height="60" shape-rendering="crispEdges" style="fill:#000000;opacity:38;"></rect><rect id="13-15" x="720" y="840" width="60" height="60" shape-rendering="crispEdges" style="fill:#000000;opacity:38;"></rect><rect id="15-15" x="840" y="840" width="60" height="60" shape-rendering="crispEdges" style="fill:#000000;opacity:38;"></rect><rect id="2-16" x="60" y="900" width="60" height="60" shape-rendering="crispEdges" style="fill:#000000;opacity:38;"></rect><rect id="4-16" x="180" y="900" width="60" height="60" shape-rendering="crispEdges" style="fill:#000000;opacity:38;"></rect><rect id="6-16" x="300" y="900" width="60" height="60" shape-rendering="crispEdges" style="fill:#000000;opacity:38;"></rect><rect id="8-16" x="420" y="900" width="60" height="60" shape-rendering="crispEdges" style="fill:#000000;opacity:38;"></rect><rect id="10-16" x="540" y="900" width="60" height="60" shape-rendering="crispEdges" style="fill:#000000;opacity:38;"></rect><rect id="12-16" x="660" y="900" width="60" height="60" shape-rendering="crispEdges" style="fill:#000000;opacity:38;"></rect><rect id="14-16" x="780" y="900" width="60" height="60" shape-rendering="crispEdges" style="fill:#000000;opacity:38;"></rect><rect id="16-16" x="900" y="900" width="60" height="60" shape-rendering="crispEdges" style="fill:#000000;opacity:38;"></rect></svg>