<?xml version="1.0" encoding="UTF-8" standalone="no"?><svg xmlns="http://www.w3.org/2000/svg" id="numbers-4" width="1200" height="1200" viewBox="0 0 1200 1200" preserveAspectRatio="xMidYMid meet" rendering="crispEdges"><rect id="56-42" x="550" y="410" width="10" height="10" shape-rendering="crispEdges" style="fill:#000000;opacity:255;"></rect><rect id="57-42" x="560" y="410" width="10" height="10" shape-rendering="crispEdges" style="fill:#000000;opacity:255;"></rect><rect id="51-43" x="500" y="420" width="10" height="10" shape-rendering="crispEdges" style="fill:#000000;opacity:255;"></rect><rect id="52-43" x="510" y="420" width="10" height="10" shape-rendering="crispEdges" style="fill:#000000;opacity:255;"></rect><rect id="55-43" x="540" y="420" width="10" height="10" shape-rendering="crispEdges" style="fill:#000000;opacity:255;"></rect><rect id="56-43" x="550" y="420" width="10" height="10" shape-rendering="crispEdges" style="fill:#ffffff;opacity:255;"></rect><rect id="57-43" x="560" y="420" width="10" height="10" shape-rendering="crispEdges" style="fill:#65f2ff;opacity:255;"></rect><rect id="58-43" x="570" y="420" width="10" height="10" shape-rendering="crispEdges" style="fill:#000000;opacity:255;"></rect><rect id="50-44" x="490" y="430" width="10" height="10" shape-rendering="crispEdges" style="fill:#000000;opacity:255;"></rect><rect id="51-44" x="500" y="430" width="10" height="10" shape-rendering="crispEdges" style="fill:#ffffff;opacity:255;"></rect><rect id="52-44" x="510" y="430" width="10" height="10" shape-rendering="crispEdges" style="fill:#65f2ff;opacity:255;"></rect><rect id="53-44" x="520" y="430" width="10" height="10" shape-rendering="crispEdges" style="fill:#000000;opacity:255;"></rect><rect id="55-44" x="540" y="430" width="10" height="10" shape-rendering="crispEdges" style="fill:#000000;opacity:255;"></rect><rect id="56-44" x="550" y="430" width="10" height="10" shape-rendering="crispEdges" style="fill:#65f2ff;opacity:255;"></rect><rect id="57-44" x="560" y="430" width="10" height="10" shape-rendering="crispEdges" style="fill:#65f2ff;opacity:255;"></rect><rect id="58-44" x="570" y="430" width="10" height="10" shape-rendering="crispEdges" style="fill:#000000;opacity:255;"></rect><rect id="50-45" x="490" y="440" width="10" height="10" shape-rendering="crispEdges" style="fill:#000000;opacity:255;"></rect><rect id="51-45" x="500" y="440" width="10" height="10" shape-rendering="crispEdges" style="fill:#65f2ff;opacity:255;"></rect><rect id="52-45" x="510" y="440" width="10" height="10" shape-rendering="crispEdges" style="fill:#65f2ff;opacity:255;"></rect><rect id="53-45" x="520" y="440" width="10" height="10" shape-rendering="crispEdges" style="fill:#000000;opacity:255;"></rect><rect id="55-45" x="540" y="440" width="10" height="10" shape-rendering="crispEdges" style="fill:#000000;opacity:255;"></rect><rect id="56-45" x="550" y="440" width="10" height="10" shape-rendering="crispEdges" style="fill:#65f2ff;opacity:255;"></rect><rect id="57-45" x="560" y="440" width="10" height="10" shape-rendering="crispEdges" style="fill:#65f2ff;opacity:255;"></rect><rect id="58-45" x="570" y="440" width="10" height="10" shape-rendering="crispEdges" style="fill:#000000;opacity:255;"></rect><rect id="50-46" x="490" y="450" width="10" height="10" shape-rendering="crispEdges" style="fill:#000000;opacity:255;"></rect><rect id="51-46" x="500" y="450" width="10" height="10" shape-rendering="crispEdges" style="fill:#65f2ff;opacity:255;"></rect><rect id="52-46" x="510" y="450" width="10" height="10" shape-rendering="crispEdges" style="fill:#00e9ff;opacity:255;"></rect><rect id="53-46" x="520" y="450" width="10" height="10" shape-rendering="crispEdges" style="fill:#000000;opacity:255;"></rect><rect id="55-46" x="540" y="450" width="10" height="10" shape-rendering="crispEdges" style="fill:#000000;opacity:255;"></rect><rect id="56-46" x="550" y="450" width="10" height="10" shape-rendering="crispEdges" style="fill:#65f2ff;opacity:255;"></rect><rect id="57-46" x="560" y="450" width="10" height="10" shape-rendering="crispEdges" style="fill:#00e9ff;opacity:255;"></rect><rect id="58-46" x="570" y="450" width="10" height="10" shape-rendering="crispEdges" style="fill:#000000;opacity:255;"></rect><rect id="49-47" x="480" y="460" width="10" height="10" shape-rendering="crispEdges" style="fill:#000000;opacity:255;"></rect><rect id="50-47" x="490" y="460" width="10" height="10" shape-rendering="crispEdges" style="fill:#ffffff;opacity:255;"></rect><rect id="51-47" x="500" y="460" width="10" height="10" shape-rendering="crispEdges" style="fill:#65f2ff;opacity:255;"></rect><rect id="52-47" x="510" y="460" width="10" height="10" shape-rendering="crispEdges" style="fill:#000000;opacity:255;"></rect><rect id="55-47" x="540" y="460" width="10" height="10" shape-rendering="crispEdges" style="fill:#000000;opacity:255;"></rect><rect id="56-47" x="550" y="460" width="10" height="10" shape-rendering="crispEdges" style="fill:#65f2ff;opacity:255;"></rect><rect id="57-47" x="560" y="460" width="10" height="10" shape-rendering="crispEdges" style="fill:#00e9ff;opacity:255;"></rect><rect id="58-47" x="570" y="460" width="10" height="10" shape-rendering="crispEdges" style="fill:#000000;opacity:255;"></rect><rect id="48-48" x="470" y="470" width="10" height="10" shape-rendering="crispEdges" style="fill:#000000;opacity:255;"></rect><rect id="49-48" x="480" y="470" width="10" height="10" shape-rendering="crispEdges" style="fill:#ffffff;opacity:255;"></rect><rect id="50-48" x="490" y="470" width="10" height="10" shape-rendering="crispEdges" style="fill:#65f2ff;opacity:255;"></rect><rect id="51-48" x="500" y="470" width="10" height="10" shape-rendering="crispEdges" style="fill:#00e9ff;opacity:255;"></rect><rect id="52-48" x="510" y="470" width="10" height="10" shape-rendering="crispEdges" style="fill:#000000;opacity:255;"></rect><rect id="55-48" x="540" y="470" width="10" height="10" shape-rendering="crispEdges" style="fill:#000000;opacity:255;"></rect><rect id="56-48" x="550" y="470" width="10" height="10" shape-rendering="crispEdges" style="fill:#65f2ff;opacity:255;"></rect><rect id="57-48" x="560" y="470" width="10" height="10" shape-rendering="crispEdges" style="fill:#00e9ff;opacity:255;"></rect><rect id="58-48" x="570" y="470" width="10" height="10" shape-rendering="crispEdges" style="fill:#000000;opacity:255;"></rect><rect id="47-49" x="460" y="480" width="10" height="10" shape-rendering="crispEdges" style="fill:#000000;opacity:255;"></rect><rect id="48-49" x="470" y="480" width="10" height="10" shape-rendering="crispEdges" style="fill:#65f2ff;opacity:255;"></rect><rect id="49-49" x="480" y="480" width="10" height="10" shape-rendering="crispEdges" style="fill:#65f2ff;opacity:255;"></rect><rect id="50-49" x="490" y="480" width="10" height="10" shape-rendering="crispEdges" style="fill:#00e9ff;opacity:255;"></rect><rect id="51-49" x="500" y="480" width="10" height="10" shape-rendering="crispEdges" style="fill:#000000;opacity:255;"></rect><rect id="55-49" x="540" y="480" width="10" height="10" shape-rendering="crispEdges" style="fill:#000000;opacity:255;"></rect><rect id="56-49" x="550" y="480" width="10" height="10" shape-rendering="crispEdges" style="fill:#00e9ff;opacity:255;"></rect><rect id="57-49" x="560" y="480" width="10" height="10" shape-rendering="crispEdges" style="fill:#00e9ff;opacity:255;"></rect><rect id="58-49" x="570" y="480" width="10" height="10" shape-rendering="crispEdges" style="fill:#000000;opacity:255;"></rect><rect id="47-50" x="460" y="490" width="10" height="10" shape-rendering="crispEdges" style="fill:#000000;opacity:255;"></rect><rect id="48-50" x="470" y="490" width="10" height="10" shape-rendering="crispEdges" style="fill:#65f2ff;opacity:255;"></rect><rect id="49-50" x="480" y="490" width="10" height="10" shape-rendering="crispEdges" style="fill:#00e9ff;opacity:255;"></rect><rect id="50-50" x="490" y="490" width="10" height="10" shape-rendering="crispEdges" style="fill:#00e9ff;opacity:255;"></rect><rect id="51-50" x="500" y="490" width="10" height="10" shape-rendering="crispEdges" style="fill:#000000;opacity:255;"></rect><rect id="55-50" x="540" y="490" width="10" height="10" shape-rendering="crispEdges" style="fill:#000000;opacity:255;"></rect><rect id="56-50" x="550" y="490" width="10" height="10" shape-rendering="crispEdges" style="fill:#00e9ff;opacity:255;"></rect><rect id="57-50" x="560" y="490" width="10" height="10" shape-rendering="crispEdges" style="fill:#00e9ff;opacity:255;"></rect><rect id="58-50" x="570" y="490" width="10" height="10" shape-rendering="crispEdges" style="fill:#000000;opacity:255;"></rect><rect id="46-51" x="450" y="500" width="10" height="10" shape-rendering="crispEdges" style="fill:#000000;opacity:255;"></rect><rect id="47-51" x="460" y="500" width="10" height="10" shape-rendering="crispEdges" style="fill:#00e9ff;opacity:255;"></rect><rect id="48-51" x="470" y="500" width="10" height="10" shape-rendering="crispEdges" style="fill:#00e9ff;opacity:255;"></rect><rect id="49-51" x="480" y="500" width="10" height="10" shape-rendering="crispEdges" style="fill:#00e9ff;opacity:255;"></rect><rect id="50-51" x="490" y="500" width="10" height="10" shape-rendering="crispEdges" style="fill:#000000;opacity:255;"></rect><rect id="55-51" x="540" y="500" width="10" height="10" shape-rendering="crispEdges" style="fill:#000000;opacity:255;"></rect><rect id="56-51" x="550" y="500" width="10" height="10" shape-rendering="crispEdges" style="fill:#00e9ff;opacity:255;"></rect><rect id="57-51" x="560" y="500" width="10" height="10" shape-rendering="crispEdges" style="fill:#00e9ff;opacity:255;"></rect><rect id="58-51" x="570" y="500" width="10" height="10" shape-rendering="crispEdges" style="fill:#000000;opacity:255;"></rect><rect id="45-52" x="440" y="510" width="10" height="10" shape-rendering="crispEdges" style="fill:#000000;opacity:255;"></rect><rect id="46-52" x="450" y="510" width="10" height="10" shape-rendering="crispEdges" style="fill:#00e9ff;opacity:255;"></rect><rect id="47-52" x="460" y="510" width="10" height="10" shape-rendering="crispEdges" style="fill:#00e9ff;opacity:255;"></rect><rect id="48-52" x="470" y="510" width="10" height="10" shape-rendering="crispEdges" style="fill:#00e9ff;opacity:255;"></rect><rect id="49-52" x="480" y="510" width="10" height="10" shape-rendering="crispEdges" style="fill:#000000;opacity:255;"></rect><rect id="55-52" x="540" y="510" width="10" height="10" shape-rendering="crispEdges" style="fill:#000000;opacity:255;"></rect><rect id="56-52" x="550" y="510" width="10" height="10" shape-rendering="crispEdges" style="fill:#00e9ff;opacity:255;"></rect><rect id="57-52" x="560" y="510" width="10" height="10" shape-rendering="crispEdges" style="fill:#00e9ff;opacity:255;"></rect><rect id="58-52" x="570" y="510" width="10" height="10" shape-rendering="crispEdges" style="fill:#000000;opacity:255;"></rect><rect id="44-53" x="430" y="520" width="10" height="10" shape-rendering="crispEdges" style="fill:#000000;opacity:255;"></rect><rect id="45-53" x="440" y="520" width="10" height="10" shape-rendering="crispEdges" style="fill:#00e9ff;opacity:255;"></rect><rect id="46-53" x="450" y="520" width="10" height="10" shape-rendering="crispEdges" style="fill:#00e9ff;opacity:255;"></rect><rect id="47-53" x="460" y="520" width="10" height="10" shape-rendering="crispEdges" style="fill:#00e9ff;opacity:255;"></rect><rect id="48-53" x="470" y="520" width="10" height="10" shape-rendering="crispEdges" style="fill:#000000;opacity:255;"></rect><rect id="55-53" x="540" y="520" width="10" height="10" shape-rendering="crispEdges" style="fill:#000000;opacity:255;"></rect><rect id="56-53" x="550" y="520" width="10" height="10" shape-rendering="crispEdges" style="fill:#00e9ff;opacity:255;"></rect><rect id="57-53" x="560" y="520" width="10" height="10" shape-rendering="crispEdges" style="fill:#00e9ff;opacity:255;"></rect><rect id="58-53" x="570" y="520" width="10" height="10" shape-rendering="crispEdges" style="fill:#000000;opacity:255;"></rect><rect id="43-54" x="420" y="530" width="10" height="10" shape-rendering="crispEdges" style="fill:#000000;opacity:255;"></rect><rect id="44-54" x="430" y="530" width="10" height="10" shape-rendering="crispEdges" style="fill:#65f2ff;opacity:255;"></rect><rect id="45-54" x="440" y="530" width="10" height="10" shape-rendering="crispEdges" style="fill:#00e9ff;opacity:255;"></rect><rect id="46-54" x="450" y="530" width="10" height="10" shape-rendering="crispEdges" style="fill:#00e9ff;opacity:255;"></rect><rect id="47-54" x="460" y="530" width="10" height="10" shape-rendering="crispEdges" style="fill:#000000;opacity:255;"></rect><rect id="55-54" x="540" y="530" width="10" height="10" shape-rendering="crispEdges" style="fill:#000000;opacity:255;"></rect><rect id="56-54" x="550" y="530" width="10" height="10" shape-rendering="crispEdges" style="fill:#00e9ff;opacity:255;"></rect><rect id="57-54" x="560" y="530" width="10" height="10" shape-rendering="crispEdges" style="fill:#00e9ff;opacity:255;"></rect><rect id="58-54" x="570" y="530" width="10" height="10" shape-rendering="crispEdges" style="fill:#000000;opacity:255;"></rect><rect id="59-54" x="580" y="530" width="10" height="10" shape-rendering="crispEdges" style="fill:#000000;opacity:255;"></rect><rect id="60-54" x="590" y="530" width="10" height="10" shape-rendering="crispEdges" style="fill:#000000;opacity:255;"></rect><rect id="61-54" x="600" y="530" width="10" height="10" shape-rendering="crispEdges" style="fill:#000000;opacity:255;"></rect><rect id="62-54" x="610" y="530" width="10" height="10" shape-rendering="crispEdges" style="fill:#000000;opacity:255;"></rect><rect id="42-55" x="410" y="540" width="10" height="10" shape-rendering="crispEdges" style="fill:#000000;opacity:255;"></rect><rect id="43-55" x="420" y="540" width="10" height="10" shape-rendering="crispEdges" style="fill:#65f2ff;opacity:255;"></rect><rect id="44-55" x="430" y="540" width="10" height="10" shape-rendering="crispEdges" style="fill:#65f2ff;opacity:255;"></rect><rect id="45-55" x="440" y="540" width="10" height="10" shape-rendering="crispEdges" style="fill:#00e9ff;opacity:255;"></rect><rect id="46-55" x="450" y="540" width="10" height="10" shape-rendering="crispEdges" style="fill:#000000;opacity:255;"></rect><rect id="49-55" x="480" y="540" width="10" height="10" shape-rendering="crispEdges" style="fill:#000000;opacity:255;"></rect><rect id="50-55" x="490" y="540" width="10" height="10" shape-rendering="crispEdges" style="fill:#000000;opacity:255;"></rect><rect id="51-55" x="500" y="540" width="10" height="10" shape-rendering="crispEdges" style="fill:#000000;opacity:255;"></rect><rect id="52-55" x="510" y="540" width="10" height="10" shape-rendering="crispEdges" style="fill:#000000;opacity:255;"></rect><rect id="53-55" x="520" y="540" width="10" height="10" shape-rendering="crispEdges" style="fill:#000000;opacity:255;"></rect><rect id="54-55" x="530" y="540" width="10" height="10" shape-rendering="crispEdges" style="fill:#000000;opacity:255;"></rect><rect id="55-55" x="540" y="540" width="10" height="10" shape-rendering="crispEdges" style="fill:#000000;opacity:255;"></rect><rect id="56-55" x="550" y="540" width="10" height="10" shape-rendering="crispEdges" style="fill:#00e9ff;opacity:255;"></rect><rect id="57-55" x="560" y="540" width="10" height="10" shape-rendering="crispEdges" style="fill:#00e9ff;opacity:255;"></rect><rect id="58-55" x="570" y="540" width="10" height="10" shape-rendering="crispEdges" style="fill:#00e9ff;opacity:255;"></rect><rect id="59-55" x="580" y="540" width="10" height="10" shape-rendering="crispEdges" style="fill:#00e9ff;opacity:255;"></rect><rect id="60-55" x="590" y="540" width="10" height="10" shape-rendering="crispEdges" style="fill:#00e9ff;opacity:255;"></rect><rect id="61-55" x="600" y="540" width="10" height="10" shape-rendering="crispEdges" style="fill:#00e9ff;opacity:255;"></rect><rect id="62-55" x="610" y="540" width="10" height="10" shape-rendering="crispEdges" style="fill:#000000;opacity:255;"></rect><rect id="63-55" x="620" y="540" width="10" height="10" shape-rendering="crispEdges" style="fill:#000000;opacity:255;"></rect><rect id="41-56" x="400" y="550" width="10" height="10" shape-rendering="crispEdges" style="fill:#000000;opacity:255;"></rect><rect id="42-56" x="410" y="550" width="10" height="10" shape-rendering="crispEdges" style="fill:#ffffff;opacity:255;"></rect><rect id="43-56" x="420" y="550" width="10" height="10" shape-rendering="crispEdges" style="fill:#65f2ff;opacity:255;"></rect><rect id="44-56" x="430" y="550" width="10" height="10" shape-rendering="crispEdges" style="fill:#00e9ff;opacity:255;"></rect><rect id="45-56" x="440" y="550" width="10" height="10" shape-rendering="crispEdges" style="fill:#000000;opacity:255;"></rect><rect id="46-56" x="450" y="550" width="10" height="10" shape-rendering="crispEdges" style="fill:#000000;opacity:255;"></rect><rect id="47-56" x="460" y="550" width="10" height="10" shape-rendering="crispEdges" style="fill:#000000;opacity:255;"></rect><rect id="48-56" x="470" y="550" width="10" height="10" shape-rendering="crispEdges" style="fill:#000000;opacity:255;"></rect><rect id="49-56" x="480" y="550" width="10" height="10" shape-rendering="crispEdges" style="fill:#00e9ff;opacity:255;"></rect><rect id="50-56" x="490" y="550" width="10" height="10" shape-rendering="crispEdges" style="fill:#00e9ff;opacity:255;"></rect><rect id="51-56" x="500" y="550" width="10" height="10" shape-rendering="crispEdges" style="fill:#00e9ff;opacity:255;"></rect><rect id="52-56" x="510" y="550" width="10" height="10" shape-rendering="crispEdges" style="fill:#00e9ff;opacity:255;"></rect><rect id="53-56" x="520" y="550" width="10" height="10" shape-rendering="crispEdges" style="fill:#00e9ff;opacity:255;"></rect><rect id="54-56" x="530" y="550" width="10" height="10" shape-rendering="crispEdges" style="fill:#00e9ff;opacity:255;"></rect><rect id="55-56" x="540" y="550" width="10" height="10" shape-rendering="crispEdges" style="fill:#00e9ff;opacity:255;"></rect><rect id="56-56" x="550" y="550" width="10" height="10" shape-rendering="crispEdges" style="fill:#00e9ff;opacity:255;"></rect><rect id="57-56" x="560" y="550" width="10" height="10" shape-rendering="crispEdges" style="fill:#00e9ff;opacity:255;"></rect><rect id="58-56" x="570" y="550" width="10" height="10" shape-rendering="crispEdges" style="fill:#00e9ff;opacity:255;"></rect><rect id="59-56" x="580" y="550" width="10" height="10" shape-rendering="crispEdges" style="fill:#00e9ff;opacity:255;"></rect><rect id="60-56" x="590" y="550" width="10" height="10" shape-rendering="crispEdges" style="fill:#00e9ff;opacity:255;"></rect><rect id="61-56" x="600" y="550" width="10" height="10" shape-rendering="crispEdges" style="fill:#00e9ff;opacity:255;"></rect><rect id="62-56" x="610" y="550" width="10" height="10" shape-rendering="crispEdges" style="fill:#00e9ff;opacity:255;"></rect><rect id="63-56" x="620" y="550" width="10" height="10" shape-rendering="crispEdges" style="fill:#000000;opacity:255;"></rect><rect id="40-57" x="390" y="560" width="10" height="10" shape-rendering="crispEdges" style="fill:#000000;opacity:255;"></rect><rect id="41-57" x="400" y="560" width="10" height="10" shape-rendering="crispEdges" style="fill:#ffffff;opacity:255;"></rect><rect id="42-57" x="410" y="560" width="10" height="10" shape-rendering="crispEdges" style="fill:#65f2ff;opacity:255;"></rect><rect id="43-57" x="420" y="560" width="10" height="10" shape-rendering="crispEdges" style="fill:#65f2ff;opacity:255;"></rect><rect id="44-57" x="430" y="560" width="10" height="10" shape-rendering="crispEdges" style="fill:#00e9ff;opacity:255;"></rect><rect id="45-57" x="440" y="560" width="10" height="10" shape-rendering="crispEdges" style="fill:#00e9ff;opacity:255;"></rect><rect id="46-57" x="450" y="560" width="10" height="10" shape-rendering="crispEdges" style="fill:#00e9ff;opacity:255;"></rect><rect id="47-57" x="460" y="560" width="10" height="10" shape-rendering="crispEdges" style="fill:#00e9ff;opacity:255;"></rect><rect id="48-57" x="470" y="560" width="10" height="10" shape-rendering="crispEdges" style="fill:#00e9ff;opacity:255;"></rect><rect id="49-57" x="480" y="560" width="10" height="10" shape-rendering="crispEdges" style="fill:#00e9ff;opacity:255;"></rect><rect id="50-57" x="490" y="560" width="10" height="10" shape-rendering="crispEdges" style="fill:#00e9ff;opacity:255;"></rect><rect id="51-57" x="500" y="560" width="10" height="10" shape-rendering="crispEdges" style="fill:#00e9ff;opacity:255;"></rect><rect id="52-57" x="510" y="560" width="10" height="10" shape-rendering="crispEdges" style="fill:#00e9ff;opacity:255;"></rect><rect id="53-57" x="520" y="560" width="10" height="10" shape-rendering="crispEdges" style="fill:#00e9ff;opacity:255;"></rect><rect id="54-57" x="530" y="560" width="10" height="10" shape-rendering="crispEdges" style="fill:#00e9ff;opacity:255;"></rect><rect id="55-57" x="540" y="560" width="10" height="10" shape-rendering="crispEdges" style="fill:#00e9ff;opacity:255;"></rect><rect id="56-57" x="550" y="560" width="10" height="10" shape-rendering="crispEdges" style="fill:#00e9ff;opacity:255;"></rect><rect id="57-57" x="560" y="560" width="10" height="10" shape-rendering="crispEdges" style="fill:#00e9ff;opacity:255;"></rect><rect id="58-57" x="570" y="560" width="10" height="10" shape-rendering="crispEdges" style="fill:#000000;opacity:255;"></rect><rect id="59-57" x="580" y="560" width="10" height="10" shape-rendering="crispEdges" style="fill:#000000;opacity:255;"></rect><rect id="60-57" x="590" y="560" width="10" height="10" shape-rendering="crispEdges" style="fill:#000000;opacity:255;"></rect><rect id="61-57" x="600" y="560" width="10" height="10" shape-rendering="crispEdges" style="fill:#000000;opacity:255;"></rect><rect id="62-57" x="610" y="560" width="10" height="10" shape-rendering="crispEdges" style="fill:#000000;opacity:255;"></rect><rect id="63-57" x="620" y="560" width="10" height="10" shape-rendering="crispEdges" style="fill:#000000;opacity:255;"></rect><rect id="40-58" x="390" y="570" width="10" height="10" shape-rendering="crispEdges" style="fill:#000000;opacity:255;"></rect><rect id="41-58" x="400" y="570" width="10" height="10" shape-rendering="crispEdges" style="fill:#ffffff;opacity:255;"></rect><rect id="42-58" x="410" y="570" width="10" height="10" shape-rendering="crispEdges" style="fill:#65f2ff;opacity:255;"></rect><rect id="43-58" x="420" y="570" width="10" height="10" shape-rendering="crispEdges" style="fill:#00e9ff;opacity:255;"></rect><rect id="44-58" x="430" y="570" width="10" height="10" shape-rendering="crispEdges" style="fill:#00e9ff;opacity:255;"></rect><rect id="45-58" x="440" y="570" width="10" height="10" shape-rendering="crispEdges" style="fill:#000000;opacity:255;"></rect><rect id="46-58" x="450" y="570" width="10" height="10" shape-rendering="crispEdges" style="fill:#000000;opacity:255;"></rect><rect id="47-58" x="460" y="570" width="10" height="10" shape-rendering="crispEdges" style="fill:#000000;opacity:255;"></rect><rect id="48-58" x="470" y="570" width="10" height="10" shape-rendering="crispEdges" style="fill:#000000;opacity:255;"></rect><rect id="49-58" x="480" y="570" width="10" height="10" shape-rendering="crispEdges" style="fill:#000000;opacity:255;"></rect><rect id="50-58" x="490" y="570" width="10" height="10" shape-rendering="crispEdges" style="fill:#000000;opacity:255;"></rect><rect id="51-58" x="500" y="570" width="10" height="10" shape-rendering="crispEdges" style="fill:#000000;opacity:255;"></rect><rect id="52-58" x="510" y="570" width="10" height="10" shape-rendering="crispEdges" style="fill:#000000;opacity:255;"></rect><rect id="53-58" x="520" y="570" width="10" height="10" shape-rendering="crispEdges" style="fill:#000000;opacity:255;"></rect><rect id="54-58" x="530" y="570" width="10" height="10" shape-rendering="crispEdges" style="fill:#000000;opacity:255;"></rect><rect id="55-58" x="540" y="570" width="10" height="10" shape-rendering="crispEdges" style="fill:#000000;opacity:255;"></rect><rect id="56-58" x="550" y="570" width="10" height="10" shape-rendering="crispEdges" style="fill:#00e9ff;opacity:255;"></rect><rect id="57-58" x="560" y="570" width="10" height="10" shape-rendering="crispEdges" style="fill:#00e9ff;opacity:255;"></rect><rect id="58-58" x="570" y="570" width="10" height="10" shape-rendering="crispEdges" style="fill:#000000;opacity:255;"></rect><rect id="41-59" x="400" y="580" width="10" height="10" shape-rendering="crispEdges" style="fill:#000000;opacity:255;"></rect><rect id="42-59" x="410" y="580" width="10" height="10" shape-rendering="crispEdges" style="fill:#000000;opacity:255;"></rect><rect id="43-59" x="420" y="580" width="10" height="10" shape-rendering="crispEdges" style="fill:#000000;opacity:255;"></rect><rect id="44-59" x="430" y="580" width="10" height="10" shape-rendering="crispEdges" style="fill:#000000;opacity:255;"></rect><rect id="55-59" x="540" y="580" width="10" height="10" shape-rendering="crispEdges" style="fill:#000000;opacity:255;"></rect><rect id="56-59" x="550" y="580" width="10" height="10" shape-rendering="crispEdges" style="fill:#00e9ff;opacity:255;"></rect><rect id="57-59" x="560" y="580" width="10" height="10" shape-rendering="crispEdges" style="fill:#00e9ff;opacity:255;"></rect><rect id="58-59" x="570" y="580" width="10" height="10" shape-rendering="crispEdges" style="fill:#000000;opacity:255;"></rect><rect id="55-60" x="540" y="590" width="10" height="10" shape-rendering="crispEdges" style="fill:#000000;opacity:255;"></rect><rect id="56-60" x="550" y="590" width="10" height="10" shape-rendering="crispEdges" style="fill:#00e9ff;opacity:255;"></rect><rect id="57-60" x="560" y="590" width="10" height="10" shape-rendering="crispEdges" style="fill:#00e9ff;opacity:255;"></rect><rect id="58-60" x="570" y="590" width="10" height="10" shape-rendering="crispEdges" style="fill:#000000;opacity:255;"></rect><rect id="55-61" x="540" y="600" width="10" height="10" shape-rendering="crispEdges" style="fill:#000000;opacity:255;"></rect><rect id="56-61" x="550" y="600" width="10" height="10" shape-rendering="crispEdges" style="fill:#00e9ff;opacity:255;"></rect><rect id="57-61" x="560" y="600" width="10" height="10" shape-rendering="crispEdges" style="fill:#00e9ff;opacity:255;"></rect><rect id="58-61" x="570" y="600" width="10" height="10" shape-rendering="crispEdges" style="fill:#000000;opacity:255;"></rect><rect id="55-62" x="540" y="610" width="10" height="10" shape-rendering="crispEdges" style="fill:#000000;opacity:255;"></rect><rect id="56-62" x="550" y="610" width="10" height="10" shape-rendering="crispEdges" style="fill:#00e9ff;opacity:255;"></rect><rect id="57-62" x="560" y="610" width="10" height="10" shape-rendering="crispEdges" style="fill:#00e9ff;opacity:255;"></rect><rect id="58-62" x="570" y="610" width="10" height="10" shape-rendering="crispEdges" style="fill:#000000;opacity:255;"></rect><rect id="55-63" x="540" y="620" width="10" height="10" shape-rendering="crispEdges" style="fill:#000000;opacity:255;"></rect><rect id="56-63" x="550" y="620" width="10" height="10" shape-rendering="crispEdges" style="fill:#00e9ff;opacity:255;"></rect><rect id="57-63" x="560" y="620" width="10" height="10" shape-rendering="crispEdges" style="fill:#00e9ff;opacity:255;"></rect><rect id="58-63" x="570" y="620" width="10" height="10" shape-rendering="crispEdges" style="fill:#000000;opacity:255;"></rect><rect id="55-64" x="540" y="630" width="10" height="10" shape-rendering="crispEdges" style="fill:#000000;opacity:255;"></rect><rect id="56-64" x="550" y="630" width="10" height="10" shape-rendering="crispEdges" style="fill:#00e9ff;opacity:255;"></rect><rect id="57-64" x="560" y="630" width="10" height="10" shape-rendering="crispEdges" style="fill:#00e9ff;opacity:255;"></rect><rect id="58-64" x="570" y="630" width="10" height="10" shape-rendering="crispEdges" style="fill:#000000;opacity:255;"></rect><rect id="55-65" x="540" y="640" width="10" height="10" shape-rendering="crispEdges" style="fill:#000000;opacity:255;"></rect><rect id="56-65" x="550" y="640" width="10" height="10" shape-rendering="crispEdges" style="fill:#00e9ff;opacity:255;"></rect><rect id="57-65" x="560" y="640" width="10" height="10" shape-rendering="crispEdges" style="fill:#00e9ff;opacity:255;"></rect><rect id="58-65" x="570" y="640" width="10" height="10" shape-rendering="crispEdges" style="fill:#000000;opacity:255;"></rect><rect id="55-66" x="540" y="650" width="10" height="10" shape-rendering="crispEdges" style="fill:#000000;opacity:255;"></rect><rect id="56-66" x="550" y="650" width="10" height="10" shape-rendering="crispEdges" style="fill:#00e9ff;opacity:255;"></rect><rect id="57-66" x="560" y="650" width="10" height="10" shape-rendering="crispEdges" style="fill:#00e9ff;opacity:255;"></rect><rect id="58-66" x="570" y="650" width="10" height="10" shape-rendering="crispEdges" style="fill:#000000;opacity:255;"></rect><rect id="55-67" x="540" y="660" width="10" height="10" shape-rendering="crispEdges" style="fill:#000000;opacity:255;"></rect><rect id="56-67" x="550" y="660" width="10" height="10" shape-rendering="crispEdges" style="fill:#00e9ff;opacity:255;"></rect><rect id="57-67" x="560" y="660" width="10" height="10" shape-rendering="crispEdges" style="fill:#00e9ff;opacity:255;"></rect><rect id="58-67" x="570" y="660" width="10" height="10" shape-rendering="crispEdges" style="fill:#000000;opacity:255;"></rect><rect id="55-68" x="540" y="670" width="10" height="10" shape-rendering="crispEdges" style="fill:#000000;opacity:255;"></rect><rect id="56-68" x="550" y="670" width="10" height="10" shape-rendering="crispEdges" style="fill:#00e9ff;opacity:255;"></rect><rect id="57-68" x="560" y="670" width="10" height="10" shape-rendering="crispEdges" style="fill:#000000;opacity:255;"></rect><rect id="56-69" x="550" y="680" width="10" height="10" shape-rendering="crispEdges" style="fill:#000000;opacity:255;"></rect></svg>