<?xml version="1.0" encoding="UTF-8" standalone="no"?><svg xmlns="http://www.w3.org/2000/svg" id="numbers-3" width="1200" height="1200" viewBox="0 0 1200 1200" preserveAspectRatio="xMidYMid meet" rendering="crispEdges"><rect id="47-48" x="460" y="470" width="10" height="10" shape-rendering="crispEdges" style="fill:#000000;opacity:255;"></rect><rect id="48-48" x="470" y="470" width="10" height="10" shape-rendering="crispEdges" style="fill:#000000;opacity:255;"></rect><rect id="49-48" x="480" y="470" width="10" height="10" shape-rendering="crispEdges" style="fill:#000000;opacity:255;"></rect><rect id="50-48" x="490" y="470" width="10" height="10" shape-rendering="crispEdges" style="fill:#000000;opacity:255;"></rect><rect id="51-48" x="500" y="470" width="10" height="10" shape-rendering="crispEdges" style="fill:#000000;opacity:255;"></rect><rect id="52-48" x="510" y="470" width="10" height="10" shape-rendering="crispEdges" style="fill:#000000;opacity:255;"></rect><rect id="53-48" x="520" y="470" width="10" height="10" shape-rendering="crispEdges" style="fill:#000000;opacity:255;"></rect><rect id="54-48" x="530" y="470" width="10" height="10" shape-rendering="crispEdges" style="fill:#000000;opacity:255;"></rect><rect id="55-48" x="540" y="470" width="10" height="10" shape-rendering="crispEdges" style="fill:#000000;opacity:255;"></rect><rect id="56-48" x="550" y="470" width="10" height="10" shape-rendering="crispEdges" style="fill:#000000;opacity:255;"></rect><rect id="44-49" x="430" y="480" width="10" height="10" shape-rendering="crispEdges" style="fill:#000000;opacity:255;"></rect><rect id="45-49" x="440" y="480" width="10" height="10" shape-rendering="crispEdges" style="fill:#000000;opacity:255;"></rect><rect id="46-49" x="450" y="480" width="10" height="10" shape-rendering="crispEdges" style="fill:#000000;opacity:255;"></rect><rect id="47-49" x="460" y="480" width="10" height="10" shape-rendering="crispEdges" style="fill:#ffe678;opacity:255;"></rect><rect id="48-49" x="470" y="480" width="10" height="10" shape-rendering="crispEdges" style="fill:#ffe678;opacity:255;"></rect><rect id="49-49" x="480" y="480" width="10" height="10" shape-rendering="crispEdges" style="fill:#ffe678;opacity:255;"></rect><rect id="50-49" x="490" y="480" width="10" height="10" shape-rendering="crispEdges" style="fill:#ffe678;opacity:255;"></rect><rect id="51-49" x="500" y="480" width="10" height="10" shape-rendering="crispEdges" style="fill:#ffd51a;opacity:255;"></rect><rect id="52-49" x="510" y="480" width="10" height="10" shape-rendering="crispEdges" style="fill:#ffd51a;opacity:255;"></rect><rect id="53-49" x="520" y="480" width="10" height="10" shape-rendering="crispEdges" style="fill:#ffd51a;opacity:255;"></rect><rect id="54-49" x="530" y="480" width="10" height="10" shape-rendering="crispEdges" style="fill:#ffd51a;opacity:255;"></rect><rect id="55-49" x="540" y="480" width="10" height="10" shape-rendering="crispEdges" style="fill:#ffd51a;opacity:255;"></rect><rect id="56-49" x="550" y="480" width="10" height="10" shape-rendering="crispEdges" style="fill:#ffd51a;opacity:255;"></rect><rect id="57-49" x="560" y="480" width="10" height="10" shape-rendering="crispEdges" style="fill:#000000;opacity:255;"></rect><rect id="58-49" x="570" y="480" width="10" height="10" shape-rendering="crispEdges" style="fill:#000000;opacity:255;"></rect><rect id="43-50" x="420" y="490" width="10" height="10" shape-rendering="crispEdges" style="fill:#000000;opacity:255;"></rect><rect id="44-50" x="430" y="490" width="10" height="10" shape-rendering="crispEdges" style="fill:#ffffff;opacity:255;"></rect><rect id="45-50" x="440" y="490" width="10" height="10" shape-rendering="crispEdges" style="fill:#ffffff;opacity:255;"></rect><rect id="46-50" x="450" y="490" width="10" height="10" shape-rendering="crispEdges" style="fill:#ffffff;opacity:255;"></rect><rect id="47-50" x="460" y="490" width="10" height="10" shape-rendering="crispEdges" style="fill:#ffe678;opacity:255;"></rect><rect id="48-50" x="470" y="490" width="10" height="10" shape-rendering="crispEdges" style="fill:#ffd51a;opacity:255;"></rect><rect id="49-50" x="480" y="490" width="10" height="10" shape-rendering="crispEdges" style="fill:#ffd51a;opacity:255;"></rect><rect id="50-50" x="490" y="490" width="10" height="10" shape-rendering="crispEdges" style="fill:#ffd51a;opacity:255;"></rect><rect id="51-50" x="500" y="490" width="10" height="10" shape-rendering="crispEdges" style="fill:#ffd51a;opacity:255;"></rect><rect id="52-50" x="510" y="490" width="10" height="10" shape-rendering="crispEdges" style="fill:#ffd51a;opacity:255;"></rect><rect id="53-50" x="520" y="490" width="10" height="10" shape-rendering="crispEdges" style="fill:#ffd51a;opacity:255;"></rect><rect id="54-50" x="530" y="490" width="10" height="10" shape-rendering="crispEdges" style="fill:#ffd51a;opacity:255;"></rect><rect id="55-50" x="540" y="490" width="10" height="10" shape-rendering="crispEdges" style="fill:#ffd51a;opacity:255;"></rect><rect id="56-50" x="550" y="490" width="10" height="10" shape-rendering="crispEdges" style="fill:#ffd51a;opacity:255;"></rect><rect id="57-50" x="560" y="490" width="10" height="10" shape-rendering="crispEdges" style="fill:#ffd51a;opacity:255;"></rect><rect id="58-50" x="570" y="490" width="10" height="10" shape-rendering="crispEdges" style="fill:#ffd51a;opacity:255;"></rect><rect id="59-50" x="580" y="490" width="10" height="10" shape-rendering="crispEdges" style="fill:#000000;opacity:255;"></rect><rect id="43-51" x="420" y="500" width="10" height="10" shape-rendering="crispEdges" style="fill:#000000;opacity:255;"></rect><rect id="44-51" x="430" y="500" width="10" height="10" shape-rendering="crispEdges" style="fill:#ffffff;opacity:255;"></rect><rect id="45-51" x="440" y="500" width="10" height="10" shape-rendering="crispEdges" style="fill:#ffe678;opacity:255;"></rect><rect id="46-51" x="450" y="500" width="10" height="10" shape-rendering="crispEdges" style="fill:#ffe678;opacity:255;"></rect><rect id="47-51" x="460" y="500" width="10" height="10" shape-rendering="crispEdges" style="fill:#ffe678;opacity:255;"></rect><rect id="48-51" x="470" y="500" width="10" height="10" shape-rendering="crispEdges" style="fill:#000000;opacity:255;"></rect><rect id="49-51" x="480" y="500" width="10" height="10" shape-rendering="crispEdges" style="fill:#000000;opacity:255;"></rect><rect id="50-51" x="490" y="500" width="10" height="10" shape-rendering="crispEdges" style="fill:#000000;opacity:255;"></rect><rect id="51-51" x="500" y="500" width="10" height="10" shape-rendering="crispEdges" style="fill:#000000;opacity:255;"></rect><rect id="52-51" x="510" y="500" width="10" height="10" shape-rendering="crispEdges" style="fill:#000000;opacity:255;"></rect><rect id="53-51" x="520" y="500" width="10" height="10" shape-rendering="crispEdges" style="fill:#000000;opacity:255;"></rect><rect id="54-51" x="530" y="500" width="10" height="10" shape-rendering="crispEdges" style="fill:#000000;opacity:255;"></rect><rect id="55-51" x="540" y="500" width="10" height="10" shape-rendering="crispEdges" style="fill:#ffd51a;opacity:255;"></rect><rect id="56-51" x="550" y="500" width="10" height="10" shape-rendering="crispEdges" style="fill:#ffd51a;opacity:255;"></rect><rect id="57-51" x="560" y="500" width="10" height="10" shape-rendering="crispEdges" style="fill:#ffd51a;opacity:255;"></rect><rect id="58-51" x="570" y="500" width="10" height="10" shape-rendering="crispEdges" style="fill:#d3b221;opacity:255;"></rect><rect id="59-51" x="580" y="500" width="10" height="10" shape-rendering="crispEdges" style="fill:#000000;opacity:255;"></rect><rect id="43-52" x="420" y="510" width="10" height="10" shape-rendering="crispEdges" style="fill:#000000;opacity:255;"></rect><rect id="44-52" x="430" y="510" width="10" height="10" shape-rendering="crispEdges" style="fill:#000000;opacity:255;"></rect><rect id="45-52" x="440" y="510" width="10" height="10" shape-rendering="crispEdges" style="fill:#000000;opacity:255;"></rect><rect id="46-52" x="450" y="510" width="10" height="10" shape-rendering="crispEdges" style="fill:#000000;opacity:255;"></rect><rect id="47-52" x="460" y="510" width="10" height="10" shape-rendering="crispEdges" style="fill:#000000;opacity:255;"></rect><rect id="48-52" x="470" y="510" width="10" height="10" shape-rendering="crispEdges" style="fill:#000000;opacity:255;"></rect><rect id="55-52" x="540" y="510" width="10" height="10" shape-rendering="crispEdges" style="fill:#000000;opacity:255;"></rect><rect id="56-52" x="550" y="510" width="10" height="10" shape-rendering="crispEdges" style="fill:#ffd51a;opacity:255;"></rect><rect id="57-52" x="560" y="510" width="10" height="10" shape-rendering="crispEdges" style="fill:#ffd51a;opacity:255;"></rect><rect id="58-52" x="570" y="510" width="10" height="10" shape-rendering="crispEdges" style="fill:#d3b221;opacity:255;"></rect><rect id="59-52" x="580" y="510" width="10" height="10" shape-rendering="crispEdges" style="fill:#000000;opacity:255;"></rect><rect id="55-53" x="540" y="520" width="10" height="10" shape-rendering="crispEdges" style="fill:#000000;opacity:255;"></rect><rect id="56-53" x="550" y="520" width="10" height="10" shape-rendering="crispEdges" style="fill:#ffd51a;opacity:255;"></rect><rect id="57-53" x="560" y="520" width="10" height="10" shape-rendering="crispEdges" style="fill:#ffd51a;opacity:255;"></rect><rect id="58-53" x="570" y="520" width="10" height="10" shape-rendering="crispEdges" style="fill:#d3b221;opacity:255;"></rect><rect id="59-53" x="580" y="520" width="10" height="10" shape-rendering="crispEdges" style="fill:#000000;opacity:255;"></rect><rect id="52-54" x="510" y="530" width="10" height="10" shape-rendering="crispEdges" style="fill:#000000;opacity:255;"></rect><rect id="53-54" x="520" y="530" width="10" height="10" shape-rendering="crispEdges" style="fill:#000000;opacity:255;"></rect><rect id="54-54" x="530" y="530" width="10" height="10" shape-rendering="crispEdges" style="fill:#000000;opacity:255;"></rect><rect id="55-54" x="540" y="530" width="10" height="10" shape-rendering="crispEdges" style="fill:#ffd51a;opacity:255;"></rect><rect id="56-54" x="550" y="530" width="10" height="10" shape-rendering="crispEdges" style="fill:#ffd51a;opacity:255;"></rect><rect id="57-54" x="560" y="530" width="10" height="10" shape-rendering="crispEdges" style="fill:#ffd51a;opacity:255;"></rect><rect id="58-54" x="570" y="530" width="10" height="10" shape-rendering="crispEdges" style="fill:#d3b221;opacity:255;"></rect><rect id="59-54" x="580" y="530" width="10" height="10" shape-rendering="crispEdges" style="fill:#000000;opacity:255;"></rect><rect id="49-55" x="480" y="540" width="10" height="10" shape-rendering="crispEdges" style="fill:#000000;opacity:255;"></rect><rect id="50-55" x="490" y="540" width="10" height="10" shape-rendering="crispEdges" style="fill:#000000;opacity:255;"></rect><rect id="51-55" x="500" y="540" width="10" height="10" shape-rendering="crispEdges" style="fill:#000000;opacity:255;"></rect><rect id="52-55" x="510" y="540" width="10" height="10" shape-rendering="crispEdges" style="fill:#ffe678;opacity:255;"></rect><rect id="53-55" x="520" y="540" width="10" height="10" shape-rendering="crispEdges" style="fill:#ffe678;opacity:255;"></rect><rect id="54-55" x="530" y="540" width="10" height="10" shape-rendering="crispEdges" style="fill:#ffd51a;opacity:255;"></rect><rect id="55-55" x="540" y="540" width="10" height="10" shape-rendering="crispEdges" style="fill:#ffd51a;opacity:255;"></rect><rect id="56-55" x="550" y="540" width="10" height="10" shape-rendering="crispEdges" style="fill:#ffd51a;opacity:255;"></rect><rect id="57-55" x="560" y="540" width="10" height="10" shape-rendering="crispEdges" style="fill:#d3b221;opacity:255;"></rect><rect id="58-55" x="570" y="540" width="10" height="10" shape-rendering="crispEdges" style="fill:#000000;opacity:255;"></rect><rect id="44-56" x="430" y="550" width="10" height="10" shape-rendering="crispEdges" style="fill:#000000;opacity:255;"></rect><rect id="45-56" x="440" y="550" width="10" height="10" shape-rendering="crispEdges" style="fill:#000000;opacity:255;"></rect><rect id="46-56" x="450" y="550" width="10" height="10" shape-rendering="crispEdges" style="fill:#000000;opacity:255;"></rect><rect id="47-56" x="460" y="550" width="10" height="10" shape-rendering="crispEdges" style="fill:#000000;opacity:255;"></rect><rect id="48-56" x="470" y="550" width="10" height="10" shape-rendering="crispEdges" style="fill:#000000;opacity:255;"></rect><rect id="49-56" x="480" y="550" width="10" height="10" shape-rendering="crispEdges" style="fill:#ffffff;opacity:255;"></rect><rect id="50-56" x="490" y="550" width="10" height="10" shape-rendering="crispEdges" style="fill:#ffe678;opacity:255;"></rect><rect id="51-56" x="500" y="550" width="10" height="10" shape-rendering="crispEdges" style="fill:#ffe678;opacity:255;"></rect><rect id="52-56" x="510" y="550" width="10" height="10" shape-rendering="crispEdges" style="fill:#ffe678;opacity:255;"></rect><rect id="53-56" x="520" y="550" width="10" height="10" shape-rendering="crispEdges" style="fill:#ffd51a;opacity:255;"></rect><rect id="54-56" x="530" y="550" width="10" height="10" shape-rendering="crispEdges" style="fill:#ffd51a;opacity:255;"></rect><rect id="55-56" x="540" y="550" width="10" height="10" shape-rendering="crispEdges" style="fill:#ffd51a;opacity:255;"></rect><rect id="56-56" x="550" y="550" width="10" height="10" shape-rendering="crispEdges" style="fill:#d3b221;opacity:255;"></rect><rect id="57-56" x="560" y="550" width="10" height="10" shape-rendering="crispEdges" style="fill:#000000;opacity:255;"></rect><rect id="43-57" x="420" y="560" width="10" height="10" shape-rendering="crispEdges" style="fill:#000000;opacity:255;"></rect><rect id="44-57" x="430" y="560" width="10" height="10" shape-rendering="crispEdges" style="fill:#ffffff;opacity:255;"></rect><rect id="45-57" x="440" y="560" width="10" height="10" shape-rendering="crispEdges" style="fill:#ffffff;opacity:255;"></rect><rect id="46-57" x="450" y="560" width="10" height="10" shape-rendering="crispEdges" style="fill:#ffe678;opacity:255;"></rect><rect id="47-57" x="460" y="560" width="10" height="10" shape-rendering="crispEdges" style="fill:#ffe678;opacity:255;"></rect><rect id="48-57" x="470" y="560" width="10" height="10" shape-rendering="crispEdges" style="fill:#ffe678;opacity:255;"></rect><rect id="49-57" x="480" y="560" width="10" height="10" shape-rendering="crispEdges" style="fill:#ffe678;opacity:255;"></rect><rect id="50-57" x="490" y="560" width="10" height="10" shape-rendering="crispEdges" style="fill:#ffd51a;opacity:255;"></rect><rect id="51-57" x="500" y="560" width="10" height="10" shape-rendering="crispEdges" style="fill:#ffd51a;opacity:255;"></rect><rect id="52-57" x="510" y="560" width="10" height="10" shape-rendering="crispEdges" style="fill:#ffd51a;opacity:255;"></rect><rect id="53-57" x="520" y="560" width="10" height="10" shape-rendering="crispEdges" style="fill:#ffd51a;opacity:255;"></rect><rect id="54-57" x="530" y="560" width="10" height="10" shape-rendering="crispEdges" style="fill:#ffd51a;opacity:255;"></rect><rect id="55-57" x="540" y="560" width="10" height="10" shape-rendering="crispEdges" style="fill:#000000;opacity:255;"></rect><rect id="56-57" x="550" y="560" width="10" height="10" shape-rendering="crispEdges" style="fill:#000000;opacity:255;"></rect><rect id="43-58" x="420" y="570" width="10" height="10" shape-rendering="crispEdges" style="fill:#000000;opacity:255;"></rect><rect id="44-58" x="430" y="570" width="10" height="10" shape-rendering="crispEdges" style="fill:#ffffff;opacity:255;"></rect><rect id="45-58" x="440" y="570" width="10" height="10" shape-rendering="crispEdges" style="fill:#ffe678;opacity:255;"></rect><rect id="46-58" x="450" y="570" width="10" height="10" shape-rendering="crispEdges" style="fill:#ffd51a;opacity:255;"></rect><rect id="47-58" x="460" y="570" width="10" height="10" shape-rendering="crispEdges" style="fill:#ffd51a;opacity:255;"></rect><rect id="48-58" x="470" y="570" width="10" height="10" shape-rendering="crispEdges" style="fill:#ffd51a;opacity:255;"></rect><rect id="49-58" x="480" y="570" width="10" height="10" shape-rendering="crispEdges" style="fill:#ffd51a;opacity:255;"></rect><rect id="50-58" x="490" y="570" width="10" height="10" shape-rendering="crispEdges" style="fill:#ffd51a;opacity:255;"></rect><rect id="51-58" x="500" y="570" width="10" height="10" shape-rendering="crispEdges" style="fill:#ffd51a;opacity:255;"></rect><rect id="52-58" x="510" y="570" width="10" height="10" shape-rendering="crispEdges" style="fill:#ffd51a;opacity:255;"></rect><rect id="53-58" x="520" y="570" width="10" height="10" shape-rendering="crispEdges" style="fill:#ffd51a;opacity:255;"></rect><rect id="54-58" x="530" y="570" width="10" height="10" shape-rendering="crispEdges" style="fill:#ffd51a;opacity:255;"></rect><rect id="55-58" x="540" y="570" width="10" height="10" shape-rendering="crispEdges" style="fill:#ffd51a;opacity:255;"></rect><rect id="56-58" x="550" y="570" width="10" height="10" shape-rendering="crispEdges" style="fill:#ffd51a;opacity:255;"></rect><rect id="57-58" x="560" y="570" width="10" height="10" shape-rendering="crispEdges" style="fill:#000000;opacity:255;"></rect><rect id="44-59" x="430" y="580" width="10" height="10" shape-rendering="crispEdges" style="fill:#000000;opacity:255;"></rect><rect id="45-59" x="440" y="580" width="10" height="10" shape-rendering="crispEdges" style="fill:#000000;opacity:255;"></rect><rect id="46-59" x="450" y="580" width="10" height="10" shape-rendering="crispEdges" style="fill:#000000;opacity:255;"></rect><rect id="47-59" x="460" y="580" width="10" height="10" shape-rendering="crispEdges" style="fill:#000000;opacity:255;"></rect><rect id="48-59" x="470" y="580" width="10" height="10" shape-rendering="crispEdges" style="fill:#000000;opacity:255;"></rect><rect id="49-59" x="480" y="580" width="10" height="10" shape-rendering="crispEdges" style="fill:#000000;opacity:255;"></rect><rect id="50-59" x="490" y="580" width="10" height="10" shape-rendering="crispEdges" style="fill:#000000;opacity:255;"></rect><rect id="51-59" x="500" y="580" width="10" height="10" shape-rendering="crispEdges" style="fill:#000000;opacity:255;"></rect><rect id="52-59" x="510" y="580" width="10" height="10" shape-rendering="crispEdges" style="fill:#000000;opacity:255;"></rect><rect id="53-59" x="520" y="580" width="10" height="10" shape-rendering="crispEdges" style="fill:#000000;opacity:255;"></rect><rect id="54-59" x="530" y="580" width="10" height="10" shape-rendering="crispEdges" style="fill:#ffd51a;opacity:255;"></rect><rect id="55-59" x="540" y="580" width="10" height="10" shape-rendering="crispEdges" style="fill:#ffd51a;opacity:255;"></rect><rect id="56-59" x="550" y="580" width="10" height="10" shape-rendering="crispEdges" style="fill:#ffd51a;opacity:255;"></rect><rect id="57-59" x="560" y="580" width="10" height="10" shape-rendering="crispEdges" style="fill:#ffd51a;opacity:255;"></rect><rect id="58-59" x="570" y="580" width="10" height="10" shape-rendering="crispEdges" style="fill:#000000;opacity:255;"></rect><rect id="54-60" x="530" y="590" width="10" height="10" shape-rendering="crispEdges" style="fill:#000000;opacity:255;"></rect><rect id="55-60" x="540" y="590" width="10" height="10" shape-rendering="crispEdges" style="fill:#ffd51a;opacity:255;"></rect><rect id="56-60" x="550" y="590" width="10" height="10" shape-rendering="crispEdges" style="fill:#ffd51a;opacity:255;"></rect><rect id="57-60" x="560" y="590" width="10" height="10" shape-rendering="crispEdges" style="fill:#ffd51a;opacity:255;"></rect><rect id="58-60" x="570" y="590" width="10" height="10" shape-rendering="crispEdges" style="fill:#ffd51a;opacity:255;"></rect><rect id="59-60" x="580" y="590" width="10" height="10" shape-rendering="crispEdges" style="fill:#000000;opacity:255;"></rect><rect id="55-61" x="540" y="600" width="10" height="10" shape-rendering="crispEdges" style="fill:#000000;opacity:255;"></rect><rect id="56-61" x="550" y="600" width="10" height="10" shape-rendering="crispEdges" style="fill:#ffd51a;opacity:255;"></rect><rect id="57-61" x="560" y="600" width="10" height="10" shape-rendering="crispEdges" style="fill:#ffd51a;opacity:255;"></rect><rect id="58-61" x="570" y="600" width="10" height="10" shape-rendering="crispEdges" style="fill:#ffd51a;opacity:255;"></rect><rect id="59-61" x="580" y="600" width="10" height="10" shape-rendering="crispEdges" style="fill:#000000;opacity:255;"></rect><rect id="56-62" x="550" y="610" width="10" height="10" shape-rendering="crispEdges" style="fill:#000000;opacity:255;"></rect><rect id="57-62" x="560" y="610" width="10" height="10" shape-rendering="crispEdges" style="fill:#ffd51a;opacity:255;"></rect><rect id="58-62" x="570" y="610" width="10" height="10" shape-rendering="crispEdges" style="fill:#ffd51a;opacity:255;"></rect><rect id="59-62" x="580" y="610" width="10" height="10" shape-rendering="crispEdges" style="fill:#ffd51a;opacity:255;"></rect><rect id="60-62" x="590" y="610" width="10" height="10" shape-rendering="crispEdges" style="fill:#000000;opacity:255;"></rect><rect id="56-63" x="550" y="620" width="10" height="10" shape-rendering="crispEdges" style="fill:#000000;opacity:255;"></rect><rect id="57-63" x="560" y="620" width="10" height="10" shape-rendering="crispEdges" style="fill:#ffd51a;opacity:255;"></rect><rect id="58-63" x="570" y="620" width="10" height="10" shape-rendering="crispEdges" style="fill:#ffd51a;opacity:255;"></rect><rect id="59-63" x="580" y="620" width="10" height="10" shape-rendering="crispEdges" style="fill:#ffd51a;opacity:255;"></rect><rect id="60-63" x="590" y="620" width="10" height="10" shape-rendering="crispEdges" style="fill:#000000;opacity:255;"></rect><rect id="56-64" x="550" y="630" width="10" height="10" shape-rendering="crispEdges" style="fill:#000000;opacity:255;"></rect><rect id="57-64" x="560" y="630" width="10" height="10" shape-rendering="crispEdges" style="fill:#ffd51a;opacity:255;"></rect><rect id="58-64" x="570" y="630" width="10" height="10" shape-rendering="crispEdges" style="fill:#ffd51a;opacity:255;"></rect><rect id="59-64" x="580" y="630" width="10" height="10" shape-rendering="crispEdges" style="fill:#ffd51a;opacity:255;"></rect><rect id="60-64" x="590" y="630" width="10" height="10" shape-rendering="crispEdges" style="fill:#000000;opacity:255;"></rect><rect id="44-65" x="430" y="640" width="10" height="10" shape-rendering="crispEdges" style="fill:#000000;opacity:255;"></rect><rect id="45-65" x="440" y="640" width="10" height="10" shape-rendering="crispEdges" style="fill:#000000;opacity:255;"></rect><rect id="46-65" x="450" y="640" width="10" height="10" shape-rendering="crispEdges" style="fill:#000000;opacity:255;"></rect><rect id="47-65" x="460" y="640" width="10" height="10" shape-rendering="crispEdges" style="fill:#000000;opacity:255;"></rect><rect id="48-65" x="470" y="640" width="10" height="10" shape-rendering="crispEdges" style="fill:#000000;opacity:255;"></rect><rect id="49-65" x="480" y="640" width="10" height="10" shape-rendering="crispEdges" style="fill:#000000;opacity:255;"></rect><rect id="50-65" x="490" y="640" width="10" height="10" shape-rendering="crispEdges" style="fill:#000000;opacity:255;"></rect><rect id="56-65" x="550" y="640" width="10" height="10" shape-rendering="crispEdges" style="fill:#000000;opacity:255;"></rect><rect id="57-65" x="560" y="640" width="10" height="10" shape-rendering="crispEdges" style="fill:#ffd51a;opacity:255;"></rect><rect id="58-65" x="570" y="640" width="10" height="10" shape-rendering="crispEdges" style="fill:#ffd51a;opacity:255;"></rect><rect id="59-65" x="580" y="640" width="10" height="10" shape-rendering="crispEdges" style="fill:#d3b221;opacity:255;"></rect><rect id="60-65" x="590" y="640" width="10" height="10" shape-rendering="crispEdges" style="fill:#000000;opacity:255;"></rect><rect id="43-66" x="420" y="650" width="10" height="10" shape-rendering="crispEdges" style="fill:#000000;opacity:255;"></rect><rect id="44-66" x="430" y="650" width="10" height="10" shape-rendering="crispEdges" style="fill:#ffffff;opacity:255;"></rect><rect id="45-66" x="440" y="650" width="10" height="10" shape-rendering="crispEdges" style="fill:#ffffff;opacity:255;"></rect><rect id="46-66" x="450" y="650" width="10" height="10" shape-rendering="crispEdges" style="fill:#ffffff;opacity:255;"></rect><rect id="47-66" x="460" y="650" width="10" height="10" shape-rendering="crispEdges" style="fill:#ffe678;opacity:255;"></rect><rect id="48-66" x="470" y="650" width="10" height="10" shape-rendering="crispEdges" style="fill:#ffe678;opacity:255;"></rect><rect id="49-66" x="480" y="650" width="10" height="10" shape-rendering="crispEdges" style="fill:#ffe678;opacity:255;"></rect><rect id="50-66" x="490" y="650" width="10" height="10" shape-rendering="crispEdges" style="fill:#ffe678;opacity:255;"></rect><rect id="51-66" x="500" y="650" width="10" height="10" shape-rendering="crispEdges" style="fill:#000000;opacity:255;"></rect><rect id="52-66" x="510" y="650" width="10" height="10" shape-rendering="crispEdges" style="fill:#000000;opacity:255;"></rect><rect id="53-66" x="520" y="650" width="10" height="10" shape-rendering="crispEdges" style="fill:#000000;opacity:255;"></rect><rect id="54-66" x="530" y="650" width="10" height="10" shape-rendering="crispEdges" style="fill:#000000;opacity:255;"></rect><rect id="55-66" x="540" y="650" width="10" height="10" shape-rendering="crispEdges" style="fill:#000000;opacity:255;"></rect><rect id="56-66" x="550" y="650" width="10" height="10" shape-rendering="crispEdges" style="fill:#ffd51a;opacity:255;"></rect><rect id="57-66" x="560" y="650" width="10" height="10" shape-rendering="crispEdges" style="fill:#ffd51a;opacity:255;"></rect><rect id="58-66" x="570" y="650" width="10" height="10" shape-rendering="crispEdges" style="fill:#ffd51a;opacity:255;"></rect><rect id="59-66" x="580" y="650" width="10" height="10" shape-rendering="crispEdges" style="fill:#d3b221;opacity:255;"></rect><rect id="60-66" x="590" y="650" width="10" height="10" shape-rendering="crispEdges" style="fill:#000000;opacity:255;"></rect><rect id="43-67" x="420" y="660" width="10" height="10" shape-rendering="crispEdges" style="fill:#000000;opacity:255;"></rect><rect id="44-67" x="430" y="660" width="10" height="10" shape-rendering="crispEdges" style="fill:#ffffff;opacity:255;"></rect><rect id="45-67" x="440" y="660" width="10" height="10" shape-rendering="crispEdges" style="fill:#ffffff;opacity:255;"></rect><rect id="46-67" x="450" y="660" width="10" height="10" shape-rendering="crispEdges" style="fill:#ffe678;opacity:255;"></rect><rect id="47-67" x="460" y="660" width="10" height="10" shape-rendering="crispEdges" style="fill:#ffe678;opacity:255;"></rect><rect id="48-67" x="470" y="660" width="10" height="10" shape-rendering="crispEdges" style="fill:#ffd51a;opacity:255;"></rect><rect id="49-67" x="480" y="660" width="10" height="10" shape-rendering="crispEdges" style="fill:#ffd51a;opacity:255;"></rect><rect id="50-67" x="490" y="660" width="10" height="10" shape-rendering="crispEdges" style="fill:#ffe678;opacity:255;"></rect><rect id="51-67" x="500" y="660" width="10" height="10" shape-rendering="crispEdges" style="fill:#ffe678;opacity:255;"></rect><rect id="52-67" x="510" y="660" width="10" height="10" shape-rendering="crispEdges" style="fill:#ffe678;opacity:255;"></rect><rect id="53-67" x="520" y="660" width="10" height="10" shape-rendering="crispEdges" style="fill:#ffd51a;opacity:255;"></rect><rect id="54-67" x="530" y="660" width="10" height="10" shape-rendering="crispEdges" style="fill:#ffd51a;opacity:255;"></rect><rect id="55-67" x="540" y="660" width="10" height="10" shape-rendering="crispEdges" style="fill:#ffd51a;opacity:255;"></rect><rect id="56-67" x="550" y="660" width="10" height="10" shape-rendering="crispEdges" style="fill:#ffd51a;opacity:255;"></rect><rect id="57-67" x="560" y="660" width="10" height="10" shape-rendering="crispEdges" style="fill:#d3b221;opacity:255;"></rect><rect id="58-67" x="570" y="660" width="10" height="10" shape-rendering="crispEdges" style="fill:#d3b221;opacity:255;"></rect><rect id="59-67" x="580" y="660" width="10" height="10" shape-rendering="crispEdges" style="fill:#000000;opacity:255;"></rect><rect id="60-67" x="590" y="660" width="10" height="10" shape-rendering="crispEdges" style="fill:#000000;opacity:255;"></rect><rect id="43-68" x="420" y="670" width="10" height="10" shape-rendering="crispEdges" style="fill:#000000;opacity:255;"></rect><rect id="44-68" x="430" y="670" width="10" height="10" shape-rendering="crispEdges" style="fill:#ffffff;opacity:255;"></rect><rect id="45-68" x="440" y="670" width="10" height="10" shape-rendering="crispEdges" style="fill:#ffe678;opacity:255;"></rect><rect id="46-68" x="450" y="670" width="10" height="10" shape-rendering="crispEdges" style="fill:#ffe678;opacity:255;"></rect><rect id="47-68" x="460" y="670" width="10" height="10" shape-rendering="crispEdges" style="fill:#ffd51a;opacity:255;"></rect><rect id="48-68" x="470" y="670" width="10" height="10" shape-rendering="crispEdges" style="fill:#ffd51a;opacity:255;"></rect><rect id="49-68" x="480" y="670" width="10" height="10" shape-rendering="crispEdges" style="fill:#ffd51a;opacity:255;"></rect><rect id="50-68" x="490" y="670" width="10" height="10" shape-rendering="crispEdges" style="fill:#ffd51a;opacity:255;"></rect><rect id="51-68" x="500" y="670" width="10" height="10" shape-rendering="crispEdges" style="fill:#ffd51a;opacity:255;"></rect><rect id="52-68" x="510" y="670" width="10" height="10" shape-rendering="crispEdges" style="fill:#ffd51a;opacity:255;"></rect><rect id="53-68" x="520" y="670" width="10" height="10" shape-rendering="crispEdges" style="fill:#d3b221;opacity:255;"></rect><rect id="54-68" x="530" y="670" width="10" height="10" shape-rendering="crispEdges" style="fill:#d3b221;opacity:255;"></rect><rect id="55-68" x="540" y="670" width="10" height="10" shape-rendering="crispEdges" style="fill:#d3b221;opacity:255;"></rect><rect id="56-68" x="550" y="670" width="10" height="10" shape-rendering="crispEdges" style="fill:#d3b221;opacity:255;"></rect><rect id="57-68" x="560" y="670" width="10" height="10" shape-rendering="crispEdges" style="fill:#000000;opacity:255;"></rect><rect id="58-68" x="570" y="670" width="10" height="10" shape-rendering="crispEdges" style="fill:#000000;opacity:255;"></rect><rect id="44-69" x="430" y="680" width="10" height="10" shape-rendering="crispEdges" style="fill:#000000;opacity:255;"></rect><rect id="45-69" x="440" y="680" width="10" height="10" shape-rendering="crispEdges" style="fill:#000000;opacity:255;"></rect><rect id="46-69" x="450" y="680" width="10" height="10" shape-rendering="crispEdges" style="fill:#000000;opacity:255;"></rect><rect id="47-69" x="460" y="680" width="10" height="10" shape-rendering="crispEdges" style="fill:#000000;opacity:255;"></rect><rect id="48-69" x="470" y="680" width="10" height="10" shape-rendering="crispEdges" style="fill:#000000;opacity:255;"></rect><rect id="49-69" x="480" y="680" width="10" height="10" shape-rendering="crispEdges" style="fill:#ffd51a;opacity:255;"></rect><rect id="50-69" x="490" y="680" width="10" height="10" shape-rendering="crispEdges" style="fill:#ffd51a;opacity:255;"></rect><rect id="51-69" x="500" y="680" width="10" height="10" shape-rendering="crispEdges" style="fill:#ffd51a;opacity:255;"></rect><rect id="52-69" x="510" y="680" width="10" height="10" shape-rendering="crispEdges" style="fill:#d3b221;opacity:255;"></rect><rect id="53-69" x="520" y="680" width="10" height="10" shape-rendering="crispEdges" style="fill:#000000;opacity:255;"></rect><rect id="54-69" x="530" y="680" width="10" height="10" shape-rendering="crispEdges" style="fill:#000000;opacity:255;"></rect><rect id="55-69" x="540" y="680" width="10" height="10" shape-rendering="crispEdges" style="fill:#000000;opacity:255;"></rect><rect id="56-69" x="550" y="680" width="10" height="10" shape-rendering="crispEdges" style="fill:#000000;opacity:255;"></rect><rect id="57-69" x="560" y="680" width="10" height="10" shape-rendering="crispEdges" style="fill:#000000;opacity:255;"></rect><rect id="49-70" x="480" y="690" width="10" height="10" shape-rendering="crispEdges" style="fill:#000000;opacity:255;"></rect><rect id="50-70" x="490" y="690" width="10" height="10" shape-rendering="crispEdges" style="fill:#000000;opacity:255;"></rect><rect id="51-70" x="500" y="690" width="10" height="10" shape-rendering="crispEdges" style="fill:#000000;opacity:255;"></rect><rect id="52-70" x="510" y="690" width="10" height="10" shape-rendering="crispEdges" style="fill:#000000;opacity:255;"></rect></svg>