<?xml version="1.0" encoding="UTF-8" standalone="no"?><svg xmlns="http://www.w3.org/2000/svg" id="numbers-2" width="1200" height="1200" viewBox="0 0 1200 1200" preserveAspectRatio="xMidYMid meet" rendering="crispEdges"><rect id="50-47" x="490" y="460" width="10" height="10" shape-rendering="crispEdges" style="fill:#000000;opacity:255;"></rect><rect id="51-47" x="500" y="460" width="10" height="10" shape-rendering="crispEdges" style="fill:#000000;opacity:255;"></rect><rect id="52-47" x="510" y="460" width="10" height="10" shape-rendering="crispEdges" style="fill:#000000;opacity:255;"></rect><rect id="53-47" x="520" y="460" width="10" height="10" shape-rendering="crispEdges" style="fill:#000000;opacity:255;"></rect><rect id="54-47" x="530" y="460" width="10" height="10" shape-rendering="crispEdges" style="fill:#000000;opacity:255;"></rect><rect id="55-47" x="540" y="460" width="10" height="10" shape-rendering="crispEdges" style="fill:#000000;opacity:255;"></rect><rect id="56-47" x="550" y="460" width="10" height="10" shape-rendering="crispEdges" style="fill:#000000;opacity:255;"></rect><rect id="48-48" x="470" y="470" width="10" height="10" shape-rendering="crispEdges" style="fill:#000000;opacity:255;"></rect><rect id="49-48" x="480" y="470" width="10" height="10" shape-rendering="crispEdges" style="fill:#000000;opacity:255;"></rect><rect id="50-48" x="490" y="470" width="10" height="10" shape-rendering="crispEdges" style="fill:#ffffff;opacity:255;"></rect><rect id="51-48" x="500" y="470" width="10" height="10" shape-rendering="crispEdges" style="fill:#b3afaf;opacity:255;"></rect><rect id="52-48" x="510" y="470" width="10" height="10" shape-rendering="crispEdges" style="fill:#b3afaf;opacity:255;"></rect><rect id="53-48" x="520" y="470" width="10" height="10" shape-rendering="crispEdges" style="fill:#b3afaf;opacity:255;"></rect><rect id="54-48" x="530" y="470" width="10" height="10" shape-rendering="crispEdges" style="fill:#b3afaf;opacity:255;"></rect><rect id="55-48" x="540" y="470" width="10" height="10" shape-rendering="crispEdges" style="fill:#868686;opacity:255;"></rect><rect id="56-48" x="550" y="470" width="10" height="10" shape-rendering="crispEdges" style="fill:#868686;opacity:255;"></rect><rect id="57-48" x="560" y="470" width="10" height="10" shape-rendering="crispEdges" style="fill:#000000;opacity:255;"></rect><rect id="58-48" x="570" y="470" width="10" height="10" shape-rendering="crispEdges" style="fill:#000000;opacity:255;"></rect><rect id="46-49" x="450" y="480" width="10" height="10" shape-rendering="crispEdges" style="fill:#000000;opacity:255;"></rect><rect id="47-49" x="460" y="480" width="10" height="10" shape-rendering="crispEdges" style="fill:#000000;opacity:255;"></rect><rect id="48-49" x="470" y="480" width="10" height="10" shape-rendering="crispEdges" style="fill:#ffffff;opacity:255;"></rect><rect id="49-49" x="480" y="480" width="10" height="10" shape-rendering="crispEdges" style="fill:#b3afaf;opacity:255;"></rect><rect id="50-49" x="490" y="480" width="10" height="10" shape-rendering="crispEdges" style="fill:#b3afaf;opacity:255;"></rect><rect id="51-49" x="500" y="480" width="10" height="10" shape-rendering="crispEdges" style="fill:#868686;opacity:255;"></rect><rect id="52-49" x="510" y="480" width="10" height="10" shape-rendering="crispEdges" style="fill:#868686;opacity:255;"></rect><rect id="53-49" x="520" y="480" width="10" height="10" shape-rendering="crispEdges" style="fill:#868686;opacity:255;"></rect><rect id="54-49" x="530" y="480" width="10" height="10" shape-rendering="crispEdges" style="fill:#868686;opacity:255;"></rect><rect id="55-49" x="540" y="480" width="10" height="10" shape-rendering="crispEdges" style="fill:#868686;opacity:255;"></rect><rect id="56-49" x="550" y="480" width="10" height="10" shape-rendering="crispEdges" style="fill:#868686;opacity:255;"></rect><rect id="57-49" x="560" y="480" width="10" height="10" shape-rendering="crispEdges" style="fill:#868686;opacity:255;"></rect><rect id="58-49" x="570" y="480" width="10" height="10" shape-rendering="crispEdges" style="fill:#000000;opacity:255;"></rect><rect id="45-50" x="440" y="490" width="10" height="10" shape-rendering="crispEdges" style="fill:#000000;opacity:255;"></rect><rect id="46-50" x="450" y="490" width="10" height="10" shape-rendering="crispEdges" style="fill:#ffffff;opacity:255;"></rect><rect id="47-50" x="460" y="490" width="10" height="10" shape-rendering="crispEdges" style="fill:#b3afaf;opacity:255;"></rect><rect id="48-50" x="470" y="490" width="10" height="10" shape-rendering="crispEdges" style="fill:#b3afaf;opacity:255;"></rect><rect id="49-50" x="480" y="490" width="10" height="10" shape-rendering="crispEdges" style="fill:#868686;opacity:255;"></rect><rect id="50-50" x="490" y="490" width="10" height="10" shape-rendering="crispEdges" style="fill:#868686;opacity:255;"></rect><rect id="51-50" x="500" y="490" width="10" height="10" shape-rendering="crispEdges" style="fill:#000000;opacity:255;"></rect><rect id="52-50" x="510" y="490" width="10" height="10" shape-rendering="crispEdges" style="fill:#000000;opacity:255;"></rect><rect id="53-50" x="520" y="490" width="10" height="10" shape-rendering="crispEdges" style="fill:#000000;opacity:255;"></rect><rect id="54-50" x="530" y="490" width="10" height="10" shape-rendering="crispEdges" style="fill:#000000;opacity:255;"></rect><rect id="55-50" x="540" y="490" width="10" height="10" shape-rendering="crispEdges" style="fill:#000000;opacity:255;"></rect><rect id="56-50" x="550" y="490" width="10" height="10" shape-rendering="crispEdges" style="fill:#868686;opacity:255;"></rect><rect id="57-50" x="560" y="490" width="10" height="10" shape-rendering="crispEdges" style="fill:#868686;opacity:255;"></rect><rect id="58-50" x="570" y="490" width="10" height="10" shape-rendering="crispEdges" style="fill:#868686;opacity:255;"></rect><rect id="59-50" x="580" y="490" width="10" height="10" shape-rendering="crispEdges" style="fill:#000000;opacity:255;"></rect><rect id="44-51" x="430" y="500" width="10" height="10" shape-rendering="crispEdges" style="fill:#000000;opacity:255;"></rect><rect id="45-51" x="440" y="500" width="10" height="10" shape-rendering="crispEdges" style="fill:#000000;opacity:255;"></rect><rect id="46-51" x="450" y="500" width="10" height="10" shape-rendering="crispEdges" style="fill:#ffffff;opacity:255;"></rect><rect id="47-51" x="460" y="500" width="10" height="10" shape-rendering="crispEdges" style="fill:#b3afaf;opacity:255;"></rect><rect id="48-51" x="470" y="500" width="10" height="10" shape-rendering="crispEdges" style="fill:#868686;opacity:255;"></rect><rect id="49-51" x="480" y="500" width="10" height="10" shape-rendering="crispEdges" style="fill:#000000;opacity:255;"></rect><rect id="50-51" x="490" y="500" width="10" height="10" shape-rendering="crispEdges" style="fill:#000000;opacity:255;"></rect><rect id="56-51" x="550" y="500" width="10" height="10" shape-rendering="crispEdges" style="fill:#000000;opacity:255;"></rect><rect id="57-51" x="560" y="500" width="10" height="10" shape-rendering="crispEdges" style="fill:#868686;opacity:255;"></rect><rect id="58-51" x="570" y="500" width="10" height="10" shape-rendering="crispEdges" style="fill:#868686;opacity:255;"></rect><rect id="59-51" x="580" y="500" width="10" height="10" shape-rendering="crispEdges" style="fill:#000000;opacity:255;"></rect><rect id="44-52" x="430" y="510" width="10" height="10" shape-rendering="crispEdges" style="fill:#000000;opacity:255;"></rect><rect id="45-52" x="440" y="510" width="10" height="10" shape-rendering="crispEdges" style="fill:#ffffff;opacity:255;"></rect><rect id="46-52" x="450" y="510" width="10" height="10" shape-rendering="crispEdges" style="fill:#b3afaf;opacity:255;"></rect><rect id="47-52" x="460" y="510" width="10" height="10" shape-rendering="crispEdges" style="fill:#868686;opacity:255;"></rect><rect id="48-52" x="470" y="510" width="10" height="10" shape-rendering="crispEdges" style="fill:#000000;opacity:255;"></rect><rect id="56-52" x="550" y="510" width="10" height="10" shape-rendering="crispEdges" style="fill:#000000;opacity:255;"></rect><rect id="57-52" x="560" y="510" width="10" height="10" shape-rendering="crispEdges" style="fill:#868686;opacity:255;"></rect><rect id="58-52" x="570" y="510" width="10" height="10" shape-rendering="crispEdges" style="fill:#868686;opacity:255;"></rect><rect id="59-52" x="580" y="510" width="10" height="10" shape-rendering="crispEdges" style="fill:#000000;opacity:255;"></rect><rect id="44-53" x="430" y="520" width="10" height="10" shape-rendering="crispEdges" style="fill:#000000;opacity:255;"></rect><rect id="45-53" x="440" y="520" width="10" height="10" shape-rendering="crispEdges" style="fill:#b3afaf;opacity:255;"></rect><rect id="46-53" x="450" y="520" width="10" height="10" shape-rendering="crispEdges" style="fill:#b3afaf;opacity:255;"></rect><rect id="47-53" x="460" y="520" width="10" height="10" shape-rendering="crispEdges" style="fill:#868686;opacity:255;"></rect><rect id="48-53" x="470" y="520" width="10" height="10" shape-rendering="crispEdges" style="fill:#000000;opacity:255;"></rect><rect id="56-53" x="550" y="520" width="10" height="10" shape-rendering="crispEdges" style="fill:#000000;opacity:255;"></rect><rect id="57-53" x="560" y="520" width="10" height="10" shape-rendering="crispEdges" style="fill:#868686;opacity:255;"></rect><rect id="58-53" x="570" y="520" width="10" height="10" shape-rendering="crispEdges" style="fill:#868686;opacity:255;"></rect><rect id="59-53" x="580" y="520" width="10" height="10" shape-rendering="crispEdges" style="fill:#736e6e;opacity:255;"></rect><rect id="60-53" x="590" y="520" width="10" height="10" shape-rendering="crispEdges" style="fill:#000000;opacity:255;"></rect><rect id="44-54" x="430" y="530" width="10" height="10" shape-rendering="crispEdges" style="fill:#000000;opacity:255;"></rect><rect id="45-54" x="440" y="530" width="10" height="10" shape-rendering="crispEdges" style="fill:#b3afaf;opacity:255;"></rect><rect id="46-54" x="450" y="530" width="10" height="10" shape-rendering="crispEdges" style="fill:#868686;opacity:255;"></rect><rect id="47-54" x="460" y="530" width="10" height="10" shape-rendering="crispEdges" style="fill:#000000;opacity:255;"></rect><rect id="56-54" x="550" y="530" width="10" height="10" shape-rendering="crispEdges" style="fill:#000000;opacity:255;"></rect><rect id="57-54" x="560" y="530" width="10" height="10" shape-rendering="crispEdges" style="fill:#868686;opacity:255;"></rect><rect id="58-54" x="570" y="530" width="10" height="10" shape-rendering="crispEdges" style="fill:#868686;opacity:255;"></rect><rect id="59-54" x="580" y="530" width="10" height="10" shape-rendering="crispEdges" style="fill:#736e6e;opacity:255;"></rect><rect id="60-54" x="590" y="530" width="10" height="10" shape-rendering="crispEdges" style="fill:#000000;opacity:255;"></rect><rect id="45-55" x="440" y="540" width="10" height="10" shape-rendering="crispEdges" style="fill:#000000;opacity:255;"></rect><rect id="46-55" x="450" y="540" width="10" height="10" shape-rendering="crispEdges" style="fill:#000000;opacity:255;"></rect><rect id="56-55" x="550" y="540" width="10" height="10" shape-rendering="crispEdges" style="fill:#000000;opacity:255;"></rect><rect id="57-55" x="560" y="540" width="10" height="10" shape-rendering="crispEdges" style="fill:#868686;opacity:255;"></rect><rect id="58-55" x="570" y="540" width="10" height="10" shape-rendering="crispEdges" style="fill:#868686;opacity:255;"></rect><rect id="59-55" x="580" y="540" width="10" height="10" shape-rendering="crispEdges" style="fill:#736e6e;opacity:255;"></rect><rect id="60-55" x="590" y="540" width="10" height="10" shape-rendering="crispEdges" style="fill:#000000;opacity:255;"></rect><rect id="55-56" x="540" y="550" width="10" height="10" shape-rendering="crispEdges" style="fill:#000000;opacity:255;"></rect><rect id="56-56" x="550" y="550" width="10" height="10" shape-rendering="crispEdges" style="fill:#868686;opacity:255;"></rect><rect id="57-56" x="560" y="550" width="10" height="10" shape-rendering="crispEdges" style="fill:#868686;opacity:255;"></rect><rect id="58-56" x="570" y="550" width="10" height="10" shape-rendering="crispEdges" style="fill:#736e6e;opacity:255;"></rect><rect id="59-56" x="580" y="550" width="10" height="10" shape-rendering="crispEdges" style="fill:#000000;opacity:255;"></rect><rect id="55-57" x="540" y="560" width="10" height="10" shape-rendering="crispEdges" style="fill:#000000;opacity:255;"></rect><rect id="56-57" x="550" y="560" width="10" height="10" shape-rendering="crispEdges" style="fill:#868686;opacity:255;"></rect><rect id="57-57" x="560" y="560" width="10" height="10" shape-rendering="crispEdges" style="fill:#868686;opacity:255;"></rect><rect id="58-57" x="570" y="560" width="10" height="10" shape-rendering="crispEdges" style="fill:#736e6e;opacity:255;"></rect><rect id="59-57" x="580" y="560" width="10" height="10" shape-rendering="crispEdges" style="fill:#000000;opacity:255;"></rect><rect id="54-58" x="530" y="570" width="10" height="10" shape-rendering="crispEdges" style="fill:#000000;opacity:255;"></rect><rect id="55-58" x="540" y="570" width="10" height="10" shape-rendering="crispEdges" style="fill:#868686;opacity:255;"></rect><rect id="56-58" x="550" y="570" width="10" height="10" shape-rendering="crispEdges" style="fill:#868686;opacity:255;"></rect><rect id="57-58" x="560" y="570" width="10" height="10" shape-rendering="crispEdges" style="fill:#736e6e;opacity:255;"></rect><rect id="58-58" x="570" y="570" width="10" height="10" shape-rendering="crispEdges" style="fill:#000000;opacity:255;"></rect><rect id="59-58" x="580" y="570" width="10" height="10" shape-rendering="crispEdges" style="fill:#000000;opacity:255;"></rect><rect id="53-59" x="520" y="580" width="10" height="10" shape-rendering="crispEdges" style="fill:#000000;opacity:255;"></rect><rect id="54-59" x="530" y="580" width="10" height="10" shape-rendering="crispEdges" style="fill:#000000;opacity:255;"></rect><rect id="55-59" x="540" y="580" width="10" height="10" shape-rendering="crispEdges" style="fill:#868686;opacity:255;"></rect><rect id="56-59" x="550" y="580" width="10" height="10" shape-rendering="crispEdges" style="fill:#868686;opacity:255;"></rect><rect id="57-59" x="560" y="580" width="10" height="10" shape-rendering="crispEdges" style="fill:#000000;opacity:255;"></rect><rect id="51-60" x="500" y="590" width="10" height="10" shape-rendering="crispEdges" style="fill:#000000;opacity:255;"></rect><rect id="52-60" x="510" y="590" width="10" height="10" shape-rendering="crispEdges" style="fill:#000000;opacity:255;"></rect><rect id="53-60" x="520" y="590" width="10" height="10" shape-rendering="crispEdges" style="fill:#868686;opacity:255;"></rect><rect id="54-60" x="530" y="590" width="10" height="10" shape-rendering="crispEdges" style="fill:#868686;opacity:255;"></rect><rect id="55-60" x="540" y="590" width="10" height="10" shape-rendering="crispEdges" style="fill:#868686;opacity:255;"></rect><rect id="56-60" x="550" y="590" width="10" height="10" shape-rendering="crispEdges" style="fill:#736e6e;opacity:255;"></rect><rect id="57-60" x="560" y="590" width="10" height="10" shape-rendering="crispEdges" style="fill:#000000;opacity:255;"></rect><rect id="49-61" x="480" y="600" width="10" height="10" shape-rendering="crispEdges" style="fill:#000000;opacity:255;"></rect><rect id="50-61" x="490" y="600" width="10" height="10" shape-rendering="crispEdges" style="fill:#000000;opacity:255;"></rect><rect id="51-61" x="500" y="600" width="10" height="10" shape-rendering="crispEdges" style="fill:#868686;opacity:255;"></rect><rect id="52-61" x="510" y="600" width="10" height="10" shape-rendering="crispEdges" style="fill:#868686;opacity:255;"></rect><rect id="53-61" x="520" y="600" width="10" height="10" shape-rendering="crispEdges" style="fill:#868686;opacity:255;"></rect><rect id="54-61" x="530" y="600" width="10" height="10" shape-rendering="crispEdges" style="fill:#736e6e;opacity:255;"></rect><rect id="55-61" x="540" y="600" width="10" height="10" shape-rendering="crispEdges" style="fill:#000000;opacity:255;"></rect><rect id="56-61" x="550" y="600" width="10" height="10" shape-rendering="crispEdges" style="fill:#000000;opacity:255;"></rect><rect id="46-62" x="450" y="610" width="10" height="10" shape-rendering="crispEdges" style="fill:#000000;opacity:255;"></rect><rect id="47-62" x="460" y="610" width="10" height="10" shape-rendering="crispEdges" style="fill:#000000;opacity:255;"></rect><rect id="48-62" x="470" y="610" width="10" height="10" shape-rendering="crispEdges" style="fill:#000000;opacity:255;"></rect><rect id="49-62" x="480" y="610" width="10" height="10" shape-rendering="crispEdges" style="fill:#b3afaf;opacity:255;"></rect><rect id="50-62" x="490" y="610" width="10" height="10" shape-rendering="crispEdges" style="fill:#868686;opacity:255;"></rect><rect id="51-62" x="500" y="610" width="10" height="10" shape-rendering="crispEdges" style="fill:#868686;opacity:255;"></rect><rect id="52-62" x="510" y="610" width="10" height="10" shape-rendering="crispEdges" style="fill:#868686;opacity:255;"></rect><rect id="53-62" x="520" y="610" width="10" height="10" shape-rendering="crispEdges" style="fill:#000000;opacity:255;"></rect><rect id="54-62" x="530" y="610" width="10" height="10" shape-rendering="crispEdges" style="fill:#000000;opacity:255;"></rect><rect id="45-63" x="440" y="620" width="10" height="10" shape-rendering="crispEdges" style="fill:#000000;opacity:255;"></rect><rect id="46-63" x="450" y="620" width="10" height="10" shape-rendering="crispEdges" style="fill:#ffffff;opacity:255;"></rect><rect id="47-63" x="460" y="620" width="10" height="10" shape-rendering="crispEdges" style="fill:#b3afaf;opacity:255;"></rect><rect id="48-63" x="470" y="620" width="10" height="10" shape-rendering="crispEdges" style="fill:#b3afaf;opacity:255;"></rect><rect id="49-63" x="480" y="620" width="10" height="10" shape-rendering="crispEdges" style="fill:#868686;opacity:255;"></rect><rect id="50-63" x="490" y="620" width="10" height="10" shape-rendering="crispEdges" style="fill:#000000;opacity:255;"></rect><rect id="51-63" x="500" y="620" width="10" height="10" shape-rendering="crispEdges" style="fill:#000000;opacity:255;"></rect><rect id="52-63" x="510" y="620" width="10" height="10" shape-rendering="crispEdges" style="fill:#000000;opacity:255;"></rect><rect id="45-64" x="440" y="630" width="10" height="10" shape-rendering="crispEdges" style="fill:#000000;opacity:255;"></rect><rect id="46-64" x="450" y="630" width="10" height="10" shape-rendering="crispEdges" style="fill:#ffffff;opacity:255;"></rect><rect id="47-64" x="460" y="630" width="10" height="10" shape-rendering="crispEdges" style="fill:#b3afaf;opacity:255;"></rect><rect id="48-64" x="470" y="630" width="10" height="10" shape-rendering="crispEdges" style="fill:#868686;opacity:255;"></rect><rect id="49-64" x="480" y="630" width="10" height="10" shape-rendering="crispEdges" style="fill:#000000;opacity:255;"></rect><rect id="44-65" x="430" y="640" width="10" height="10" shape-rendering="crispEdges" style="fill:#000000;opacity:255;"></rect><rect id="45-65" x="440" y="640" width="10" height="10" shape-rendering="crispEdges" style="fill:#ffffff;opacity:255;"></rect><rect id="46-65" x="450" y="640" width="10" height="10" shape-rendering="crispEdges" style="fill:#b3afaf;opacity:255;"></rect><rect id="47-65" x="460" y="640" width="10" height="10" shape-rendering="crispEdges" style="fill:#b3afaf;opacity:255;"></rect><rect id="48-65" x="470" y="640" width="10" height="10" shape-rendering="crispEdges" style="fill:#868686;opacity:255;"></rect><rect id="49-65" x="480" y="640" width="10" height="10" shape-rendering="crispEdges" style="fill:#000000;opacity:255;"></rect><rect id="50-65" x="490" y="640" width="10" height="10" shape-rendering="crispEdges" style="fill:#000000;opacity:255;"></rect><rect id="51-65" x="500" y="640" width="10" height="10" shape-rendering="crispEdges" style="fill:#000000;opacity:255;"></rect><rect id="52-65" x="510" y="640" width="10" height="10" shape-rendering="crispEdges" style="fill:#000000;opacity:255;"></rect><rect id="53-65" x="520" y="640" width="10" height="10" shape-rendering="crispEdges" style="fill:#000000;opacity:255;"></rect><rect id="54-65" x="530" y="640" width="10" height="10" shape-rendering="crispEdges" style="fill:#000000;opacity:255;"></rect><rect id="55-65" x="540" y="640" width="10" height="10" shape-rendering="crispEdges" style="fill:#000000;opacity:255;"></rect><rect id="56-65" x="550" y="640" width="10" height="10" shape-rendering="crispEdges" style="fill:#000000;opacity:255;"></rect><rect id="57-65" x="560" y="640" width="10" height="10" shape-rendering="crispEdges" style="fill:#000000;opacity:255;"></rect><rect id="58-65" x="570" y="640" width="10" height="10" shape-rendering="crispEdges" style="fill:#000000;opacity:255;"></rect><rect id="59-65" x="580" y="640" width="10" height="10" shape-rendering="crispEdges" style="fill:#000000;opacity:255;"></rect><rect id="60-65" x="590" y="640" width="10" height="10" shape-rendering="crispEdges" style="fill:#000000;opacity:255;"></rect><rect id="44-66" x="430" y="650" width="10" height="10" shape-rendering="crispEdges" style="fill:#000000;opacity:255;"></rect><rect id="45-66" x="440" y="650" width="10" height="10" shape-rendering="crispEdges" style="fill:#b3afaf;opacity:255;"></rect><rect id="46-66" x="450" y="650" width="10" height="10" shape-rendering="crispEdges" style="fill:#b3afaf;opacity:255;"></rect><rect id="47-66" x="460" y="650" width="10" height="10" shape-rendering="crispEdges" style="fill:#868686;opacity:255;"></rect><rect id="48-66" x="470" y="650" width="10" height="10" shape-rendering="crispEdges" style="fill:#868686;opacity:255;"></rect><rect id="49-66" x="480" y="650" width="10" height="10" shape-rendering="crispEdges" style="fill:#868686;opacity:255;"></rect><rect id="50-66" x="490" y="650" width="10" height="10" shape-rendering="crispEdges" style="fill:#868686;opacity:255;"></rect><rect id="51-66" x="500" y="650" width="10" height="10" shape-rendering="crispEdges" style="fill:#868686;opacity:255;"></rect><rect id="52-66" x="510" y="650" width="10" height="10" shape-rendering="crispEdges" style="fill:#868686;opacity:255;"></rect><rect id="53-66" x="520" y="650" width="10" height="10" shape-rendering="crispEdges" style="fill:#868686;opacity:255;"></rect><rect id="54-66" x="530" y="650" width="10" height="10" shape-rendering="crispEdges" style="fill:#868686;opacity:255;"></rect><rect id="55-66" x="540" y="650" width="10" height="10" shape-rendering="crispEdges" style="fill:#868686;opacity:255;"></rect><rect id="56-66" x="550" y="650" width="10" height="10" shape-rendering="crispEdges" style="fill:#868686;opacity:255;"></rect><rect id="57-66" x="560" y="650" width="10" height="10" shape-rendering="crispEdges" style="fill:#868686;opacity:255;"></rect><rect id="58-66" x="570" y="650" width="10" height="10" shape-rendering="crispEdges" style="fill:#736e6e;opacity:255;"></rect><rect id="59-66" x="580" y="650" width="10" height="10" shape-rendering="crispEdges" style="fill:#736e6e;opacity:255;"></rect><rect id="60-66" x="590" y="650" width="10" height="10" shape-rendering="crispEdges" style="fill:#736e6e;opacity:255;"></rect><rect id="61-66" x="600" y="650" width="10" height="10" shape-rendering="crispEdges" style="fill:#000000;opacity:255;"></rect><rect id="44-67" x="430" y="660" width="10" height="10" shape-rendering="crispEdges" style="fill:#000000;opacity:255;"></rect><rect id="45-67" x="440" y="660" width="10" height="10" shape-rendering="crispEdges" style="fill:#b3afaf;opacity:255;"></rect><rect id="46-67" x="450" y="660" width="10" height="10" shape-rendering="crispEdges" style="fill:#b3afaf;opacity:255;"></rect><rect id="47-67" x="460" y="660" width="10" height="10" shape-rendering="crispEdges" style="fill:#b3afaf;opacity:255;"></rect><rect id="48-67" x="470" y="660" width="10" height="10" shape-rendering="crispEdges" style="fill:#b3afaf;opacity:255;"></rect><rect id="49-67" x="480" y="660" width="10" height="10" shape-rendering="crispEdges" style="fill:#b3afaf;opacity:255;"></rect><rect id="50-67" x="490" y="660" width="10" height="10" shape-rendering="crispEdges" style="fill:#868686;opacity:255;"></rect><rect id="51-67" x="500" y="660" width="10" height="10" shape-rendering="crispEdges" style="fill:#868686;opacity:255;"></rect><rect id="52-67" x="510" y="660" width="10" height="10" shape-rendering="crispEdges" style="fill:#868686;opacity:255;"></rect><rect id="53-67" x="520" y="660" width="10" height="10" shape-rendering="crispEdges" style="fill:#868686;opacity:255;"></rect><rect id="54-67" x="530" y="660" width="10" height="10" shape-rendering="crispEdges" style="fill:#868686;opacity:255;"></rect><rect id="55-67" x="540" y="660" width="10" height="10" shape-rendering="crispEdges" style="fill:#868686;opacity:255;"></rect><rect id="56-67" x="550" y="660" width="10" height="10" shape-rendering="crispEdges" style="fill:#868686;opacity:255;"></rect><rect id="57-67" x="560" y="660" width="10" height="10" shape-rendering="crispEdges" style="fill:#736e6e;opacity:255;"></rect><rect id="58-67" x="570" y="660" width="10" height="10" shape-rendering="crispEdges" style="fill:#736e6e;opacity:255;"></rect><rect id="59-67" x="580" y="660" width="10" height="10" shape-rendering="crispEdges" style="fill:#736e6e;opacity:255;"></rect><rect id="60-67" x="590" y="660" width="10" height="10" shape-rendering="crispEdges" style="fill:#736e6e;opacity:255;"></rect><rect id="61-67" x="600" y="660" width="10" height="10" shape-rendering="crispEdges" style="fill:#000000;opacity:255;"></rect><rect id="45-68" x="440" y="670" width="10" height="10" shape-rendering="crispEdges" style="fill:#000000;opacity:255;"></rect><rect id="46-68" x="450" y="670" width="10" height="10" shape-rendering="crispEdges" style="fill:#000000;opacity:255;"></rect><rect id="47-68" x="460" y="670" width="10" height="10" shape-rendering="crispEdges" style="fill:#000000;opacity:255;"></rect><rect id="48-68" x="470" y="670" width="10" height="10" shape-rendering="crispEdges" style="fill:#000000;opacity:255;"></rect><rect id="49-68" x="480" y="670" width="10" height="10" shape-rendering="crispEdges" style="fill:#000000;opacity:255;"></rect><rect id="50-68" x="490" y="670" width="10" height="10" shape-rendering="crispEdges" style="fill:#000000;opacity:255;"></rect><rect id="51-68" x="500" y="670" width="10" height="10" shape-rendering="crispEdges" style="fill:#000000;opacity:255;"></rect><rect id="52-68" x="510" y="670" width="10" height="10" shape-rendering="crispEdges" style="fill:#000000;opacity:255;"></rect><rect id="53-68" x="520" y="670" width="10" height="10" shape-rendering="crispEdges" style="fill:#000000;opacity:255;"></rect><rect id="54-68" x="530" y="670" width="10" height="10" shape-rendering="crispEdges" style="fill:#000000;opacity:255;"></rect><rect id="55-68" x="540" y="670" width="10" height="10" shape-rendering="crispEdges" style="fill:#000000;opacity:255;"></rect><rect id="56-68" x="550" y="670" width="10" height="10" shape-rendering="crispEdges" style="fill:#000000;opacity:255;"></rect><rect id="57-68" x="560" y="670" width="10" height="10" shape-rendering="crispEdges" style="fill:#000000;opacity:255;"></rect><rect id="58-68" x="570" y="670" width="10" height="10" shape-rendering="crispEdges" style="fill:#000000;opacity:255;"></rect><rect id="59-68" x="580" y="670" width="10" height="10" shape-rendering="crispEdges" style="fill:#000000;opacity:255;"></rect><rect id="60-68" x="590" y="670" width="10" height="10" shape-rendering="crispEdges" style="fill:#000000;opacity:255;"></rect></svg>