<svg xmlns="http://www.w3.org/2000/svg" id="img_6135" width="1920" height="1920" viewBox="0 0 1920 1920" preserveAspectRatio="xMidYMid meet" rendering="crispEdges"><rect id="8-11" x="420" y="600" width="60" height="60" shape-rendering="crispEdges" style="fill:#ffd300;opacity:255;"></rect><rect id="9-11" x="480" y="600" width="60" height="60" shape-rendering="crispEdges" style="fill:#ffd300;opacity:255;"></rect><rect id="10-11" x="540" y="600" width="60" height="60" shape-rendering="crispEdges" style="fill:#ffd300;opacity:255;"></rect><rect id="11-11" x="600" y="600" width="60" height="60" shape-rendering="crispEdges" style="fill:#ffd300;opacity:255;"></rect><rect id="12-11" x="660" y="600" width="60" height="60" shape-rendering="crispEdges" style="fill:#ffd300;opacity:255;"></rect><rect id="13-11" x="720" y="600" width="60" height="60" shape-rendering="crispEdges" style="fill:#ffd300;opacity:255;"></rect><rect id="14-11" x="780" y="600" width="60" height="60" shape-rendering="crispEdges" style="fill:#ffd300;opacity:255;"></rect><rect id="15-11" x="840" y="600" width="60" height="60" shape-rendering="crispEdges" style="fill:#ffd300;opacity:255;"></rect><rect id="16-11" x="900" y="600" width="60" height="60" shape-rendering="crispEdges" style="fill:#ffd300;opacity:255;"></rect><rect id="17-11" x="960" y="600" width="60" height="60" shape-rendering="crispEdges" style="fill:#ffd300;opacity:255;"></rect><rect id="18-11" x="1020" y="600" width="60" height="60" shape-rendering="crispEdges" style="fill:#ffd300;opacity:255;"></rect><rect id="19-11" x="1080" y="600" width="60" height="60" shape-rendering="crispEdges" style="fill:#ffd300;opacity:255;"></rect><rect id="20-11" x="1140" y="600" width="60" height="60" shape-rendering="crispEdges" style="fill:#ffd300;opacity:255;"></rect><rect id="21-11" x="1200" y="600" width="60" height="60" shape-rendering="crispEdges" style="fill:#ffd300;opacity:255;"></rect><rect id="22-11" x="1260" y="600" width="60" height="60" shape-rendering="crispEdges" style="fill:#ffd300;opacity:255;"></rect><rect id="23-11" x="1320" y="600" width="60" height="60" shape-rendering="crispEdges" style="fill:#ffd300;opacity:255;"></rect><rect id="24-11" x="1380" y="600" width="60" height="60" shape-rendering="crispEdges" style="fill:#ffd300;opacity:255;"></rect><rect id="25-11" x="1440" y="600" width="60" height="60" shape-rendering="crispEdges" style="fill:#ffd300;opacity:255;"></rect><rect id="5-12" x="240" y="660" width="60" height="60" shape-rendering="crispEdges" style="fill:#ffd300;opacity:255;"></rect><rect id="6-12" x="300" y="660" width="60" height="60" shape-rendering="crispEdges" style="fill:#ffd300;opacity:255;"></rect><rect id="7-12" x="360" y="660" width="60" height="60" shape-rendering="crispEdges" style="fill:#ffd300;opacity:255;"></rect><rect id="8-12" x="420" y="660" width="60" height="60" shape-rendering="crispEdges" style="fill:#ffd300;opacity:255;"></rect><rect id="9-12" x="480" y="660" width="60" height="60" shape-rendering="crispEdges" style="fill:#d1a800;opacity:255;"></rect><rect id="10-12" x="540" y="660" width="60" height="60" shape-rendering="crispEdges" style="fill:#d1a800;opacity:255;"></rect><rect id="11-12" x="600" y="660" width="60" height="60" shape-rendering="crispEdges" style="fill:#d1a800;opacity:255;"></rect><rect id="12-12" x="660" y="660" width="60" height="60" shape-rendering="crispEdges" style="fill:#d1a800;opacity:255;"></rect><rect id="13-12" x="720" y="660" width="60" height="60" shape-rendering="crispEdges" style="fill:#d1a800;opacity:255;"></rect><rect id="14-12" x="780" y="660" width="60" height="60" shape-rendering="crispEdges" style="fill:#d1a800;opacity:255;"></rect><rect id="15-12" x="840" y="660" width="60" height="60" shape-rendering="crispEdges" style="fill:#d1a800;opacity:255;"></rect><rect id="16-12" x="900" y="660" width="60" height="60" shape-rendering="crispEdges" style="fill:#d1a800;opacity:255;"></rect><rect id="17-12" x="960" y="660" width="60" height="60" shape-rendering="crispEdges" style="fill:#d1a800;opacity:255;"></rect><rect id="18-12" x="1020" y="660" width="60" height="60" shape-rendering="crispEdges" style="fill:#d1a800;opacity:255;"></rect><rect id="19-12" x="1080" y="660" width="60" height="60" shape-rendering="crispEdges" style="fill:#d1a800;opacity:255;"></rect><rect id="20-12" x="1140" y="660" width="60" height="60" shape-rendering="crispEdges" style="fill:#d1a800;opacity:255;"></rect><rect id="21-12" x="1200" y="660" width="60" height="60" shape-rendering="crispEdges" style="fill:#d1a800;opacity:255;"></rect><rect id="22-12" x="1260" y="660" width="60" height="60" shape-rendering="crispEdges" style="fill:#d1a800;opacity:255;"></rect><rect id="23-12" x="1320" y="660" width="60" height="60" shape-rendering="crispEdges" style="fill:#d1a800;opacity:255;"></rect><rect id="24-12" x="1380" y="660" width="60" height="60" shape-rendering="crispEdges" style="fill:#d1a800;opacity:255;"></rect><rect id="25-12" x="1440" y="660" width="60" height="60" shape-rendering="crispEdges" style="fill:#ffd300;opacity:255;"></rect><rect id="26-12" x="1500" y="660" width="60" height="60" shape-rendering="crispEdges" style="fill:#ffd300;opacity:255;"></rect><rect id="27-12" x="1560" y="660" width="60" height="60" shape-rendering="crispEdges" style="fill:#ffd300;opacity:255;"></rect><rect id="28-12" x="1620" y="660" width="60" height="60" shape-rendering="crispEdges" style="fill:#ffd300;opacity:255;"></rect><rect id="4-13" x="180" y="720" width="60" height="60" shape-rendering="crispEdges" style="fill:#ffd300;opacity:255;"></rect><rect id="5-13" x="240" y="720" width="60" height="60" shape-rendering="crispEdges" style="fill:#ffd300;opacity:255;"></rect><rect id="6-13" x="300" y="720" width="60" height="60" shape-rendering="crispEdges" style="fill:#d1a800;opacity:255;"></rect><rect id="7-13" x="360" y="720" width="60" height="60" shape-rendering="crispEdges" style="fill:#d1a800;opacity:255;"></rect><rect id="8-13" x="420" y="720" width="60" height="60" shape-rendering="crispEdges" style="fill:#d1a800;opacity:255;"></rect><rect id="9-13" x="480" y="720" width="60" height="60" shape-rendering="crispEdges" style="fill:#ffd300;opacity:255;"></rect><rect id="10-13" x="540" y="720" width="60" height="60" shape-rendering="crispEdges" style="fill:#ffd300;opacity:255;"></rect><rect id="11-13" x="600" y="720" width="60" height="60" shape-rendering="crispEdges" style="fill:#ffd300;opacity:255;"></rect><rect id="12-13" x="660" y="720" width="60" height="60" shape-rendering="crispEdges" style="fill:#ffd300;opacity:255;"></rect><rect id="13-13" x="720" y="720" width="60" height="60" shape-rendering="crispEdges" style="fill:#ffd300;opacity:255;"></rect><rect id="14-13" x="780" y="720" width="60" height="60" shape-rendering="crispEdges" style="fill:#ffd300;opacity:255;"></rect><rect id="15-13" x="840" y="720" width="60" height="60" shape-rendering="crispEdges" style="fill:#ffd300;opacity:255;"></rect><rect id="16-13" x="900" y="720" width="60" height="60" shape-rendering="crispEdges" style="fill:#ffd300;opacity:255;"></rect><rect id="17-13" x="960" y="720" width="60" height="60" shape-rendering="crispEdges" style="fill:#ffd300;opacity:255;"></rect><rect id="18-13" x="1020" y="720" width="60" height="60" shape-rendering="crispEdges" style="fill:#ffd300;opacity:255;"></rect><rect id="19-13" x="1080" y="720" width="60" height="60" shape-rendering="crispEdges" style="fill:#ffd300;opacity:255;"></rect><rect id="20-13" x="1140" y="720" width="60" height="60" shape-rendering="crispEdges" style="fill:#ffd300;opacity:255;"></rect><rect id="21-13" x="1200" y="720" width="60" height="60" shape-rendering="crispEdges" style="fill:#ffd300;opacity:255;"></rect><rect id="22-13" x="1260" y="720" width="60" height="60" shape-rendering="crispEdges" style="fill:#ffd300;opacity:255;"></rect><rect id="23-13" x="1320" y="720" width="60" height="60" shape-rendering="crispEdges" style="fill:#ffd300;opacity:255;"></rect><rect id="24-13" x="1380" y="720" width="60" height="60" shape-rendering="crispEdges" style="fill:#ffd300;opacity:255;"></rect><rect id="25-13" x="1440" y="720" width="60" height="60" shape-rendering="crispEdges" style="fill:#d1a800;opacity:255;"></rect><rect id="26-13" x="1500" y="720" width="60" height="60" shape-rendering="crispEdges" style="fill:#d1a800;opacity:255;"></rect><rect id="27-13" x="1560" y="720" width="60" height="60" shape-rendering="crispEdges" style="fill:#d1a800;opacity:255;"></rect><rect id="28-13" x="1620" y="720" width="60" height="60" shape-rendering="crispEdges" style="fill:#ffd300;opacity:255;"></rect><rect id="29-13" x="1680" y="720" width="60" height="60" shape-rendering="crispEdges" style="fill:#ffd300;opacity:255;"></rect><rect id="4-14" x="180" y="780" width="60" height="60" shape-rendering="crispEdges" style="fill:#ffd300;opacity:255;"></rect><rect id="5-14" x="240" y="780" width="60" height="60" shape-rendering="crispEdges" style="fill:#d1a800;opacity:255;"></rect><rect id="6-14" x="300" y="780" width="60" height="60" shape-rendering="crispEdges" style="fill:#ffd300;opacity:255;"></rect><rect id="7-14" x="360" y="780" width="60" height="60" shape-rendering="crispEdges" style="fill:#ffd300;opacity:255;"></rect><rect id="8-14" x="420" y="780" width="60" height="60" shape-rendering="crispEdges" style="fill:#ffd300;opacity:255;"></rect><rect id="9-14" x="480" y="780" width="60" height="60" shape-rendering="crispEdges" style="fill:#ffd300;opacity:255;"></rect><rect id="10-14" x="540" y="780" width="60" height="60" shape-rendering="crispEdges" style="fill:#ffd300;opacity:255;"></rect><rect id="11-14" x="600" y="780" width="60" height="60" shape-rendering="crispEdges" style="fill:#ffd300;opacity:255;"></rect><rect id="12-14" x="660" y="780" width="60" height="60" shape-rendering="crispEdges" style="fill:#ffd300;opacity:255;"></rect><rect id="13-14" x="720" y="780" width="60" height="60" shape-rendering="crispEdges" style="fill:#ffd300;opacity:255;"></rect><rect id="14-14" x="780" y="780" width="60" height="60" shape-rendering="crispEdges" style="fill:#ffd300;opacity:255;"></rect><rect id="15-14" x="840" y="780" width="60" height="60" shape-rendering="crispEdges" style="fill:#ffd300;opacity:255;"></rect><rect id="16-14" x="900" y="780" width="60" height="60" shape-rendering="crispEdges" style="fill:#ffd300;opacity:255;"></rect><rect id="17-14" x="960" y="780" width="60" height="60" shape-rendering="crispEdges" style="fill:#ffd300;opacity:255;"></rect><rect id="18-14" x="1020" y="780" width="60" height="60" shape-rendering="crispEdges" style="fill:#ffd300;opacity:255;"></rect><rect id="19-14" x="1080" y="780" width="60" height="60" shape-rendering="crispEdges" style="fill:#ffd300;opacity:255;"></rect><rect id="20-14" x="1140" y="780" width="60" height="60" shape-rendering="crispEdges" style="fill:#ffd300;opacity:255;"></rect><rect id="21-14" x="1200" y="780" width="60" height="60" shape-rendering="crispEdges" style="fill:#ffd300;opacity:255;"></rect><rect id="22-14" x="1260" y="780" width="60" height="60" shape-rendering="crispEdges" style="fill:#ffd300;opacity:255;"></rect><rect id="23-14" x="1320" y="780" width="60" height="60" shape-rendering="crispEdges" style="fill:#ffd300;opacity:255;"></rect><rect id="24-14" x="1380" y="780" width="60" height="60" shape-rendering="crispEdges" style="fill:#ffd300;opacity:255;"></rect><rect id="25-14" x="1440" y="780" width="60" height="60" shape-rendering="crispEdges" style="fill:#ffd300;opacity:255;"></rect><rect id="26-14" x="1500" y="780" width="60" height="60" shape-rendering="crispEdges" style="fill:#ffd300;opacity:255;"></rect><rect id="27-14" x="1560" y="780" width="60" height="60" shape-rendering="crispEdges" style="fill:#ffd300;opacity:255;"></rect><rect id="28-14" x="1620" y="780" width="60" height="60" shape-rendering="crispEdges" style="fill:#d1a800;opacity:255;"></rect><rect id="29-14" x="1680" y="780" width="60" height="60" shape-rendering="crispEdges" style="fill:#ffd300;opacity:255;"></rect><rect id="4-15" x="180" y="840" width="60" height="60" shape-rendering="crispEdges" style="fill:#ffd300;opacity:255;"></rect><rect id="5-15" x="240" y="840" width="60" height="60" shape-rendering="crispEdges" style="fill:#d1a800;opacity:255;"></rect><rect id="6-15" x="300" y="840" width="60" height="60" shape-rendering="crispEdges" style="fill:#ffd300;opacity:255;"></rect><rect id="7-15" x="360" y="840" width="60" height="60" shape-rendering="crispEdges" style="fill:#ffd300;opacity:255;"></rect><rect id="8-15" x="420" y="840" width="60" height="60" shape-rendering="crispEdges" style="fill:#ffd300;opacity:255;"></rect><rect id="9-15" x="480" y="840" width="60" height="60" shape-rendering="crispEdges" style="fill:#ffd300;opacity:255;"></rect><rect id="10-15" x="540" y="840" width="60" height="60" shape-rendering="crispEdges" style="fill:#ffd300;opacity:255;"></rect><rect id="11-15" x="600" y="840" width="60" height="60" shape-rendering="crispEdges" style="fill:#ffd300;opacity:255;"></rect><rect id="12-15" x="660" y="840" width="60" height="60" shape-rendering="crispEdges" style="fill:#ffd300;opacity:255;"></rect><rect id="13-15" x="720" y="840" width="60" height="60" shape-rendering="crispEdges" style="fill:#ffd300;opacity:255;"></rect><rect id="14-15" x="780" y="840" width="60" height="60" shape-rendering="crispEdges" style="fill:#ffd300;opacity:255;"></rect><rect id="15-15" x="840" y="840" width="60" height="60" shape-rendering="crispEdges" style="fill:#ffd300;opacity:255;"></rect><rect id="16-15" x="900" y="840" width="60" height="60" shape-rendering="crispEdges" style="fill:#ffd300;opacity:255;"></rect><rect id="17-15" x="960" y="840" width="60" height="60" shape-rendering="crispEdges" style="fill:#ffd300;opacity:255;"></rect><rect id="18-15" x="1020" y="840" width="60" height="60" shape-rendering="crispEdges" style="fill:#ffd300;opacity:255;"></rect><rect id="19-15" x="1080" y="840" width="60" height="60" shape-rendering="crispEdges" style="fill:#ffd300;opacity:255;"></rect><rect id="20-15" x="1140" y="840" width="60" height="60" shape-rendering="crispEdges" style="fill:#ffd300;opacity:255;"></rect><rect id="21-15" x="1200" y="840" width="60" height="60" shape-rendering="crispEdges" style="fill:#ffd300;opacity:255;"></rect><rect id="22-15" x="1260" y="840" width="60" height="60" shape-rendering="crispEdges" style="fill:#ffd300;opacity:255;"></rect><rect id="23-15" x="1320" y="840" width="60" height="60" shape-rendering="crispEdges" style="fill:#ffd300;opacity:255;"></rect><rect id="24-15" x="1380" y="840" width="60" height="60" shape-rendering="crispEdges" style="fill:#ffd300;opacity:255;"></rect><rect id="25-15" x="1440" y="840" width="60" height="60" shape-rendering="crispEdges" style="fill:#ffd300;opacity:255;"></rect><rect id="26-15" x="1500" y="840" width="60" height="60" shape-rendering="crispEdges" style="fill:#ffd300;opacity:255;"></rect><rect id="27-15" x="1560" y="840" width="60" height="60" shape-rendering="crispEdges" style="fill:#ffd300;opacity:255;"></rect><rect id="28-15" x="1620" y="840" width="60" height="60" shape-rendering="crispEdges" style="fill:#d1a800;opacity:255;"></rect><rect id="29-15" x="1680" y="840" width="60" height="60" shape-rendering="crispEdges" style="fill:#ffd300;opacity:255;"></rect><rect id="3-16" x="120" y="900" width="60" height="60" shape-rendering="crispEdges" style="fill:#ffd300;opacity:255;"></rect><rect id="4-16" x="180" y="900" width="60" height="60" shape-rendering="crispEdges" style="fill:#ffd300;opacity:255;"></rect><rect id="5-16" x="240" y="900" width="60" height="60" shape-rendering="crispEdges" style="fill:#d1a800;opacity:255;"></rect><rect id="6-16" x="300" y="900" width="60" height="60" shape-rendering="crispEdges" style="fill:#ffd300;opacity:255;"></rect><rect id="7-16" x="360" y="900" width="60" height="60" shape-rendering="crispEdges" style="fill:#ffd300;opacity:255;"></rect><rect id="8-16" x="420" y="900" width="60" height="60" shape-rendering="crispEdges" style="fill:#ffd300;opacity:255;"></rect><rect id="9-16" x="480" y="900" width="60" height="60" shape-rendering="crispEdges" style="fill:#ffd300;opacity:255;"></rect><rect id="10-16" x="540" y="900" width="60" height="60" shape-rendering="crispEdges" style="fill:#ffd300;opacity:255;"></rect><rect id="11-16" x="600" y="900" width="60" height="60" shape-rendering="crispEdges" style="fill:#ffd300;opacity:255;"></rect><rect id="12-16" x="660" y="900" width="60" height="60" shape-rendering="crispEdges" style="fill:#ffd300;opacity:255;"></rect><rect id="13-16" x="720" y="900" width="60" height="60" shape-rendering="crispEdges" style="fill:#ffd300;opacity:255;"></rect><rect id="14-16" x="780" y="900" width="60" height="60" shape-rendering="crispEdges" style="fill:#ffd300;opacity:255;"></rect><rect id="15-16" x="840" y="900" width="60" height="60" shape-rendering="crispEdges" style="fill:#ffd300;opacity:255;"></rect><rect id="16-16" x="900" y="900" width="60" height="60" shape-rendering="crispEdges" style="fill:#ffd300;opacity:255;"></rect><rect id="17-16" x="960" y="900" width="60" height="60" shape-rendering="crispEdges" style="fill:#ffd300;opacity:255;"></rect><rect id="18-16" x="1020" y="900" width="60" height="60" shape-rendering="crispEdges" style="fill:#ffd300;opacity:255;"></rect><rect id="19-16" x="1080" y="900" width="60" height="60" shape-rendering="crispEdges" style="fill:#ffd300;opacity:255;"></rect><rect id="20-16" x="1140" y="900" width="60" height="60" shape-rendering="crispEdges" style="fill:#ffd300;opacity:255;"></rect><rect id="21-16" x="1200" y="900" width="60" height="60" shape-rendering="crispEdges" style="fill:#ffd300;opacity:255;"></rect><rect id="22-16" x="1260" y="900" width="60" height="60" shape-rendering="crispEdges" style="fill:#ffd300;opacity:255;"></rect><rect id="23-16" x="1320" y="900" width="60" height="60" shape-rendering="crispEdges" style="fill:#ffd300;opacity:255;"></rect><rect id="24-16" x="1380" y="900" width="60" height="60" shape-rendering="crispEdges" style="fill:#ffd300;opacity:255;"></rect><rect id="25-16" x="1440" y="900" width="60" height="60" shape-rendering="crispEdges" style="fill:#ffd300;opacity:255;"></rect><rect id="26-16" x="1500" y="900" width="60" height="60" shape-rendering="crispEdges" style="fill:#ffd300;opacity:255;"></rect><rect id="27-16" x="1560" y="900" width="60" height="60" shape-rendering="crispEdges" style="fill:#ffd300;opacity:255;"></rect><rect id="28-16" x="1620" y="900" width="60" height="60" shape-rendering="crispEdges" style="fill:#d1a800;opacity:255;"></rect><rect id="29-16" x="1680" y="900" width="60" height="60" shape-rendering="crispEdges" style="fill:#ffd300;opacity:255;"></rect><rect id="30-16" x="1740" y="900" width="60" height="60" shape-rendering="crispEdges" style="fill:#ffd300;opacity:255;"></rect><rect id="3-17" x="120" y="960" width="60" height="60" shape-rendering="crispEdges" style="fill:#ffd300;opacity:255;"></rect><rect id="4-17" x="180" y="960" width="60" height="60" shape-rendering="crispEdges" style="fill:#d1a800;opacity:255;"></rect><rect id="5-17" x="240" y="960" width="60" height="60" shape-rendering="crispEdges" style="fill:#ffd300;opacity:255;"></rect><rect id="6-17" x="300" y="960" width="60" height="60" shape-rendering="crispEdges" style="fill:#ffd300;opacity:255;"></rect><rect id="7-17" x="360" y="960" width="60" height="60" shape-rendering="crispEdges" style="fill:#ffd300;opacity:255;"></rect><rect id="8-17" x="420" y="960" width="60" height="60" shape-rendering="crispEdges" style="fill:#ffd300;opacity:255;"></rect><rect id="9-17" x="480" y="960" width="60" height="60" shape-rendering="crispEdges" style="fill:#ffd300;opacity:255;"></rect><rect id="10-17" x="540" y="960" width="60" height="60" shape-rendering="crispEdges" style="fill:#ffd300;opacity:255;"></rect><rect id="11-17" x="600" y="960" width="60" height="60" shape-rendering="crispEdges" style="fill:#ffd300;opacity:255;"></rect><rect id="12-17" x="660" y="960" width="60" height="60" shape-rendering="crispEdges" style="fill:#ffd300;opacity:255;"></rect><rect id="13-17" x="720" y="960" width="60" height="60" shape-rendering="crispEdges" style="fill:#ffd300;opacity:255;"></rect><rect id="14-17" x="780" y="960" width="60" height="60" shape-rendering="crispEdges" style="fill:#ffd300;opacity:255;"></rect><rect id="15-17" x="840" y="960" width="60" height="60" shape-rendering="crispEdges" style="fill:#ffd300;opacity:255;"></rect><rect id="16-17" x="900" y="960" width="60" height="60" shape-rendering="crispEdges" style="fill:#ffd300;opacity:255;"></rect><rect id="17-17" x="960" y="960" width="60" height="60" shape-rendering="crispEdges" style="fill:#ffd300;opacity:255;"></rect><rect id="18-17" x="1020" y="960" width="60" height="60" shape-rendering="crispEdges" style="fill:#ffd300;opacity:255;"></rect><rect id="19-17" x="1080" y="960" width="60" height="60" shape-rendering="crispEdges" style="fill:#ffd300;opacity:255;"></rect><rect id="20-17" x="1140" y="960" width="60" height="60" shape-rendering="crispEdges" style="fill:#ffd300;opacity:255;"></rect><rect id="21-17" x="1200" y="960" width="60" height="60" shape-rendering="crispEdges" style="fill:#ffd300;opacity:255;"></rect><rect id="22-17" x="1260" y="960" width="60" height="60" shape-rendering="crispEdges" style="fill:#ffd300;opacity:255;"></rect><rect id="23-17" x="1320" y="960" width="60" height="60" shape-rendering="crispEdges" style="fill:#ffd300;opacity:255;"></rect><rect id="24-17" x="1380" y="960" width="60" height="60" shape-rendering="crispEdges" style="fill:#ffd300;opacity:255;"></rect><rect id="25-17" x="1440" y="960" width="60" height="60" shape-rendering="crispEdges" style="fill:#ffd300;opacity:255;"></rect><rect id="26-17" x="1500" y="960" width="60" height="60" shape-rendering="crispEdges" style="fill:#ffd300;opacity:255;"></rect><rect id="27-17" x="1560" y="960" width="60" height="60" shape-rendering="crispEdges" style="fill:#ffd300;opacity:255;"></rect><rect id="28-17" x="1620" y="960" width="60" height="60" shape-rendering="crispEdges" style="fill:#ffd300;opacity:255;"></rect><rect id="29-17" x="1680" y="960" width="60" height="60" shape-rendering="crispEdges" style="fill:#d1a800;opacity:255;"></rect><rect id="30-17" x="1740" y="960" width="60" height="60" shape-rendering="crispEdges" style="fill:#ffd300;opacity:255;"></rect><rect id="3-18" x="120" y="1020" width="60" height="60" shape-rendering="crispEdges" style="fill:#ffd300;opacity:255;"></rect><rect id="4-18" x="180" y="1020" width="60" height="60" shape-rendering="crispEdges" style="fill:#ffd300;opacity:255;"></rect><rect id="5-18" x="240" y="1020" width="60" height="60" shape-rendering="crispEdges" style="fill:#d1a800;opacity:255;"></rect><rect id="6-18" x="300" y="1020" width="60" height="60" shape-rendering="crispEdges" style="fill:#ffd300;opacity:255;"></rect><rect id="7-18" x="360" y="1020" width="60" height="60" shape-rendering="crispEdges" style="fill:#ffd300;opacity:255;"></rect><rect id="8-18" x="420" y="1020" width="60" height="60" shape-rendering="crispEdges" style="fill:#ffd300;opacity:255;"></rect><rect id="9-18" x="480" y="1020" width="60" height="60" shape-rendering="crispEdges" style="fill:#ffd300;opacity:255;"></rect><rect id="10-18" x="540" y="1020" width="60" height="60" shape-rendering="crispEdges" style="fill:#ffd300;opacity:255;"></rect><rect id="11-18" x="600" y="1020" width="60" height="60" shape-rendering="crispEdges" style="fill:#ffd300;opacity:255;"></rect><rect id="12-18" x="660" y="1020" width="60" height="60" shape-rendering="crispEdges" style="fill:#ffd300;opacity:255;"></rect><rect id="13-18" x="720" y="1020" width="60" height="60" shape-rendering="crispEdges" style="fill:#ffd300;opacity:255;"></rect><rect id="14-18" x="780" y="1020" width="60" height="60" shape-rendering="crispEdges" style="fill:#ffd300;opacity:255;"></rect><rect id="15-18" x="840" y="1020" width="60" height="60" shape-rendering="crispEdges" style="fill:#ffd300;opacity:255;"></rect><rect id="16-18" x="900" y="1020" width="60" height="60" shape-rendering="crispEdges" style="fill:#ffd300;opacity:255;"></rect><rect id="17-18" x="960" y="1020" width="60" height="60" shape-rendering="crispEdges" style="fill:#ffd300;opacity:255;"></rect><rect id="18-18" x="1020" y="1020" width="60" height="60" shape-rendering="crispEdges" style="fill:#ffd300;opacity:255;"></rect><rect id="19-18" x="1080" y="1020" width="60" height="60" shape-rendering="crispEdges" style="fill:#ffd300;opacity:255;"></rect><rect id="20-18" x="1140" y="1020" width="60" height="60" shape-rendering="crispEdges" style="fill:#ffd300;opacity:255;"></rect><rect id="21-18" x="1200" y="1020" width="60" height="60" shape-rendering="crispEdges" style="fill:#ffd300;opacity:255;"></rect><rect id="22-18" x="1260" y="1020" width="60" height="60" shape-rendering="crispEdges" style="fill:#ffd300;opacity:255;"></rect><rect id="23-18" x="1320" y="1020" width="60" height="60" shape-rendering="crispEdges" style="fill:#ffd300;opacity:255;"></rect><rect id="24-18" x="1380" y="1020" width="60" height="60" shape-rendering="crispEdges" style="fill:#ffd300;opacity:255;"></rect><rect id="25-18" x="1440" y="1020" width="60" height="60" shape-rendering="crispEdges" style="fill:#ffd300;opacity:255;"></rect><rect id="26-18" x="1500" y="1020" width="60" height="60" shape-rendering="crispEdges" style="fill:#ffd300;opacity:255;"></rect><rect id="27-18" x="1560" y="1020" width="60" height="60" shape-rendering="crispEdges" style="fill:#ffd300;opacity:255;"></rect><rect id="28-18" x="1620" y="1020" width="60" height="60" shape-rendering="crispEdges" style="fill:#d1a800;opacity:255;"></rect><rect id="29-18" x="1680" y="1020" width="60" height="60" shape-rendering="crispEdges" style="fill:#ffd300;opacity:255;"></rect><rect id="30-18" x="1740" y="1020" width="60" height="60" shape-rendering="crispEdges" style="fill:#ffd300;opacity:255;"></rect><rect id="4-19" x="180" y="1080" width="60" height="60" shape-rendering="crispEdges" style="fill:#ffd300;opacity:255;"></rect><rect id="5-19" x="240" y="1080" width="60" height="60" shape-rendering="crispEdges" style="fill:#d1a800;opacity:255;"></rect><rect id="6-19" x="300" y="1080" width="60" height="60" shape-rendering="crispEdges" style="fill:#ffd300;opacity:255;"></rect><rect id="7-19" x="360" y="1080" width="60" height="60" shape-rendering="crispEdges" style="fill:#ffd300;opacity:255;"></rect><rect id="8-19" x="420" y="1080" width="60" height="60" shape-rendering="crispEdges" style="fill:#ffd300;opacity:255;"></rect><rect id="9-19" x="480" y="1080" width="60" height="60" shape-rendering="crispEdges" style="fill:#ffd300;opacity:255;"></rect><rect id="10-19" x="540" y="1080" width="60" height="60" shape-rendering="crispEdges" style="fill:#ffd300;opacity:255;"></rect><rect id="11-19" x="600" y="1080" width="60" height="60" shape-rendering="crispEdges" style="fill:#ffd300;opacity:255;"></rect><rect id="12-19" x="660" y="1080" width="60" height="60" shape-rendering="crispEdges" style="fill:#ffd300;opacity:255;"></rect><rect id="13-19" x="720" y="1080" width="60" height="60" shape-rendering="crispEdges" style="fill:#ffd300;opacity:255;"></rect><rect id="14-19" x="780" y="1080" width="60" height="60" shape-rendering="crispEdges" style="fill:#ffd300;opacity:255;"></rect><rect id="15-19" x="840" y="1080" width="60" height="60" shape-rendering="crispEdges" style="fill:#ffd300;opacity:255;"></rect><rect id="16-19" x="900" y="1080" width="60" height="60" shape-rendering="crispEdges" style="fill:#ffd300;opacity:255;"></rect><rect id="17-19" x="960" y="1080" width="60" height="60" shape-rendering="crispEdges" style="fill:#ffd300;opacity:255;"></rect><rect id="18-19" x="1020" y="1080" width="60" height="60" shape-rendering="crispEdges" style="fill:#ffd300;opacity:255;"></rect><rect id="19-19" x="1080" y="1080" width="60" height="60" shape-rendering="crispEdges" style="fill:#ffd300;opacity:255;"></rect><rect id="20-19" x="1140" y="1080" width="60" height="60" shape-rendering="crispEdges" style="fill:#ffd300;opacity:255;"></rect><rect id="21-19" x="1200" y="1080" width="60" height="60" shape-rendering="crispEdges" style="fill:#ffd300;opacity:255;"></rect><rect id="22-19" x="1260" y="1080" width="60" height="60" shape-rendering="crispEdges" style="fill:#ffd300;opacity:255;"></rect><rect id="23-19" x="1320" y="1080" width="60" height="60" shape-rendering="crispEdges" style="fill:#ffd300;opacity:255;"></rect><rect id="24-19" x="1380" y="1080" width="60" height="60" shape-rendering="crispEdges" style="fill:#ffd300;opacity:255;"></rect><rect id="25-19" x="1440" y="1080" width="60" height="60" shape-rendering="crispEdges" style="fill:#ffd300;opacity:255;"></rect><rect id="26-19" x="1500" y="1080" width="60" height="60" shape-rendering="crispEdges" style="fill:#ffd300;opacity:255;"></rect><rect id="27-19" x="1560" y="1080" width="60" height="60" shape-rendering="crispEdges" style="fill:#ffd300;opacity:255;"></rect><rect id="28-19" x="1620" y="1080" width="60" height="60" shape-rendering="crispEdges" style="fill:#d1a800;opacity:255;"></rect><rect id="29-19" x="1680" y="1080" width="60" height="60" shape-rendering="crispEdges" style="fill:#ffd300;opacity:255;"></rect><rect id="4-20" x="180" y="1140" width="60" height="60" shape-rendering="crispEdges" style="fill:#ffd300;opacity:255;"></rect><rect id="5-20" x="240" y="1140" width="60" height="60" shape-rendering="crispEdges" style="fill:#d1a800;opacity:255;"></rect><rect id="6-20" x="300" y="1140" width="60" height="60" shape-rendering="crispEdges" style="fill:#ffd300;opacity:255;"></rect><rect id="7-20" x="360" y="1140" width="60" height="60" shape-rendering="crispEdges" style="fill:#ffd300;opacity:255;"></rect><rect id="8-20" x="420" y="1140" width="60" height="60" shape-rendering="crispEdges" style="fill:#ffd300;opacity:255;"></rect><rect id="9-20" x="480" y="1140" width="60" height="60" shape-rendering="crispEdges" style="fill:#ffd300;opacity:255;"></rect><rect id="10-20" x="540" y="1140" width="60" height="60" shape-rendering="crispEdges" style="fill:#ffd300;opacity:255;"></rect><rect id="11-20" x="600" y="1140" width="60" height="60" shape-rendering="crispEdges" style="fill:#ffd300;opacity:255;"></rect><rect id="12-20" x="660" y="1140" width="60" height="60" shape-rendering="crispEdges" style="fill:#ffd300;opacity:255;"></rect><rect id="13-20" x="720" y="1140" width="60" height="60" shape-rendering="crispEdges" style="fill:#ffd300;opacity:255;"></rect><rect id="14-20" x="780" y="1140" width="60" height="60" shape-rendering="crispEdges" style="fill:#ffd300;opacity:255;"></rect><rect id="15-20" x="840" y="1140" width="60" height="60" shape-rendering="crispEdges" style="fill:#ffd300;opacity:255;"></rect><rect id="16-20" x="900" y="1140" width="60" height="60" shape-rendering="crispEdges" style="fill:#ffd300;opacity:255;"></rect><rect id="17-20" x="960" y="1140" width="60" height="60" shape-rendering="crispEdges" style="fill:#ffd300;opacity:255;"></rect><rect id="18-20" x="1020" y="1140" width="60" height="60" shape-rendering="crispEdges" style="fill:#ffd300;opacity:255;"></rect><rect id="19-20" x="1080" y="1140" width="60" height="60" shape-rendering="crispEdges" style="fill:#ffd300;opacity:255;"></rect><rect id="20-20" x="1140" y="1140" width="60" height="60" shape-rendering="crispEdges" style="fill:#ffd300;opacity:255;"></rect><rect id="21-20" x="1200" y="1140" width="60" height="60" shape-rendering="crispEdges" style="fill:#ffd300;opacity:255;"></rect><rect id="22-20" x="1260" y="1140" width="60" height="60" shape-rendering="crispEdges" style="fill:#ffd300;opacity:255;"></rect><rect id="23-20" x="1320" y="1140" width="60" height="60" shape-rendering="crispEdges" style="fill:#ffd300;opacity:255;"></rect><rect id="24-20" x="1380" y="1140" width="60" height="60" shape-rendering="crispEdges" style="fill:#ffd300;opacity:255;"></rect><rect id="25-20" x="1440" y="1140" width="60" height="60" shape-rendering="crispEdges" style="fill:#ffd300;opacity:255;"></rect><rect id="26-20" x="1500" y="1140" width="60" height="60" shape-rendering="crispEdges" style="fill:#ffd300;opacity:255;"></rect><rect id="27-20" x="1560" y="1140" width="60" height="60" shape-rendering="crispEdges" style="fill:#ffd300;opacity:255;"></rect><rect id="28-20" x="1620" y="1140" width="60" height="60" shape-rendering="crispEdges" style="fill:#d1a800;opacity:255;"></rect><rect id="29-20" x="1680" y="1140" width="60" height="60" shape-rendering="crispEdges" style="fill:#ffd300;opacity:255;"></rect><rect id="4-21" x="180" y="1200" width="60" height="60" shape-rendering="crispEdges" style="fill:#ffd300;opacity:255;"></rect><rect id="5-21" x="240" y="1200" width="60" height="60" shape-rendering="crispEdges" style="fill:#ffd300;opacity:255;"></rect><rect id="6-21" x="300" y="1200" width="60" height="60" shape-rendering="crispEdges" style="fill:#d1a800;opacity:255;"></rect><rect id="7-21" x="360" y="1200" width="60" height="60" shape-rendering="crispEdges" style="fill:#d1a800;opacity:255;"></rect><rect id="8-21" x="420" y="1200" width="60" height="60" shape-rendering="crispEdges" style="fill:#ffd300;opacity:255;"></rect><rect id="9-21" x="480" y="1200" width="60" height="60" shape-rendering="crispEdges" style="fill:#ffd300;opacity:255;"></rect><rect id="10-21" x="540" y="1200" width="60" height="60" shape-rendering="crispEdges" style="fill:#ffd300;opacity:255;"></rect><rect id="11-21" x="600" y="1200" width="60" height="60" shape-rendering="crispEdges" style="fill:#ffd300;opacity:255;"></rect><rect id="12-21" x="660" y="1200" width="60" height="60" shape-rendering="crispEdges" style="fill:#ffd300;opacity:255;"></rect><rect id="13-21" x="720" y="1200" width="60" height="60" shape-rendering="crispEdges" style="fill:#ffd300;opacity:255;"></rect><rect id="14-21" x="780" y="1200" width="60" height="60" shape-rendering="crispEdges" style="fill:#ffd300;opacity:255;"></rect><rect id="15-21" x="840" y="1200" width="60" height="60" shape-rendering="crispEdges" style="fill:#ffd300;opacity:255;"></rect><rect id="16-21" x="900" y="1200" width="60" height="60" shape-rendering="crispEdges" style="fill:#ffd300;opacity:255;"></rect><rect id="17-21" x="960" y="1200" width="60" height="60" shape-rendering="crispEdges" style="fill:#ffd300;opacity:255;"></rect><rect id="18-21" x="1020" y="1200" width="60" height="60" shape-rendering="crispEdges" style="fill:#ffd300;opacity:255;"></rect><rect id="19-21" x="1080" y="1200" width="60" height="60" shape-rendering="crispEdges" style="fill:#ffd300;opacity:255;"></rect><rect id="20-21" x="1140" y="1200" width="60" height="60" shape-rendering="crispEdges" style="fill:#ffd300;opacity:255;"></rect><rect id="21-21" x="1200" y="1200" width="60" height="60" shape-rendering="crispEdges" style="fill:#ffd300;opacity:255;"></rect><rect id="22-21" x="1260" y="1200" width="60" height="60" shape-rendering="crispEdges" style="fill:#ffd300;opacity:255;"></rect><rect id="23-21" x="1320" y="1200" width="60" height="60" shape-rendering="crispEdges" style="fill:#ffd300;opacity:255;"></rect><rect id="24-21" x="1380" y="1200" width="60" height="60" shape-rendering="crispEdges" style="fill:#ffd300;opacity:255;"></rect><rect id="25-21" x="1440" y="1200" width="60" height="60" shape-rendering="crispEdges" style="fill:#d1a800;opacity:255;"></rect><rect id="26-21" x="1500" y="1200" width="60" height="60" shape-rendering="crispEdges" style="fill:#d1a800;opacity:255;"></rect><rect id="27-21" x="1560" y="1200" width="60" height="60" shape-rendering="crispEdges" style="fill:#d1a800;opacity:255;"></rect><rect id="28-21" x="1620" y="1200" width="60" height="60" shape-rendering="crispEdges" style="fill:#ffd300;opacity:255;"></rect><rect id="29-21" x="1680" y="1200" width="60" height="60" shape-rendering="crispEdges" style="fill:#ffd300;opacity:255;"></rect><rect id="5-22" x="240" y="1260" width="60" height="60" shape-rendering="crispEdges" style="fill:#ffd300;opacity:255;"></rect><rect id="6-22" x="300" y="1260" width="60" height="60" shape-rendering="crispEdges" style="fill:#ffd300;opacity:255;"></rect><rect id="7-22" x="360" y="1260" width="60" height="60" shape-rendering="crispEdges" style="fill:#ffd300;opacity:255;"></rect><rect id="8-22" x="420" y="1260" width="60" height="60" shape-rendering="crispEdges" style="fill:#d1a800;opacity:255;"></rect><rect id="9-22" x="480" y="1260" width="60" height="60" shape-rendering="crispEdges" style="fill:#d1a800;opacity:255;"></rect><rect id="10-22" x="540" y="1260" width="60" height="60" shape-rendering="crispEdges" style="fill:#d1a800;opacity:255;"></rect><rect id="11-22" x="600" y="1260" width="60" height="60" shape-rendering="crispEdges" style="fill:#d1a800;opacity:255;"></rect><rect id="12-22" x="660" y="1260" width="60" height="60" shape-rendering="crispEdges" style="fill:#d1a800;opacity:255;"></rect><rect id="13-22" x="720" y="1260" width="60" height="60" shape-rendering="crispEdges" style="fill:#d1a800;opacity:255;"></rect><rect id="14-22" x="780" y="1260" width="60" height="60" shape-rendering="crispEdges" style="fill:#d1a800;opacity:255;"></rect><rect id="15-22" x="840" y="1260" width="60" height="60" shape-rendering="crispEdges" style="fill:#d1a800;opacity:255;"></rect><rect id="16-22" x="900" y="1260" width="60" height="60" shape-rendering="crispEdges" style="fill:#d1a800;opacity:255;"></rect><rect id="17-22" x="960" y="1260" width="60" height="60" shape-rendering="crispEdges" style="fill:#d1a800;opacity:255;"></rect><rect id="18-22" x="1020" y="1260" width="60" height="60" shape-rendering="crispEdges" style="fill:#d1a800;opacity:255;"></rect><rect id="19-22" x="1080" y="1260" width="60" height="60" shape-rendering="crispEdges" style="fill:#d1a800;opacity:255;"></rect><rect id="20-22" x="1140" y="1260" width="60" height="60" shape-rendering="crispEdges" style="fill:#d1a800;opacity:255;"></rect><rect id="21-22" x="1200" y="1260" width="60" height="60" shape-rendering="crispEdges" style="fill:#d1a800;opacity:255;"></rect><rect id="22-22" x="1260" y="1260" width="60" height="60" shape-rendering="crispEdges" style="fill:#d1a800;opacity:255;"></rect><rect id="23-22" x="1320" y="1260" width="60" height="60" shape-rendering="crispEdges" style="fill:#d1a800;opacity:255;"></rect><rect id="24-22" x="1380" y="1260" width="60" height="60" shape-rendering="crispEdges" style="fill:#d1a800;opacity:255;"></rect><rect id="25-22" x="1440" y="1260" width="60" height="60" shape-rendering="crispEdges" style="fill:#ffd300;opacity:255;"></rect><rect id="26-22" x="1500" y="1260" width="60" height="60" shape-rendering="crispEdges" style="fill:#ffd300;opacity:255;"></rect><rect id="27-22" x="1560" y="1260" width="60" height="60" shape-rendering="crispEdges" style="fill:#ffd300;opacity:255;"></rect><rect id="28-22" x="1620" y="1260" width="60" height="60" shape-rendering="crispEdges" style="fill:#ffd300;opacity:255;"></rect><rect id="8-23" x="420" y="1320" width="60" height="60" shape-rendering="crispEdges" style="fill:#ffd300;opacity:255;"></rect><rect id="9-23" x="480" y="1320" width="60" height="60" shape-rendering="crispEdges" style="fill:#ffd300;opacity:255;"></rect><rect id="10-23" x="540" y="1320" width="60" height="60" shape-rendering="crispEdges" style="fill:#ffd300;opacity:255;"></rect><rect id="11-23" x="600" y="1320" width="60" height="60" shape-rendering="crispEdges" style="fill:#ffd300;opacity:255;"></rect><rect id="12-23" x="660" y="1320" width="60" height="60" shape-rendering="crispEdges" style="fill:#ffd300;opacity:255;"></rect><rect id="13-23" x="720" y="1320" width="60" height="60" shape-rendering="crispEdges" style="fill:#ffd300;opacity:255;"></rect><rect id="14-23" x="780" y="1320" width="60" height="60" shape-rendering="crispEdges" style="fill:#ffd300;opacity:255;"></rect><rect id="15-23" x="840" y="1320" width="60" height="60" shape-rendering="crispEdges" style="fill:#ffd300;opacity:255;"></rect><rect id="16-23" x="900" y="1320" width="60" height="60" shape-rendering="crispEdges" style="fill:#ffd300;opacity:255;"></rect><rect id="17-23" x="960" y="1320" width="60" height="60" shape-rendering="crispEdges" style="fill:#ffd300;opacity:255;"></rect><rect id="18-23" x="1020" y="1320" width="60" height="60" shape-rendering="crispEdges" style="fill:#ffd300;opacity:255;"></rect><rect id="19-23" x="1080" y="1320" width="60" height="60" shape-rendering="crispEdges" style="fill:#ffd300;opacity:255;"></rect><rect id="20-23" x="1140" y="1320" width="60" height="60" shape-rendering="crispEdges" style="fill:#ffd300;opacity:255;"></rect><rect id="21-23" x="1200" y="1320" width="60" height="60" shape-rendering="crispEdges" style="fill:#ffd300;opacity:255;"></rect><rect id="22-23" x="1260" y="1320" width="60" height="60" shape-rendering="crispEdges" style="fill:#ffd300;opacity:255;"></rect><rect id="23-23" x="1320" y="1320" width="60" height="60" shape-rendering="crispEdges" style="fill:#ffd300;opacity:255;"></rect><rect id="24-23" x="1380" y="1320" width="60" height="60" shape-rendering="crispEdges" style="fill:#ffd300;opacity:255;"></rect><rect id="25-23" x="1440" y="1320" width="60" height="60" shape-rendering="crispEdges" style="fill:#ffd300;opacity:255;"></rect></svg>
